M48
;Layer_Color=9474304
;FILE_FORMAT=4:4
METRIC,LZ
;TYPE=PLATED
T1F00S00C0.3000
T2F00S00C0.8000
%
T01
X00261Y00011
X0026075Y000385
X0027475Y0005675
X0027Y0009225
X00258Y0009225
X00293Y00112
X00289Y0013825
X002885Y0015975
X003015Y001745
X00295Y0018725
X003345Y0019275
X00329Y00221
X0037675Y00217
X00409Y00221
X004075Y0017
X0040675Y001375
X00417
X0037175Y001485
X0033425Y0012175
X0033575Y0010575
X003135Y0007725
X003165Y000575
X0031475Y0003975
X0034325Y00037
X00405Y0003775
X004095Y0007425
X0042075Y0001
X00255Y001535
X0025725Y0017675
X00258Y002075
X00172Y00201
X0016875Y002335
X0013425Y0021325
X0013025Y001695
X0017375Y00167
X00170705Y00137019
X00169Y0010825
X0015675
X0016575Y0007825
X0013Y000815
X000875Y0009175
X00068Y0010725
X0009625Y0012175
X000875Y00197
X0008775Y0024525
X0004575Y00171
X0001425Y0020225
X00013Y00137
Y0006325
X000415Y000895
X0004225Y000115
X0010825Y0000975
X00171
X0016425Y002835
X00086Y0028525
X00015Y002775
X002585Y00284
X0032775Y0028275
X004155
T02
X000801Y0026325
X001055
X001309
M30
