M48
;Layer_Color=9474304
;FILE_FORMAT=4:4
METRIC,LZ
T3F00S00C1.0000
%
G90
G05
T03
G00X00195906Y00152927
M15
G01X00199Y00154
G01X00231Y00154
G01X00233183Y00153498
G01X00234927Y00152094
G01X00236Y00149
G01X00236Y00171
G01X00235498Y00168817
G01X00234094Y00167073
G01X00231Y00166
G01X00199Y00166
G01X00196817Y00166502
G01X00195073Y00167906
G01X00194Y00171
G01X00194Y00149
G01X00194502Y00151183
G01X00195906Y00152927
M16
G00X00492183Y-00004498
M15
G01X00493536Y-00003536
G01X00503536Y00006464
G01X00504724Y00008362
G01X00505Y0001
G01X00505Y00139
G01X00504498Y00141183
G01X00503536Y00142536
G01X00493536Y00152536
G01X00491638Y00153724
G01X0049Y00154
G01X0044Y00154
G01X00439857Y00153967
G01X00438434Y00154154
G01X00436974Y00154759
G01X00435721Y00155721
G01X00434759Y00156974
G01X00434154Y00158434
G01X00433948Y0016
G01X00434154Y00161566
G01X00434759Y00163026
G01X00435721Y00164279
G01X00436974Y00165241
G01X00438434Y00165846
G01X00440323Y00166094
G01X0048999Y00166
G01X00492174Y00166497
G01X00493536Y00167464
G01X00503536Y00177464
G01X00504724Y00179362
G01X00505Y00181
G01X00505Y00285
G01X00504498Y00287183
G01X00503536Y00288536
G01X00493536Y00298536
G01X00491638Y00299724
G01X0049Y003
G01X0001Y003
G01X00007817Y00299499
G01X00006464Y00298536
G01X-00003536Y00288536
G01X-00004724Y00286638
G01X-00005Y00285
G01X-00005Y0001
G01X-00004498Y00007817
G01X-00003536Y00006464
G01X00006464Y-00003536
G01X00008362Y-00004724
G01X0001Y-00005
G01X0049Y-00005
G01X00492183Y-00004498
M16
M17
M30
