G04*
G04 #@! TF.GenerationSoftware,Altium Limited,Altium Designer,20.0.10 (225)*
G04*
G04 Layer_Color=65280*
%FSLAX44Y44*%
%MOMM*%
G71*
G01*
G75*
%ADD13C,0.1500*%
%ADD14C,0.1016*%
%ADD15C,0.1270*%
%ADD16C,0.2540*%
%ADD17C,0.0127*%
G04:AMPARAMS|DCode=25|XSize=3.5mm|YSize=2.5mm|CornerRadius=0.3875mm|HoleSize=0mm|Usage=FLASHONLY|Rotation=90.000|XOffset=0mm|YOffset=0mm|HoleType=Round|Shape=RoundedRectangle|*
%AMROUNDEDRECTD25*
21,1,3.5000,1.7250,0,0,90.0*
21,1,2.7250,2.5000,0,0,90.0*
1,1,0.7750,0.8625,1.3625*
1,1,0.7750,0.8625,-1.3625*
1,1,0.7750,-0.8625,-1.3625*
1,1,0.7750,-0.8625,1.3625*
%
%ADD25ROUNDEDRECTD25*%
G04:AMPARAMS|DCode=26|XSize=1.2mm|YSize=0.8mm|CornerRadius=0.175mm|HoleSize=0mm|Usage=FLASHONLY|Rotation=0.000|XOffset=0mm|YOffset=0mm|HoleType=Round|Shape=RoundedRectangle|*
%AMROUNDEDRECTD26*
21,1,1.2000,0.4500,0,0,0.0*
21,1,0.8500,0.8000,0,0,0.0*
1,1,0.3500,0.4250,-0.2250*
1,1,0.3500,-0.4250,-0.2250*
1,1,0.3500,-0.4250,0.2250*
1,1,0.3500,0.4250,0.2250*
%
%ADD26ROUNDEDRECTD26*%
G04:AMPARAMS|DCode=27|XSize=0.94mm|YSize=2.34mm|CornerRadius=0.17mm|HoleSize=0mm|Usage=FLASHONLY|Rotation=180.000|XOffset=0mm|YOffset=0mm|HoleType=Round|Shape=RoundedRectangle|*
%AMROUNDEDRECTD27*
21,1,0.9400,2.0000,0,0,180.0*
21,1,0.6000,2.3400,0,0,180.0*
1,1,0.3400,-0.3000,1.0000*
1,1,0.3400,0.3000,1.0000*
1,1,0.3400,0.3000,-1.0000*
1,1,0.3400,-0.3000,-1.0000*
%
%ADD27ROUNDEDRECTD27*%
G04:AMPARAMS|DCode=28|XSize=3.63mm|YSize=1.85mm|CornerRadius=0.3063mm|HoleSize=0mm|Usage=FLASHONLY|Rotation=270.000|XOffset=0mm|YOffset=0mm|HoleType=Round|Shape=RoundedRectangle|*
%AMROUNDEDRECTD28*
21,1,3.6300,1.2375,0,0,270.0*
21,1,3.0175,1.8500,0,0,270.0*
1,1,0.6125,-0.6188,-1.5088*
1,1,0.6125,-0.6188,1.5088*
1,1,0.6125,0.6188,1.5088*
1,1,0.6125,0.6188,-1.5088*
%
%ADD28ROUNDEDRECTD28*%
G04:AMPARAMS|DCode=29|XSize=1.47mm|YSize=2.74mm|CornerRadius=0.2588mm|HoleSize=0mm|Usage=FLASHONLY|Rotation=270.000|XOffset=0mm|YOffset=0mm|HoleType=Round|Shape=RoundedRectangle|*
%AMROUNDEDRECTD29*
21,1,1.4700,2.2225,0,0,270.0*
21,1,0.9525,2.7400,0,0,270.0*
1,1,0.5175,-1.1113,-0.4763*
1,1,0.5175,-1.1113,0.4763*
1,1,0.5175,1.1113,0.4763*
1,1,0.5175,1.1113,-0.4763*
%
%ADD29ROUNDEDRECTD29*%
G04:AMPARAMS|DCode=30|XSize=3.4mm|YSize=1.8mm|CornerRadius=0.3mm|HoleSize=0mm|Usage=FLASHONLY|Rotation=0.000|XOffset=0mm|YOffset=0mm|HoleType=Round|Shape=RoundedRectangle|*
%AMROUNDEDRECTD30*
21,1,3.4000,1.2000,0,0,0.0*
21,1,2.8000,1.8000,0,0,0.0*
1,1,0.6000,1.4000,-0.6000*
1,1,0.6000,-1.4000,-0.6000*
1,1,0.6000,-1.4000,0.6000*
1,1,0.6000,1.4000,0.6000*
%
%ADD30ROUNDEDRECTD30*%
G04:AMPARAMS|DCode=31|XSize=2mm|YSize=1.34mm|CornerRadius=0.2425mm|HoleSize=0mm|Usage=FLASHONLY|Rotation=180.000|XOffset=0mm|YOffset=0mm|HoleType=Round|Shape=RoundedRectangle|*
%AMROUNDEDRECTD31*
21,1,2.0000,0.8550,0,0,180.0*
21,1,1.5150,1.3400,0,0,180.0*
1,1,0.4850,-0.7575,0.4275*
1,1,0.4850,0.7575,0.4275*
1,1,0.4850,0.7575,-0.4275*
1,1,0.4850,-0.7575,-0.4275*
%
%ADD31ROUNDEDRECTD31*%
%ADD32C,3.0000*%
%ADD33C,1.7000*%
%ADD34C,3.4000*%
%ADD35C,0.9000*%
G36*
X697882Y-1656233D02*
X698109D01*
X698724Y-1656298D01*
X699404Y-1656395D01*
X700117Y-1656557D01*
X700894Y-1656752D01*
X701607Y-1657011D01*
X701639D01*
X701704Y-1657043D01*
X701801Y-1657108D01*
X701930Y-1657173D01*
X702254Y-1657334D01*
X702675Y-1657626D01*
X703161Y-1657950D01*
X703647Y-1658371D01*
X704100Y-1658857D01*
X704521Y-1659407D01*
Y-1659440D01*
X704554Y-1659472D01*
X704618Y-1659569D01*
X704683Y-1659666D01*
X704845Y-1659990D01*
X705039Y-1660411D01*
X705266Y-1660929D01*
X705428Y-1661544D01*
X705590Y-1662192D01*
X705655Y-1662905D01*
X702805Y-1663131D01*
Y-1663099D01*
Y-1663034D01*
X702772Y-1662937D01*
X702740Y-1662775D01*
X702643Y-1662419D01*
X702513Y-1661933D01*
X702319Y-1661415D01*
X702028Y-1660897D01*
X701671Y-1660411D01*
X701218Y-1659958D01*
X701153Y-1659925D01*
X700991Y-1659796D01*
X700667Y-1659601D01*
X700246Y-1659407D01*
X699696Y-1659213D01*
X699048Y-1659018D01*
X698239Y-1658889D01*
X697332Y-1658857D01*
X696878D01*
X696684Y-1658889D01*
X696425Y-1658921D01*
X695842Y-1658986D01*
X695194Y-1659116D01*
X694547Y-1659277D01*
X693931Y-1659537D01*
X693672Y-1659698D01*
X693413Y-1659861D01*
X693348Y-1659893D01*
X693219Y-1660022D01*
X693025Y-1660249D01*
X692830Y-1660508D01*
X692604Y-1660864D01*
X692409Y-1661253D01*
X692280Y-1661706D01*
X692215Y-1662225D01*
Y-1662289D01*
Y-1662419D01*
X692247Y-1662646D01*
X692312Y-1662905D01*
X692409Y-1663228D01*
X692571Y-1663552D01*
X692766Y-1663876D01*
X693057Y-1664200D01*
X693089Y-1664232D01*
X693251Y-1664330D01*
X693381Y-1664427D01*
X693510Y-1664491D01*
X693705Y-1664589D01*
X693931Y-1664718D01*
X694223Y-1664815D01*
X694547Y-1664945D01*
X694903Y-1665074D01*
X695324Y-1665236D01*
X695777Y-1665366D01*
X696295Y-1665528D01*
X696878Y-1665657D01*
X697526Y-1665819D01*
X697558D01*
X697688Y-1665852D01*
X697882Y-1665884D01*
X698109Y-1665949D01*
X698400Y-1666014D01*
X698757Y-1666111D01*
X699113Y-1666208D01*
X699501Y-1666305D01*
X700344Y-1666532D01*
X701153Y-1666759D01*
X701542Y-1666888D01*
X701898Y-1667018D01*
X702222Y-1667115D01*
X702481Y-1667244D01*
X702513D01*
X702578Y-1667277D01*
X702675Y-1667341D01*
X702805Y-1667406D01*
X703161Y-1667601D01*
X703582Y-1667860D01*
X704068Y-1668216D01*
X704554Y-1668604D01*
X705007Y-1669058D01*
X705396Y-1669544D01*
X705428Y-1669608D01*
X705557Y-1669770D01*
X705687Y-1670062D01*
X705881Y-1670450D01*
X706043Y-1670904D01*
X706205Y-1671454D01*
X706302Y-1672070D01*
X706335Y-1672717D01*
Y-1672750D01*
Y-1672782D01*
Y-1672879D01*
Y-1673009D01*
X706270Y-1673365D01*
X706205Y-1673818D01*
X706076Y-1674337D01*
X705914Y-1674887D01*
X705655Y-1675470D01*
X705298Y-1676085D01*
Y-1676118D01*
X705266Y-1676150D01*
X705104Y-1676344D01*
X704877Y-1676636D01*
X704554Y-1676960D01*
X704133Y-1677348D01*
X703614Y-1677769D01*
X703031Y-1678158D01*
X702351Y-1678514D01*
X702319D01*
X702254Y-1678547D01*
X702157Y-1678579D01*
X702028Y-1678644D01*
X701833Y-1678708D01*
X701607Y-1678806D01*
X701088Y-1678935D01*
X700473Y-1679097D01*
X699728Y-1679259D01*
X698919Y-1679356D01*
X698044Y-1679389D01*
X697526D01*
X697267Y-1679356D01*
X696975D01*
X696652Y-1679324D01*
X696263Y-1679292D01*
X695453Y-1679162D01*
X694611Y-1679032D01*
X693769Y-1678806D01*
X692960Y-1678514D01*
X692927D01*
X692863Y-1678482D01*
X692766Y-1678417D01*
X692636Y-1678352D01*
X692247Y-1678158D01*
X691794Y-1677867D01*
X691276Y-1677478D01*
X690725Y-1677025D01*
X690207Y-1676474D01*
X689721Y-1675859D01*
Y-1675826D01*
X689657Y-1675762D01*
X689624Y-1675664D01*
X689527Y-1675535D01*
X689462Y-1675373D01*
X689365Y-1675179D01*
X689138Y-1674693D01*
X688912Y-1674077D01*
X688717Y-1673397D01*
X688588Y-1672620D01*
X688523Y-1671810D01*
X691308Y-1671551D01*
Y-1671584D01*
Y-1671616D01*
X691340Y-1671713D01*
Y-1671843D01*
X691405Y-1672134D01*
X691503Y-1672555D01*
X691632Y-1672976D01*
X691761Y-1673462D01*
X691988Y-1673916D01*
X692215Y-1674337D01*
X692247Y-1674369D01*
X692345Y-1674498D01*
X692506Y-1674725D01*
X692766Y-1674952D01*
X693089Y-1675243D01*
X693446Y-1675535D01*
X693931Y-1675826D01*
X694449Y-1676085D01*
X694482D01*
X694514Y-1676118D01*
X694611Y-1676150D01*
X694709Y-1676183D01*
X695032Y-1676280D01*
X695453Y-1676409D01*
X695972Y-1676539D01*
X696554Y-1676636D01*
X697202Y-1676701D01*
X697915Y-1676733D01*
X698206D01*
X698530Y-1676701D01*
X698919Y-1676668D01*
X699372Y-1676604D01*
X699890Y-1676539D01*
X700408Y-1676409D01*
X700894Y-1676247D01*
X700959Y-1676215D01*
X701121Y-1676150D01*
X701348Y-1676021D01*
X701639Y-1675891D01*
X701930Y-1675664D01*
X702254Y-1675438D01*
X702578Y-1675179D01*
X702837Y-1674855D01*
X702870Y-1674822D01*
X702934Y-1674693D01*
X703031Y-1674531D01*
X703161Y-1674272D01*
X703291Y-1674013D01*
X703388Y-1673689D01*
X703453Y-1673333D01*
X703485Y-1672944D01*
Y-1672912D01*
Y-1672750D01*
X703453Y-1672555D01*
X703420Y-1672296D01*
X703323Y-1672037D01*
X703226Y-1671713D01*
X703064Y-1671389D01*
X702837Y-1671098D01*
X702805Y-1671066D01*
X702708Y-1670968D01*
X702578Y-1670839D01*
X702351Y-1670645D01*
X702092Y-1670450D01*
X701736Y-1670224D01*
X701315Y-1669997D01*
X700829Y-1669803D01*
X700797Y-1669770D01*
X700635Y-1669738D01*
X700376Y-1669641D01*
X700214Y-1669608D01*
X699987Y-1669544D01*
X699761Y-1669446D01*
X699469Y-1669382D01*
X699145Y-1669285D01*
X698757Y-1669187D01*
X698368Y-1669090D01*
X697915Y-1668961D01*
X697396Y-1668831D01*
X696846Y-1668702D01*
X696814D01*
X696716Y-1668669D01*
X696554Y-1668637D01*
X696360Y-1668572D01*
X696101Y-1668507D01*
X695810Y-1668443D01*
X695162Y-1668248D01*
X694449Y-1668022D01*
X693705Y-1667795D01*
X693057Y-1667568D01*
X692766Y-1667439D01*
X692506Y-1667309D01*
X692474D01*
X692442Y-1667277D01*
X692247Y-1667147D01*
X691956Y-1666985D01*
X691632Y-1666726D01*
X691243Y-1666435D01*
X690855Y-1666078D01*
X690466Y-1665657D01*
X690142Y-1665204D01*
X690110Y-1665139D01*
X690013Y-1664977D01*
X689883Y-1664718D01*
X689754Y-1664394D01*
X689624Y-1663973D01*
X689495Y-1663488D01*
X689397Y-1662969D01*
X689365Y-1662419D01*
Y-1662386D01*
Y-1662354D01*
Y-1662257D01*
Y-1662127D01*
X689430Y-1661804D01*
X689495Y-1661383D01*
X689592Y-1660897D01*
X689754Y-1660346D01*
X689980Y-1659796D01*
X690304Y-1659245D01*
Y-1659213D01*
X690337Y-1659180D01*
X690499Y-1658986D01*
X690725Y-1658727D01*
X691017Y-1658403D01*
X691405Y-1658047D01*
X691891Y-1657658D01*
X692474Y-1657302D01*
X693122Y-1656978D01*
X693154D01*
X693219Y-1656946D01*
X693316Y-1656913D01*
X693446Y-1656849D01*
X693607Y-1656784D01*
X693834Y-1656719D01*
X694320Y-1656590D01*
X694935Y-1656460D01*
X695648Y-1656331D01*
X696393Y-1656233D01*
X697235Y-1656201D01*
X697656D01*
X697882Y-1656233D01*
D02*
G37*
G36*
X806372Y-1656622D02*
X806664D01*
X807344Y-1656654D01*
X808056Y-1656752D01*
X808833Y-1656849D01*
X809546Y-1657011D01*
X809902Y-1657108D01*
X810193Y-1657205D01*
X810226D01*
X810258Y-1657237D01*
X810453Y-1657334D01*
X810744Y-1657464D01*
X811100Y-1657691D01*
X811489Y-1657982D01*
X811910Y-1658371D01*
X812299Y-1658824D01*
X812687Y-1659342D01*
Y-1659375D01*
X812719Y-1659407D01*
X812849Y-1659601D01*
X812979Y-1659925D01*
X813173Y-1660346D01*
X813335Y-1660832D01*
X813497Y-1661415D01*
X813594Y-1662030D01*
X813626Y-1662710D01*
Y-1662743D01*
Y-1662807D01*
Y-1662937D01*
X813594Y-1663099D01*
Y-1663326D01*
X813561Y-1663552D01*
X813432Y-1664103D01*
X813238Y-1664751D01*
X812979Y-1665431D01*
X812590Y-1666111D01*
X812331Y-1666435D01*
X812072Y-1666759D01*
X812039Y-1666791D01*
X812007Y-1666823D01*
X811910Y-1666920D01*
X811780Y-1667018D01*
X811618Y-1667147D01*
X811424Y-1667277D01*
X811165Y-1667439D01*
X810906Y-1667633D01*
X810582Y-1667795D01*
X810226Y-1667957D01*
X809837Y-1668151D01*
X809416Y-1668313D01*
X808931Y-1668443D01*
X808445Y-1668604D01*
X807894Y-1668702D01*
X807311Y-1668799D01*
X807376Y-1668831D01*
X807505Y-1668896D01*
X807700Y-1669025D01*
X807959Y-1669155D01*
X808542Y-1669511D01*
X808833Y-1669738D01*
X809092Y-1669932D01*
X809157Y-1669997D01*
X809319Y-1670159D01*
X809578Y-1670418D01*
X809902Y-1670742D01*
X810258Y-1671195D01*
X810679Y-1671681D01*
X811100Y-1672264D01*
X811554Y-1672912D01*
X815407Y-1679000D01*
X811716D01*
X808768Y-1674337D01*
Y-1674304D01*
X808704Y-1674239D01*
X808639Y-1674142D01*
X808542Y-1674013D01*
X808315Y-1673656D01*
X808024Y-1673203D01*
X807667Y-1672717D01*
X807311Y-1672199D01*
X806955Y-1671713D01*
X806631Y-1671260D01*
X806599Y-1671228D01*
X806502Y-1671098D01*
X806340Y-1670904D01*
X806113Y-1670677D01*
X805627Y-1670191D01*
X805368Y-1669965D01*
X805109Y-1669770D01*
X805077Y-1669738D01*
X805012Y-1669706D01*
X804882Y-1669641D01*
X804688Y-1669544D01*
X804494Y-1669446D01*
X804267Y-1669349D01*
X803749Y-1669187D01*
X803717D01*
X803652Y-1669155D01*
X803522D01*
X803360Y-1669123D01*
X803133Y-1669090D01*
X802875D01*
X802518Y-1669058D01*
X798697D01*
Y-1679000D01*
X795717D01*
Y-1656590D01*
X806113D01*
X806372Y-1656622D01*
D02*
G37*
G36*
X791054Y-1659245D02*
X777809D01*
Y-1666078D01*
X790212D01*
Y-1668734D01*
X777809D01*
Y-1676344D01*
X791572D01*
Y-1679000D01*
X774829D01*
Y-1656590D01*
X791054D01*
Y-1659245D01*
D02*
G37*
G36*
X761389Y-1656622D02*
X762037Y-1656654D01*
X762685Y-1656719D01*
X763332Y-1656816D01*
X763883Y-1656913D01*
X763915D01*
X763980Y-1656946D01*
X764077D01*
X764207Y-1657011D01*
X764563Y-1657108D01*
X765016Y-1657270D01*
X765535Y-1657496D01*
X766085Y-1657788D01*
X766636Y-1658112D01*
X767154Y-1658533D01*
X767186Y-1658565D01*
X767219Y-1658597D01*
X767316Y-1658695D01*
X767445Y-1658792D01*
X767769Y-1659116D01*
X768158Y-1659569D01*
X768579Y-1660119D01*
X769032Y-1660767D01*
X769453Y-1661512D01*
X769809Y-1662354D01*
Y-1662386D01*
X769842Y-1662451D01*
X769906Y-1662581D01*
X769939Y-1662775D01*
X770036Y-1663002D01*
X770101Y-1663261D01*
X770166Y-1663552D01*
X770263Y-1663909D01*
X770360Y-1664265D01*
X770425Y-1664686D01*
X770587Y-1665593D01*
X770684Y-1666597D01*
X770716Y-1667698D01*
Y-1667730D01*
Y-1667795D01*
Y-1667957D01*
Y-1668119D01*
X770684Y-1668345D01*
Y-1668604D01*
X770651Y-1669220D01*
X770554Y-1669932D01*
X770457Y-1670677D01*
X770295Y-1671454D01*
X770101Y-1672231D01*
Y-1672264D01*
X770069Y-1672329D01*
X770036Y-1672426D01*
X770004Y-1672555D01*
X769874Y-1672912D01*
X769680Y-1673365D01*
X769485Y-1673883D01*
X769227Y-1674401D01*
X768903Y-1674952D01*
X768579Y-1675470D01*
X768546Y-1675535D01*
X768417Y-1675697D01*
X768223Y-1675923D01*
X767963Y-1676215D01*
X767672Y-1676539D01*
X767316Y-1676863D01*
X766960Y-1677219D01*
X766538Y-1677510D01*
X766474Y-1677543D01*
X766344Y-1677640D01*
X766117Y-1677769D01*
X765794Y-1677931D01*
X765405Y-1678126D01*
X764952Y-1678288D01*
X764434Y-1678482D01*
X763850Y-1678644D01*
X763786D01*
X763689Y-1678676D01*
X763592Y-1678708D01*
X763268Y-1678741D01*
X762814Y-1678806D01*
X762296Y-1678871D01*
X761681Y-1678935D01*
X761001Y-1678968D01*
X760256Y-1679000D01*
X752192D01*
Y-1656590D01*
X760806D01*
X761389Y-1656622D01*
D02*
G37*
G36*
X737619Y-1676344D02*
X748662D01*
Y-1679000D01*
X734639D01*
Y-1656590D01*
X737619D01*
Y-1676344D01*
D02*
G37*
G36*
X669610Y-1656622D02*
X670161Y-1656654D01*
X670744Y-1656687D01*
X671294Y-1656752D01*
X671780Y-1656816D01*
X671845D01*
X672072Y-1656881D01*
X672363Y-1656946D01*
X672751Y-1657043D01*
X673173Y-1657205D01*
X673626Y-1657399D01*
X674112Y-1657626D01*
X674533Y-1657885D01*
X674597Y-1657917D01*
X674727Y-1658015D01*
X674921Y-1658209D01*
X675180Y-1658436D01*
X675472Y-1658727D01*
X675763Y-1659116D01*
X676087Y-1659537D01*
X676346Y-1660022D01*
X676379Y-1660087D01*
X676443Y-1660249D01*
X676573Y-1660540D01*
X676702Y-1660929D01*
X676800Y-1661383D01*
X676929Y-1661901D01*
X676994Y-1662484D01*
X677026Y-1663099D01*
Y-1663131D01*
Y-1663228D01*
Y-1663358D01*
X676994Y-1663585D01*
X676962Y-1663811D01*
X676929Y-1664103D01*
X676864Y-1664427D01*
X676800Y-1664783D01*
X676573Y-1665528D01*
X676443Y-1665916D01*
X676249Y-1666337D01*
X676022Y-1666759D01*
X675796Y-1667147D01*
X675504Y-1667536D01*
X675180Y-1667924D01*
X675148Y-1667957D01*
X675083Y-1668022D01*
X674986Y-1668119D01*
X674824Y-1668216D01*
X674630Y-1668378D01*
X674371Y-1668540D01*
X674047Y-1668734D01*
X673691Y-1668896D01*
X673270Y-1669090D01*
X672784Y-1669285D01*
X672266Y-1669446D01*
X671650Y-1669576D01*
X671003Y-1669706D01*
X670290Y-1669803D01*
X669481Y-1669867D01*
X668639Y-1669900D01*
X662906D01*
Y-1679000D01*
X659927D01*
Y-1656590D01*
X669124D01*
X669610Y-1656622D01*
D02*
G37*
G36*
X632497Y-1659245D02*
X625113D01*
Y-1679000D01*
X622134D01*
Y-1659245D01*
X614750D01*
Y-1656590D01*
X632497D01*
Y-1659245D01*
D02*
G37*
G36*
X720746Y-1656233D02*
X721038D01*
X721329Y-1656266D01*
X721718Y-1656331D01*
X722106Y-1656395D01*
X722948Y-1656557D01*
X723920Y-1656816D01*
X724859Y-1657205D01*
X725345Y-1657432D01*
X725831Y-1657691D01*
X725863Y-1657723D01*
X725928Y-1657755D01*
X726057Y-1657853D01*
X726252Y-1657950D01*
X726446Y-1658112D01*
X726705Y-1658306D01*
X727255Y-1658759D01*
X727838Y-1659342D01*
X728486Y-1660055D01*
X729101Y-1660897D01*
X729620Y-1661836D01*
Y-1661868D01*
X729684Y-1661965D01*
X729749Y-1662095D01*
X729814Y-1662289D01*
X729943Y-1662548D01*
X730041Y-1662840D01*
X730170Y-1663196D01*
X730300Y-1663585D01*
X730397Y-1664006D01*
X730526Y-1664459D01*
X730656Y-1664977D01*
X730753Y-1665495D01*
X730883Y-1666629D01*
X730947Y-1667860D01*
Y-1667892D01*
Y-1668022D01*
Y-1668183D01*
X730915Y-1668443D01*
Y-1668734D01*
X730883Y-1669090D01*
X730818Y-1669479D01*
X730786Y-1669900D01*
X730623Y-1670839D01*
X730365Y-1671875D01*
X730008Y-1672912D01*
X729814Y-1673430D01*
X729555Y-1673948D01*
Y-1673980D01*
X729490Y-1674077D01*
X729425Y-1674207D01*
X729296Y-1674401D01*
X729166Y-1674628D01*
X729004Y-1674855D01*
X728551Y-1675470D01*
X728000Y-1676118D01*
X727353Y-1676798D01*
X726575Y-1677446D01*
X725669Y-1678028D01*
X725636D01*
X725572Y-1678093D01*
X725409Y-1678158D01*
X725215Y-1678255D01*
X724988Y-1678352D01*
X724730Y-1678449D01*
X724406Y-1678579D01*
X724049Y-1678708D01*
X723661Y-1678838D01*
X723240Y-1678968D01*
X722301Y-1679162D01*
X721297Y-1679324D01*
X720228Y-1679389D01*
X719904D01*
X719710Y-1679356D01*
X719418D01*
X719094Y-1679292D01*
X718738Y-1679259D01*
X718317Y-1679194D01*
X717443Y-1679000D01*
X716504Y-1678741D01*
X715532Y-1678352D01*
X715046Y-1678126D01*
X714561Y-1677867D01*
X714528Y-1677834D01*
X714463Y-1677802D01*
X714334Y-1677705D01*
X714140Y-1677575D01*
X713945Y-1677446D01*
X713719Y-1677251D01*
X713168Y-1676765D01*
X712553Y-1676183D01*
X711905Y-1675470D01*
X711322Y-1674660D01*
X710771Y-1673721D01*
Y-1673689D01*
X710707Y-1673592D01*
X710642Y-1673462D01*
X710577Y-1673268D01*
X710480Y-1673009D01*
X710383Y-1672717D01*
X710253Y-1672393D01*
X710156Y-1672037D01*
X710027Y-1671616D01*
X709897Y-1671195D01*
X709703Y-1670224D01*
X709573Y-1669220D01*
X709509Y-1668119D01*
Y-1668086D01*
Y-1668054D01*
Y-1667860D01*
X709541Y-1667568D01*
Y-1667180D01*
X709606Y-1666726D01*
X709670Y-1666176D01*
X709768Y-1665560D01*
X709897Y-1664913D01*
X710027Y-1664232D01*
X710221Y-1663520D01*
X710480Y-1662807D01*
X710771Y-1662063D01*
X711095Y-1661350D01*
X711516Y-1660638D01*
X711970Y-1659990D01*
X712488Y-1659375D01*
X712520Y-1659342D01*
X712617Y-1659245D01*
X712812Y-1659083D01*
X713038Y-1658889D01*
X713330Y-1658630D01*
X713686Y-1658371D01*
X714107Y-1658079D01*
X714593Y-1657788D01*
X715111Y-1657496D01*
X715694Y-1657205D01*
X716342Y-1656946D01*
X717022Y-1656687D01*
X717767Y-1656492D01*
X718544Y-1656331D01*
X719354Y-1656233D01*
X720228Y-1656201D01*
X720519D01*
X720746Y-1656233D01*
D02*
G37*
G36*
X645904D02*
X646196D01*
X646487Y-1656266D01*
X646876Y-1656331D01*
X647264Y-1656395D01*
X648107Y-1656557D01*
X649078Y-1656816D01*
X650017Y-1657205D01*
X650503Y-1657432D01*
X650989Y-1657691D01*
X651021Y-1657723D01*
X651086Y-1657755D01*
X651216Y-1657853D01*
X651410Y-1657950D01*
X651604Y-1658112D01*
X651863Y-1658306D01*
X652414Y-1658759D01*
X652997Y-1659342D01*
X653644Y-1660055D01*
X654260Y-1660897D01*
X654778Y-1661836D01*
Y-1661868D01*
X654843Y-1661965D01*
X654907Y-1662095D01*
X654972Y-1662289D01*
X655102Y-1662548D01*
X655199Y-1662840D01*
X655328Y-1663196D01*
X655458Y-1663585D01*
X655555Y-1664006D01*
X655685Y-1664459D01*
X655814Y-1664977D01*
X655911Y-1665495D01*
X656041Y-1666629D01*
X656106Y-1667860D01*
Y-1667892D01*
Y-1668022D01*
Y-1668183D01*
X656073Y-1668443D01*
Y-1668734D01*
X656041Y-1669090D01*
X655976Y-1669479D01*
X655944Y-1669900D01*
X655782Y-1670839D01*
X655523Y-1671875D01*
X655166Y-1672912D01*
X654972Y-1673430D01*
X654713Y-1673948D01*
Y-1673980D01*
X654648Y-1674077D01*
X654584Y-1674207D01*
X654454Y-1674401D01*
X654324Y-1674628D01*
X654163Y-1674855D01*
X653709Y-1675470D01*
X653159Y-1676118D01*
X652511Y-1676798D01*
X651734Y-1677446D01*
X650827Y-1678028D01*
X650795D01*
X650730Y-1678093D01*
X650568Y-1678158D01*
X650374Y-1678255D01*
X650147Y-1678352D01*
X649888Y-1678449D01*
X649564Y-1678579D01*
X649208Y-1678708D01*
X648819Y-1678838D01*
X648398Y-1678968D01*
X647459Y-1679162D01*
X646455Y-1679324D01*
X645386Y-1679389D01*
X645062D01*
X644868Y-1679356D01*
X644577D01*
X644253Y-1679292D01*
X643896Y-1679259D01*
X643475Y-1679194D01*
X642601Y-1679000D01*
X641662Y-1678741D01*
X640690Y-1678352D01*
X640205Y-1678126D01*
X639719Y-1677867D01*
X639687Y-1677834D01*
X639622Y-1677802D01*
X639492Y-1677705D01*
X639298Y-1677575D01*
X639104Y-1677446D01*
X638877Y-1677251D01*
X638326Y-1676765D01*
X637711Y-1676183D01*
X637063Y-1675470D01*
X636480Y-1674660D01*
X635930Y-1673721D01*
Y-1673689D01*
X635865Y-1673592D01*
X635800Y-1673462D01*
X635736Y-1673268D01*
X635638Y-1673009D01*
X635541Y-1672717D01*
X635412Y-1672393D01*
X635314Y-1672037D01*
X635185Y-1671616D01*
X635055Y-1671195D01*
X634861Y-1670224D01*
X634731Y-1669220D01*
X634667Y-1668119D01*
Y-1668086D01*
Y-1668054D01*
Y-1667860D01*
X634699Y-1667568D01*
Y-1667180D01*
X634764Y-1666726D01*
X634829Y-1666176D01*
X634926Y-1665560D01*
X635055Y-1664913D01*
X635185Y-1664232D01*
X635379Y-1663520D01*
X635638Y-1662807D01*
X635930Y-1662063D01*
X636254Y-1661350D01*
X636675Y-1660638D01*
X637128Y-1659990D01*
X637646Y-1659375D01*
X637679Y-1659342D01*
X637776Y-1659245D01*
X637970Y-1659083D01*
X638197Y-1658889D01*
X638488Y-1658630D01*
X638844Y-1658371D01*
X639265Y-1658079D01*
X639751Y-1657788D01*
X640269Y-1657496D01*
X640852Y-1657205D01*
X641500Y-1656946D01*
X642180Y-1656687D01*
X642925Y-1656492D01*
X643702Y-1656331D01*
X644512Y-1656233D01*
X645386Y-1656201D01*
X645678D01*
X645904Y-1656233D01*
D02*
G37*
G36*
X735103Y-1737966D02*
X735437Y-1738003D01*
X735844Y-1738040D01*
X736251Y-1738077D01*
X736733Y-1738188D01*
X737733Y-1738410D01*
X738844Y-1738743D01*
X739399Y-1738966D01*
X739918Y-1739225D01*
X740436Y-1739558D01*
X740955Y-1739891D01*
X740992Y-1739928D01*
X741066Y-1739966D01*
X741214Y-1740077D01*
X741399Y-1740262D01*
X741584Y-1740447D01*
X741843Y-1740706D01*
X742103Y-1741002D01*
X742399Y-1741299D01*
X742695Y-1741669D01*
X742991Y-1742113D01*
X743325Y-1742558D01*
X743621Y-1743039D01*
X743880Y-1743595D01*
X744176Y-1744150D01*
X744399Y-1744743D01*
X744621Y-1745409D01*
X741288Y-1746187D01*
Y-1746150D01*
X741251Y-1746076D01*
X741177Y-1745928D01*
X741103Y-1745743D01*
X741029Y-1745520D01*
X740918Y-1745224D01*
X740621Y-1744632D01*
X740251Y-1743965D01*
X739807Y-1743298D01*
X739251Y-1742669D01*
X738659Y-1742113D01*
X738585Y-1742039D01*
X738362Y-1741891D01*
X737992Y-1741706D01*
X737511Y-1741447D01*
X736881Y-1741225D01*
X736177Y-1741002D01*
X735325Y-1740854D01*
X734400Y-1740817D01*
X734103D01*
X733918Y-1740854D01*
X733659D01*
X733363Y-1740891D01*
X732659Y-1741002D01*
X731881Y-1741151D01*
X731067Y-1741410D01*
X730215Y-1741780D01*
X729437Y-1742262D01*
X729400D01*
X729363Y-1742336D01*
X729104Y-1742521D01*
X728771Y-1742817D01*
X728363Y-1743261D01*
X727882Y-1743817D01*
X727438Y-1744447D01*
X727030Y-1745224D01*
X726660Y-1746076D01*
Y-1746113D01*
X726623Y-1746187D01*
X726586Y-1746298D01*
X726549Y-1746483D01*
X726475Y-1746705D01*
X726401Y-1746965D01*
X726289Y-1747594D01*
X726141Y-1748335D01*
X725993Y-1749150D01*
X725919Y-1750038D01*
X725882Y-1751001D01*
Y-1751038D01*
Y-1751149D01*
Y-1751335D01*
Y-1751557D01*
X725919Y-1751816D01*
Y-1752149D01*
X725956Y-1752520D01*
X725993Y-1752927D01*
X726104Y-1753816D01*
X726289Y-1754779D01*
X726512Y-1755742D01*
X726808Y-1756705D01*
Y-1756741D01*
X726845Y-1756816D01*
X726919Y-1756927D01*
X726993Y-1757112D01*
X727215Y-1757556D01*
X727549Y-1758075D01*
X727956Y-1758667D01*
X728474Y-1759297D01*
X729067Y-1759852D01*
X729771Y-1760371D01*
X729808D01*
X729882Y-1760408D01*
X729993Y-1760482D01*
X730141Y-1760556D01*
X730326Y-1760630D01*
X730548Y-1760741D01*
X731067Y-1760963D01*
X731733Y-1761185D01*
X732474Y-1761371D01*
X733289Y-1761519D01*
X734140Y-1761556D01*
X734400D01*
X734622Y-1761519D01*
X734881D01*
X735140Y-1761482D01*
X735807Y-1761334D01*
X736585Y-1761148D01*
X737362Y-1760852D01*
X738177Y-1760445D01*
X738585Y-1760223D01*
X738955Y-1759926D01*
X738992Y-1759889D01*
X739029Y-1759852D01*
X739140Y-1759741D01*
X739288Y-1759630D01*
X739436Y-1759445D01*
X739621Y-1759223D01*
X739844Y-1759001D01*
X740029Y-1758704D01*
X740251Y-1758371D01*
X740510Y-1758001D01*
X740732Y-1757630D01*
X740955Y-1757186D01*
X741140Y-1756705D01*
X741325Y-1756186D01*
X741510Y-1755630D01*
X741658Y-1755038D01*
X745065Y-1755890D01*
Y-1755927D01*
X745028Y-1756075D01*
X744954Y-1756297D01*
X744843Y-1756593D01*
X744732Y-1756927D01*
X744584Y-1757334D01*
X744399Y-1757778D01*
X744176Y-1758260D01*
X743658Y-1759297D01*
X742991Y-1760334D01*
X742584Y-1760852D01*
X742177Y-1761371D01*
X741732Y-1761815D01*
X741214Y-1762259D01*
X741177Y-1762296D01*
X741103Y-1762370D01*
X740918Y-1762445D01*
X740732Y-1762593D01*
X740436Y-1762778D01*
X740140Y-1762963D01*
X739733Y-1763148D01*
X739325Y-1763333D01*
X738844Y-1763556D01*
X738325Y-1763741D01*
X737770Y-1763926D01*
X737177Y-1764111D01*
X736548Y-1764259D01*
X735881Y-1764333D01*
X735177Y-1764407D01*
X734437Y-1764444D01*
X734029D01*
X733733Y-1764407D01*
X733400D01*
X732992Y-1764370D01*
X732548Y-1764296D01*
X732030Y-1764222D01*
X730956Y-1764037D01*
X729845Y-1763741D01*
X728734Y-1763333D01*
X728215Y-1763074D01*
X727697Y-1762778D01*
X727660Y-1762741D01*
X727586Y-1762704D01*
X727438Y-1762593D01*
X727289Y-1762445D01*
X727067Y-1762296D01*
X726808Y-1762074D01*
X726512Y-1761815D01*
X726215Y-1761519D01*
X725919Y-1761185D01*
X725586Y-1760852D01*
X724919Y-1760000D01*
X724290Y-1759001D01*
X723734Y-1757890D01*
Y-1757852D01*
X723660Y-1757741D01*
X723623Y-1757556D01*
X723512Y-1757334D01*
X723438Y-1757038D01*
X723327Y-1756667D01*
X723179Y-1756260D01*
X723067Y-1755816D01*
X722956Y-1755334D01*
X722808Y-1754779D01*
X722623Y-1753631D01*
X722475Y-1752334D01*
X722401Y-1751001D01*
Y-1750964D01*
Y-1750816D01*
Y-1750594D01*
X722438Y-1750335D01*
Y-1749964D01*
X722475Y-1749594D01*
X722512Y-1749113D01*
X722586Y-1748631D01*
X722771Y-1747557D01*
X723030Y-1746372D01*
X723401Y-1745187D01*
X723919Y-1744039D01*
X723956Y-1744002D01*
X723993Y-1743891D01*
X724067Y-1743743D01*
X724216Y-1743558D01*
X724364Y-1743298D01*
X724549Y-1743002D01*
X725030Y-1742336D01*
X725660Y-1741595D01*
X726401Y-1740854D01*
X727252Y-1740114D01*
X728252Y-1739484D01*
X728289Y-1739447D01*
X728400Y-1739410D01*
X728549Y-1739336D01*
X728734Y-1739225D01*
X729030Y-1739114D01*
X729326Y-1739003D01*
X729697Y-1738855D01*
X730104Y-1738706D01*
X730548Y-1738558D01*
X731030Y-1738410D01*
X732067Y-1738188D01*
X733252Y-1738003D01*
X734474Y-1737929D01*
X734844D01*
X735103Y-1737966D01*
D02*
G37*
G36*
X600303Y-1764000D02*
X596784D01*
X583378Y-1743891D01*
Y-1764000D01*
X580119D01*
Y-1738373D01*
X583601D01*
X597044Y-1758519D01*
Y-1738373D01*
X600303D01*
Y-1764000D01*
D02*
G37*
G36*
X807429D02*
X804170D01*
Y-1742558D01*
X796690Y-1764000D01*
X793653D01*
X786246Y-1742187D01*
Y-1764000D01*
X782987D01*
Y-1738373D01*
X788061D01*
X794134Y-1756556D01*
Y-1756593D01*
X794171Y-1756667D01*
X794208Y-1756779D01*
X794282Y-1756964D01*
X794430Y-1757408D01*
X794616Y-1757964D01*
X794801Y-1758593D01*
X795023Y-1759223D01*
X795208Y-1759815D01*
X795356Y-1760334D01*
X795393Y-1760260D01*
X795430Y-1760074D01*
X795542Y-1759741D01*
X795690Y-1759297D01*
X795875Y-1758704D01*
X796134Y-1758001D01*
X796393Y-1757186D01*
X796727Y-1756223D01*
X802874Y-1738373D01*
X807429D01*
Y-1764000D01*
D02*
G37*
G36*
X906752Y-1753186D02*
Y-1753223D01*
Y-1753371D01*
Y-1753557D01*
Y-1753816D01*
X906715Y-1754149D01*
Y-1754520D01*
X906678Y-1754964D01*
X906641Y-1755408D01*
X906530Y-1756408D01*
X906382Y-1757445D01*
X906160Y-1758445D01*
X906012Y-1758927D01*
X905863Y-1759371D01*
Y-1759408D01*
X905826Y-1759482D01*
X905752Y-1759593D01*
X905678Y-1759741D01*
X905456Y-1760148D01*
X905123Y-1760667D01*
X904678Y-1761259D01*
X904160Y-1761852D01*
X903493Y-1762482D01*
X902679Y-1763037D01*
X902642D01*
X902568Y-1763111D01*
X902456Y-1763148D01*
X902271Y-1763259D01*
X902049Y-1763370D01*
X901753Y-1763481D01*
X901457Y-1763593D01*
X901086Y-1763741D01*
X900679Y-1763889D01*
X900234Y-1764000D01*
X899753Y-1764111D01*
X899197Y-1764222D01*
X898642Y-1764296D01*
X898049Y-1764370D01*
X896716Y-1764444D01*
X896383D01*
X896124Y-1764407D01*
X895827D01*
X895457Y-1764370D01*
X895050Y-1764333D01*
X894642Y-1764296D01*
X893717Y-1764148D01*
X892717Y-1763926D01*
X891754Y-1763630D01*
X890828Y-1763222D01*
X890791D01*
X890717Y-1763148D01*
X890606Y-1763074D01*
X890458Y-1763000D01*
X890050Y-1762704D01*
X889569Y-1762296D01*
X889013Y-1761778D01*
X888495Y-1761185D01*
X887976Y-1760445D01*
X887569Y-1759630D01*
Y-1759593D01*
X887532Y-1759519D01*
X887495Y-1759371D01*
X887421Y-1759186D01*
X887347Y-1758963D01*
X887273Y-1758667D01*
X887162Y-1758334D01*
X887088Y-1757927D01*
X887013Y-1757482D01*
X886902Y-1757001D01*
X886828Y-1756482D01*
X886754Y-1755927D01*
X886680Y-1755297D01*
X886643Y-1754631D01*
X886606Y-1753927D01*
Y-1753186D01*
Y-1738373D01*
X890013D01*
Y-1753186D01*
Y-1753223D01*
Y-1753334D01*
Y-1753520D01*
Y-1753742D01*
X890050Y-1754001D01*
Y-1754334D01*
X890087Y-1755038D01*
X890161Y-1755853D01*
X890272Y-1756667D01*
X890421Y-1757445D01*
X890495Y-1757778D01*
X890606Y-1758112D01*
X890643Y-1758186D01*
X890717Y-1758371D01*
X890902Y-1758630D01*
X891124Y-1759001D01*
X891383Y-1759371D01*
X891754Y-1759778D01*
X892198Y-1760186D01*
X892717Y-1760519D01*
X892791Y-1760556D01*
X892976Y-1760667D01*
X893309Y-1760778D01*
X893754Y-1760926D01*
X894272Y-1761111D01*
X894939Y-1761223D01*
X895642Y-1761334D01*
X896420Y-1761371D01*
X896790D01*
X897012Y-1761334D01*
X897346D01*
X897679Y-1761297D01*
X898494Y-1761148D01*
X899383Y-1760963D01*
X900234Y-1760667D01*
X901049Y-1760260D01*
X901419Y-1760000D01*
X901753Y-1759704D01*
X901790Y-1759667D01*
X901827Y-1759630D01*
X901901Y-1759519D01*
X902012Y-1759371D01*
X902123Y-1759149D01*
X902271Y-1758927D01*
X902419Y-1758593D01*
X902568Y-1758260D01*
X902716Y-1757852D01*
X902827Y-1757371D01*
X902975Y-1756816D01*
X903086Y-1756223D01*
X903197Y-1755556D01*
X903271Y-1754853D01*
X903345Y-1754038D01*
Y-1753186D01*
Y-1738373D01*
X906752D01*
Y-1753186D01*
D02*
G37*
G36*
X1074174Y-1764000D02*
X1071027D01*
Y-1743965D01*
X1070990Y-1744002D01*
X1070805Y-1744150D01*
X1070582Y-1744372D01*
X1070212Y-1744632D01*
X1069805Y-1744965D01*
X1069286Y-1745335D01*
X1068694Y-1745743D01*
X1068027Y-1746150D01*
X1067990D01*
X1067953Y-1746187D01*
X1067731Y-1746335D01*
X1067360Y-1746520D01*
X1066916Y-1746743D01*
X1066397Y-1747002D01*
X1065842Y-1747261D01*
X1065286Y-1747520D01*
X1064731Y-1747742D01*
Y-1744706D01*
X1064768D01*
X1064842Y-1744632D01*
X1064990Y-1744595D01*
X1065175Y-1744483D01*
X1065398Y-1744372D01*
X1065657Y-1744224D01*
X1066286Y-1743854D01*
X1067027Y-1743447D01*
X1067768Y-1742928D01*
X1068545Y-1742336D01*
X1069323Y-1741706D01*
X1069360Y-1741669D01*
X1069397Y-1741632D01*
X1069508Y-1741521D01*
X1069656Y-1741410D01*
X1069990Y-1741039D01*
X1070434Y-1740595D01*
X1070879Y-1740077D01*
X1071360Y-1739484D01*
X1071767Y-1738891D01*
X1072138Y-1738262D01*
X1074174D01*
Y-1764000D01*
D02*
G37*
G36*
X924639Y-1738410D02*
X924973D01*
X925750Y-1738447D01*
X926565Y-1738558D01*
X927454Y-1738669D01*
X928269Y-1738855D01*
X928676Y-1738966D01*
X929009Y-1739077D01*
X929046D01*
X929083Y-1739114D01*
X929305Y-1739225D01*
X929639Y-1739373D01*
X930046Y-1739632D01*
X930490Y-1739966D01*
X930972Y-1740410D01*
X931416Y-1740928D01*
X931861Y-1741521D01*
Y-1741558D01*
X931898Y-1741595D01*
X932046Y-1741817D01*
X932194Y-1742187D01*
X932416Y-1742669D01*
X932601Y-1743224D01*
X932787Y-1743891D01*
X932898Y-1744595D01*
X932935Y-1745372D01*
Y-1745409D01*
Y-1745483D01*
Y-1745632D01*
X932898Y-1745817D01*
Y-1746076D01*
X932861Y-1746335D01*
X932712Y-1746965D01*
X932490Y-1747705D01*
X932194Y-1748483D01*
X931750Y-1749261D01*
X931453Y-1749631D01*
X931157Y-1750002D01*
X931120Y-1750038D01*
X931083Y-1750076D01*
X930972Y-1750187D01*
X930824Y-1750298D01*
X930639Y-1750446D01*
X930416Y-1750594D01*
X930120Y-1750779D01*
X929824Y-1751001D01*
X929454Y-1751187D01*
X929046Y-1751372D01*
X928602Y-1751594D01*
X928120Y-1751779D01*
X927565Y-1751927D01*
X927009Y-1752112D01*
X926380Y-1752223D01*
X925713Y-1752334D01*
X925787Y-1752372D01*
X925935Y-1752446D01*
X926158Y-1752594D01*
X926454Y-1752742D01*
X927121Y-1753149D01*
X927454Y-1753409D01*
X927750Y-1753631D01*
X927824Y-1753705D01*
X928009Y-1753890D01*
X928306Y-1754186D01*
X928676Y-1754556D01*
X929083Y-1755075D01*
X929565Y-1755630D01*
X930046Y-1756297D01*
X930565Y-1757038D01*
X934971Y-1764000D01*
X930750D01*
X927380Y-1758667D01*
Y-1758630D01*
X927306Y-1758556D01*
X927232Y-1758445D01*
X927121Y-1758297D01*
X926861Y-1757890D01*
X926528Y-1757371D01*
X926121Y-1756816D01*
X925713Y-1756223D01*
X925306Y-1755668D01*
X924936Y-1755149D01*
X924899Y-1755112D01*
X924787Y-1754964D01*
X924602Y-1754742D01*
X924343Y-1754483D01*
X923788Y-1753927D01*
X923491Y-1753668D01*
X923195Y-1753445D01*
X923158Y-1753409D01*
X923084Y-1753371D01*
X922936Y-1753297D01*
X922713Y-1753186D01*
X922491Y-1753075D01*
X922232Y-1752964D01*
X921640Y-1752779D01*
X921602D01*
X921528Y-1752742D01*
X921380D01*
X921195Y-1752705D01*
X920936Y-1752668D01*
X920640D01*
X920232Y-1752631D01*
X915862D01*
Y-1764000D01*
X912455D01*
Y-1738373D01*
X924343D01*
X924639Y-1738410D01*
D02*
G37*
G36*
X881273Y-1741410D02*
X866127D01*
Y-1749224D01*
X880311D01*
Y-1752260D01*
X866127D01*
Y-1760963D01*
X881866D01*
Y-1764000D01*
X862720D01*
Y-1738373D01*
X881273D01*
Y-1741410D01*
D02*
G37*
G36*
X859165D02*
X850721D01*
Y-1764000D01*
X847314D01*
Y-1741410D01*
X838870D01*
Y-1738373D01*
X859165D01*
Y-1741410D01*
D02*
G37*
G36*
X767841D02*
X752694D01*
Y-1749224D01*
X766878D01*
Y-1752260D01*
X752694D01*
Y-1760963D01*
X768433D01*
Y-1764000D01*
X749287D01*
Y-1738373D01*
X767841D01*
Y-1741410D01*
D02*
G37*
G36*
X720660Y-1764000D02*
X716809D01*
X713809Y-1756223D01*
X703070D01*
X700292Y-1764000D01*
X696700D01*
X706477Y-1738373D01*
X710180D01*
X720660Y-1764000D01*
D02*
G37*
G36*
X695107Y-1741410D02*
X681183D01*
Y-1749335D01*
X693219D01*
Y-1752372D01*
X681183D01*
Y-1764000D01*
X677776D01*
Y-1738373D01*
X695107D01*
Y-1741410D01*
D02*
G37*
G36*
X664000Y-1738410D02*
X664333D01*
X665111Y-1738447D01*
X665925Y-1738558D01*
X666814Y-1738669D01*
X667629Y-1738855D01*
X668036Y-1738966D01*
X668370Y-1739077D01*
X668407D01*
X668444Y-1739114D01*
X668666Y-1739225D01*
X668999Y-1739373D01*
X669406Y-1739632D01*
X669851Y-1739966D01*
X670332Y-1740410D01*
X670777Y-1740928D01*
X671221Y-1741521D01*
Y-1741558D01*
X671258Y-1741595D01*
X671406Y-1741817D01*
X671554Y-1742187D01*
X671777Y-1742669D01*
X671962Y-1743224D01*
X672147Y-1743891D01*
X672258Y-1744595D01*
X672295Y-1745372D01*
Y-1745409D01*
Y-1745483D01*
Y-1745632D01*
X672258Y-1745817D01*
Y-1746076D01*
X672221Y-1746335D01*
X672073Y-1746965D01*
X671851Y-1747705D01*
X671554Y-1748483D01*
X671110Y-1749261D01*
X670814Y-1749631D01*
X670517Y-1750002D01*
X670480Y-1750038D01*
X670443Y-1750076D01*
X670332Y-1750187D01*
X670184Y-1750298D01*
X669999Y-1750446D01*
X669777Y-1750594D01*
X669481Y-1750779D01*
X669184Y-1751001D01*
X668814Y-1751187D01*
X668407Y-1751372D01*
X667962Y-1751594D01*
X667481Y-1751779D01*
X666925Y-1751927D01*
X666370Y-1752112D01*
X665740Y-1752223D01*
X665073Y-1752334D01*
X665148Y-1752372D01*
X665296Y-1752446D01*
X665518Y-1752594D01*
X665814Y-1752742D01*
X666481Y-1753149D01*
X666814Y-1753409D01*
X667110Y-1753631D01*
X667184Y-1753705D01*
X667370Y-1753890D01*
X667666Y-1754186D01*
X668036Y-1754556D01*
X668444Y-1755075D01*
X668925Y-1755630D01*
X669406Y-1756297D01*
X669925Y-1757038D01*
X674332Y-1764000D01*
X670110D01*
X666740Y-1758667D01*
Y-1758630D01*
X666666Y-1758556D01*
X666592Y-1758445D01*
X666481Y-1758297D01*
X666222Y-1757890D01*
X665888Y-1757371D01*
X665481Y-1756816D01*
X665073Y-1756223D01*
X664666Y-1755668D01*
X664296Y-1755149D01*
X664259Y-1755112D01*
X664148Y-1754964D01*
X663963Y-1754742D01*
X663703Y-1754483D01*
X663148Y-1753927D01*
X662852Y-1753668D01*
X662555Y-1753445D01*
X662518Y-1753409D01*
X662444Y-1753371D01*
X662296Y-1753297D01*
X662074Y-1753186D01*
X661852Y-1753075D01*
X661592Y-1752964D01*
X661000Y-1752779D01*
X660963D01*
X660889Y-1752742D01*
X660741D01*
X660555Y-1752705D01*
X660296Y-1752668D01*
X660000D01*
X659593Y-1752631D01*
X655223D01*
Y-1764000D01*
X651816D01*
Y-1738373D01*
X663703D01*
X664000Y-1738410D01*
D02*
G37*
G36*
X646483Y-1741410D02*
X631336D01*
Y-1749224D01*
X645520D01*
Y-1752260D01*
X631336D01*
Y-1760963D01*
X647075D01*
Y-1764000D01*
X627929D01*
Y-1738373D01*
X646483D01*
Y-1741410D01*
D02*
G37*
G36*
X624374D02*
X615930D01*
Y-1764000D01*
X612523D01*
Y-1741410D01*
X604080D01*
Y-1738373D01*
X624374D01*
Y-1741410D01*
D02*
G37*
G36*
X574157Y-1764000D02*
X570750D01*
Y-1738373D01*
X574157D01*
Y-1764000D01*
D02*
G37*
G36*
X1051510Y-1738299D02*
X1051992Y-1738373D01*
X1052547Y-1738484D01*
X1053140Y-1738632D01*
X1053769Y-1738817D01*
X1054362Y-1739114D01*
X1054399D01*
X1054436Y-1739151D01*
X1054621Y-1739262D01*
X1054917Y-1739447D01*
X1055288Y-1739706D01*
X1055695Y-1740077D01*
X1056139Y-1740484D01*
X1056547Y-1740965D01*
X1056954Y-1741521D01*
X1056991Y-1741595D01*
X1057139Y-1741780D01*
X1057287Y-1742113D01*
X1057547Y-1742595D01*
X1057769Y-1743150D01*
X1058065Y-1743780D01*
X1058324Y-1744521D01*
X1058547Y-1745335D01*
Y-1745372D01*
X1058584Y-1745446D01*
X1058621Y-1745558D01*
X1058658Y-1745743D01*
X1058695Y-1745965D01*
X1058732Y-1746224D01*
X1058806Y-1746557D01*
X1058843Y-1746928D01*
X1058917Y-1747335D01*
X1058954Y-1747780D01*
X1058991Y-1748298D01*
X1059065Y-1748816D01*
X1059102Y-1749409D01*
Y-1750002D01*
X1059139Y-1750668D01*
Y-1751372D01*
Y-1751409D01*
Y-1751557D01*
Y-1751816D01*
Y-1752112D01*
X1059102Y-1752520D01*
Y-1752964D01*
X1059065Y-1753445D01*
X1059028Y-1753964D01*
X1058917Y-1755149D01*
X1058732Y-1756371D01*
X1058509Y-1757556D01*
X1058361Y-1758112D01*
X1058176Y-1758667D01*
Y-1758704D01*
X1058139Y-1758778D01*
X1058065Y-1758927D01*
X1057991Y-1759112D01*
X1057917Y-1759371D01*
X1057769Y-1759630D01*
X1057473Y-1760260D01*
X1057102Y-1760926D01*
X1056621Y-1761667D01*
X1056065Y-1762334D01*
X1055399Y-1762963D01*
X1055362D01*
X1055325Y-1763037D01*
X1055213Y-1763111D01*
X1055065Y-1763185D01*
X1054880Y-1763296D01*
X1054695Y-1763445D01*
X1054139Y-1763704D01*
X1053473Y-1763963D01*
X1052695Y-1764222D01*
X1051769Y-1764370D01*
X1050770Y-1764444D01*
X1050399D01*
X1050140Y-1764407D01*
X1049844Y-1764370D01*
X1049473Y-1764296D01*
X1049066Y-1764222D01*
X1048622Y-1764111D01*
X1048177Y-1763963D01*
X1047696Y-1763815D01*
X1047214Y-1763593D01*
X1046733Y-1763333D01*
X1046252Y-1763037D01*
X1045770Y-1762667D01*
X1045326Y-1762259D01*
X1044918Y-1761815D01*
X1044881Y-1761778D01*
X1044807Y-1761667D01*
X1044696Y-1761482D01*
X1044511Y-1761185D01*
X1044326Y-1760852D01*
X1044141Y-1760408D01*
X1043881Y-1759889D01*
X1043659Y-1759297D01*
X1043437Y-1758630D01*
X1043215Y-1757852D01*
X1042992Y-1757001D01*
X1042807Y-1756038D01*
X1042622Y-1755001D01*
X1042511Y-1753890D01*
X1042437Y-1752668D01*
X1042400Y-1751372D01*
Y-1751335D01*
Y-1751187D01*
Y-1750927D01*
Y-1750631D01*
X1042437Y-1750224D01*
Y-1749779D01*
X1042474Y-1749298D01*
X1042511Y-1748742D01*
X1042622Y-1747594D01*
X1042807Y-1746372D01*
X1043030Y-1745150D01*
X1043178Y-1744595D01*
X1043326Y-1744039D01*
Y-1744002D01*
X1043363Y-1743928D01*
X1043437Y-1743780D01*
X1043511Y-1743595D01*
X1043585Y-1743336D01*
X1043733Y-1743076D01*
X1044029Y-1742447D01*
X1044400Y-1741780D01*
X1044881Y-1741077D01*
X1045437Y-1740373D01*
X1046103Y-1739780D01*
X1046140D01*
X1046177Y-1739706D01*
X1046289Y-1739632D01*
X1046437Y-1739558D01*
X1046622Y-1739410D01*
X1046844Y-1739299D01*
X1047400Y-1739003D01*
X1048066Y-1738743D01*
X1048844Y-1738484D01*
X1049770Y-1738336D01*
X1050770Y-1738262D01*
X1051103D01*
X1051510Y-1738299D01*
D02*
G37*
G36*
X824761Y-1737966D02*
X825094D01*
X825427Y-1738003D01*
X825872Y-1738077D01*
X826316Y-1738151D01*
X827279Y-1738336D01*
X828390Y-1738632D01*
X829464Y-1739077D01*
X830019Y-1739336D01*
X830575Y-1739632D01*
X830612Y-1739669D01*
X830686Y-1739706D01*
X830834Y-1739817D01*
X831056Y-1739928D01*
X831279Y-1740114D01*
X831575Y-1740336D01*
X832204Y-1740854D01*
X832871Y-1741521D01*
X833612Y-1742336D01*
X834315Y-1743298D01*
X834908Y-1744372D01*
Y-1744409D01*
X834982Y-1744521D01*
X835056Y-1744669D01*
X835130Y-1744891D01*
X835278Y-1745187D01*
X835389Y-1745520D01*
X835537Y-1745928D01*
X835686Y-1746372D01*
X835797Y-1746854D01*
X835945Y-1747372D01*
X836093Y-1747965D01*
X836204Y-1748557D01*
X836352Y-1749853D01*
X836426Y-1751261D01*
Y-1751298D01*
Y-1751446D01*
Y-1751631D01*
X836389Y-1751927D01*
Y-1752260D01*
X836352Y-1752668D01*
X836278Y-1753112D01*
X836241Y-1753594D01*
X836056Y-1754668D01*
X835760Y-1755853D01*
X835352Y-1757038D01*
X835130Y-1757630D01*
X834834Y-1758223D01*
Y-1758260D01*
X834760Y-1758371D01*
X834686Y-1758519D01*
X834538Y-1758741D01*
X834389Y-1759001D01*
X834204Y-1759260D01*
X833686Y-1759963D01*
X833056Y-1760704D01*
X832316Y-1761482D01*
X831427Y-1762222D01*
X830390Y-1762889D01*
X830353D01*
X830279Y-1762963D01*
X830094Y-1763037D01*
X829871Y-1763148D01*
X829612Y-1763259D01*
X829316Y-1763370D01*
X828945Y-1763519D01*
X828538Y-1763667D01*
X828094Y-1763815D01*
X827612Y-1763963D01*
X826538Y-1764185D01*
X825390Y-1764370D01*
X824168Y-1764444D01*
X823798D01*
X823576Y-1764407D01*
X823242D01*
X822872Y-1764333D01*
X822465Y-1764296D01*
X821983Y-1764222D01*
X820983Y-1764000D01*
X819909Y-1763704D01*
X818798Y-1763259D01*
X818243Y-1763000D01*
X817687Y-1762704D01*
X817650Y-1762667D01*
X817576Y-1762630D01*
X817428Y-1762519D01*
X817206Y-1762370D01*
X816984Y-1762222D01*
X816724Y-1762000D01*
X816095Y-1761445D01*
X815391Y-1760778D01*
X814651Y-1759963D01*
X813984Y-1759038D01*
X813354Y-1757964D01*
Y-1757927D01*
X813280Y-1757816D01*
X813206Y-1757667D01*
X813132Y-1757445D01*
X813021Y-1757149D01*
X812910Y-1756816D01*
X812762Y-1756445D01*
X812651Y-1756038D01*
X812503Y-1755556D01*
X812355Y-1755075D01*
X812132Y-1753964D01*
X811984Y-1752816D01*
X811910Y-1751557D01*
Y-1751520D01*
Y-1751483D01*
Y-1751261D01*
X811947Y-1750927D01*
Y-1750483D01*
X812021Y-1749964D01*
X812095Y-1749335D01*
X812206Y-1748631D01*
X812355Y-1747891D01*
X812503Y-1747113D01*
X812725Y-1746298D01*
X813021Y-1745483D01*
X813354Y-1744632D01*
X813725Y-1743817D01*
X814206Y-1743002D01*
X814725Y-1742262D01*
X815317Y-1741558D01*
X815354Y-1741521D01*
X815465Y-1741410D01*
X815688Y-1741225D01*
X815947Y-1741002D01*
X816280Y-1740706D01*
X816687Y-1740410D01*
X817169Y-1740077D01*
X817724Y-1739743D01*
X818317Y-1739410D01*
X818984Y-1739077D01*
X819724Y-1738780D01*
X820502Y-1738484D01*
X821354Y-1738262D01*
X822242Y-1738077D01*
X823168Y-1737966D01*
X824168Y-1737929D01*
X824501D01*
X824761Y-1737966D01*
D02*
G37*
G36*
X679910Y-1821279D02*
X691131Y-1836500D01*
X686650D01*
X677540Y-1823575D01*
X673355Y-1827612D01*
Y-1836500D01*
X669948D01*
Y-1810873D01*
X673355D01*
Y-1823613D01*
X686021Y-1810873D01*
X690650D01*
X679910Y-1821279D01*
D02*
G37*
G36*
X640692Y-1836500D02*
X637433D01*
Y-1815058D01*
X629952Y-1836500D01*
X626916D01*
X619509Y-1814688D01*
Y-1836500D01*
X616250D01*
Y-1810873D01*
X621324D01*
X627397Y-1829056D01*
Y-1829093D01*
X627434Y-1829167D01*
X627471Y-1829279D01*
X627545Y-1829464D01*
X627693Y-1829908D01*
X627878Y-1830464D01*
X628064Y-1831093D01*
X628286Y-1831723D01*
X628471Y-1832315D01*
X628619Y-1832834D01*
X628656Y-1832760D01*
X628693Y-1832574D01*
X628804Y-1832241D01*
X628952Y-1831797D01*
X629137Y-1831204D01*
X629397Y-1830501D01*
X629656Y-1829686D01*
X629989Y-1828723D01*
X636137Y-1810873D01*
X640692D01*
Y-1836500D01*
D02*
G37*
G36*
X740052Y-1810910D02*
X740385D01*
X741163Y-1810947D01*
X741978Y-1811058D01*
X742867Y-1811169D01*
X743681Y-1811355D01*
X744089Y-1811466D01*
X744422Y-1811577D01*
X744459D01*
X744496Y-1811614D01*
X744718Y-1811725D01*
X745051Y-1811873D01*
X745459Y-1812132D01*
X745903Y-1812466D01*
X746385Y-1812910D01*
X746829Y-1813428D01*
X747273Y-1814021D01*
Y-1814058D01*
X747310Y-1814095D01*
X747459Y-1814317D01*
X747607Y-1814688D01*
X747829Y-1815169D01*
X748014Y-1815724D01*
X748199Y-1816391D01*
X748310Y-1817095D01*
X748347Y-1817872D01*
Y-1817909D01*
Y-1817983D01*
Y-1818132D01*
X748310Y-1818317D01*
Y-1818576D01*
X748273Y-1818835D01*
X748125Y-1819465D01*
X747903Y-1820205D01*
X747607Y-1820983D01*
X747162Y-1821761D01*
X746866Y-1822131D01*
X746570Y-1822502D01*
X746533Y-1822538D01*
X746496Y-1822576D01*
X746385Y-1822687D01*
X746236Y-1822798D01*
X746051Y-1822946D01*
X745829Y-1823094D01*
X745533Y-1823279D01*
X745237Y-1823501D01*
X744866Y-1823687D01*
X744459Y-1823872D01*
X744015Y-1824094D01*
X743533Y-1824279D01*
X742978Y-1824427D01*
X742422Y-1824612D01*
X741793Y-1824724D01*
X741126Y-1824835D01*
X741200Y-1824872D01*
X741348Y-1824946D01*
X741570Y-1825094D01*
X741867Y-1825242D01*
X742533Y-1825649D01*
X742867Y-1825909D01*
X743163Y-1826131D01*
X743237Y-1826205D01*
X743422Y-1826390D01*
X743718Y-1826686D01*
X744089Y-1827056D01*
X744496Y-1827575D01*
X744977Y-1828130D01*
X745459Y-1828797D01*
X745977Y-1829538D01*
X750384Y-1836500D01*
X746162D01*
X742792Y-1831167D01*
Y-1831130D01*
X742718Y-1831056D01*
X742644Y-1830945D01*
X742533Y-1830797D01*
X742274Y-1830390D01*
X741941Y-1829871D01*
X741533Y-1829316D01*
X741126Y-1828723D01*
X740719Y-1828168D01*
X740348Y-1827649D01*
X740311Y-1827612D01*
X740200Y-1827464D01*
X740015Y-1827242D01*
X739756Y-1826983D01*
X739200Y-1826427D01*
X738904Y-1826168D01*
X738608Y-1825945D01*
X738571Y-1825909D01*
X738497Y-1825871D01*
X738348Y-1825797D01*
X738126Y-1825686D01*
X737904Y-1825575D01*
X737645Y-1825464D01*
X737052Y-1825279D01*
X737015D01*
X736941Y-1825242D01*
X736793D01*
X736608Y-1825205D01*
X736349Y-1825168D01*
X736052D01*
X735645Y-1825131D01*
X731275D01*
Y-1836500D01*
X727868D01*
Y-1810873D01*
X739756D01*
X740052Y-1810910D01*
D02*
G37*
G36*
X721832Y-1836500D02*
X718425D01*
Y-1810873D01*
X721832D01*
Y-1836500D01*
D02*
G37*
G36*
X715129D02*
X711277D01*
X708278Y-1828723D01*
X697538D01*
X694760Y-1836500D01*
X691168D01*
X700945Y-1810873D01*
X704648D01*
X715129Y-1836500D01*
D02*
G37*
G36*
X667356D02*
X663504D01*
X660505Y-1828723D01*
X649765D01*
X646988Y-1836500D01*
X643395D01*
X653172Y-1810873D01*
X656875D01*
X667356Y-1836500D01*
D02*
G37*
%LPC*%
G36*
X805757Y-1659083D02*
X798697D01*
Y-1666499D01*
X805368D01*
X805757Y-1666467D01*
X806210Y-1666435D01*
X806728Y-1666402D01*
X807246Y-1666337D01*
X807765Y-1666240D01*
X808218Y-1666111D01*
X808283Y-1666078D01*
X808412Y-1666014D01*
X808607Y-1665916D01*
X808866Y-1665787D01*
X809157Y-1665593D01*
X809449Y-1665366D01*
X809740Y-1665074D01*
X809967Y-1664751D01*
X809999Y-1664718D01*
X810064Y-1664589D01*
X810161Y-1664394D01*
X810291Y-1664135D01*
X810388Y-1663844D01*
X810485Y-1663520D01*
X810550Y-1663131D01*
X810582Y-1662743D01*
Y-1662710D01*
Y-1662678D01*
X810550Y-1662484D01*
X810517Y-1662192D01*
X810453Y-1661804D01*
X810291Y-1661415D01*
X810096Y-1660961D01*
X809805Y-1660540D01*
X809416Y-1660119D01*
X809352Y-1660087D01*
X809190Y-1659958D01*
X808931Y-1659796D01*
X808510Y-1659601D01*
X808024Y-1659407D01*
X807376Y-1659245D01*
X806631Y-1659116D01*
X805757Y-1659083D01*
D02*
G37*
G36*
X760353Y-1659245D02*
X755171D01*
Y-1676344D01*
X760482D01*
X760709Y-1676312D01*
X761195Y-1676280D01*
X761746Y-1676247D01*
X762328Y-1676183D01*
X762911Y-1676085D01*
X763397Y-1675956D01*
X763462Y-1675923D01*
X763624Y-1675891D01*
X763850Y-1675794D01*
X764142Y-1675664D01*
X764466Y-1675470D01*
X764790Y-1675276D01*
X765114Y-1675049D01*
X765437Y-1674790D01*
X765470Y-1674725D01*
X765599Y-1674596D01*
X765794Y-1674369D01*
X766020Y-1674045D01*
X766279Y-1673624D01*
X766571Y-1673138D01*
X766830Y-1672588D01*
X767057Y-1671972D01*
Y-1671940D01*
X767089Y-1671875D01*
X767121Y-1671778D01*
X767154Y-1671649D01*
X767186Y-1671487D01*
X767251Y-1671260D01*
X767316Y-1671033D01*
X767381Y-1670774D01*
X767478Y-1670126D01*
X767575Y-1669382D01*
X767640Y-1668540D01*
X767672Y-1667633D01*
Y-1667601D01*
Y-1667471D01*
Y-1667309D01*
X767640Y-1667050D01*
Y-1666759D01*
X767607Y-1666435D01*
X767575Y-1666046D01*
X767542Y-1665657D01*
X767381Y-1664783D01*
X767186Y-1663876D01*
X766895Y-1663034D01*
X766700Y-1662613D01*
X766506Y-1662257D01*
Y-1662225D01*
X766441Y-1662160D01*
X766377Y-1662063D01*
X766312Y-1661933D01*
X766053Y-1661609D01*
X765729Y-1661221D01*
X765308Y-1660800D01*
X764822Y-1660379D01*
X764271Y-1660022D01*
X763689Y-1659731D01*
X763624Y-1659698D01*
X763462Y-1659666D01*
X763170Y-1659569D01*
X762749Y-1659472D01*
X762231Y-1659407D01*
X761584Y-1659310D01*
X761195Y-1659277D01*
X760774D01*
X760353Y-1659245D01*
D02*
G37*
G36*
X669319D02*
X662906D01*
Y-1667244D01*
X668930D01*
X669157Y-1667212D01*
X669383D01*
X669643Y-1667180D01*
X670258Y-1667115D01*
X670938Y-1666985D01*
X671618Y-1666791D01*
X672233Y-1666532D01*
X672525Y-1666370D01*
X672751Y-1666176D01*
X672816Y-1666111D01*
X672946Y-1665981D01*
X673140Y-1665722D01*
X673367Y-1665398D01*
X673594Y-1664977D01*
X673788Y-1664459D01*
X673917Y-1663876D01*
X673982Y-1663196D01*
Y-1663164D01*
Y-1663131D01*
Y-1662969D01*
X673950Y-1662678D01*
X673885Y-1662354D01*
X673820Y-1661998D01*
X673691Y-1661577D01*
X673496Y-1661188D01*
X673270Y-1660800D01*
X673237Y-1660767D01*
X673140Y-1660638D01*
X672978Y-1660476D01*
X672784Y-1660249D01*
X672493Y-1660022D01*
X672169Y-1659828D01*
X671812Y-1659634D01*
X671391Y-1659472D01*
X671359D01*
X671229Y-1659440D01*
X671035Y-1659407D01*
X670776Y-1659342D01*
X670387Y-1659310D01*
X669902Y-1659277D01*
X669319Y-1659245D01*
D02*
G37*
G36*
X720228Y-1658759D02*
X719937D01*
X719710Y-1658792D01*
X719418Y-1658824D01*
X719127Y-1658889D01*
X718771Y-1658954D01*
X718382Y-1659018D01*
X717540Y-1659277D01*
X717087Y-1659472D01*
X716633Y-1659666D01*
X716147Y-1659925D01*
X715694Y-1660217D01*
X715241Y-1660540D01*
X714820Y-1660929D01*
X714787Y-1660961D01*
X714723Y-1661026D01*
X714625Y-1661156D01*
X714463Y-1661350D01*
X714302Y-1661577D01*
X714107Y-1661868D01*
X713913Y-1662225D01*
X713686Y-1662646D01*
X713492Y-1663099D01*
X713265Y-1663649D01*
X713071Y-1664232D01*
X712909Y-1664880D01*
X712747Y-1665593D01*
X712650Y-1666402D01*
X712585Y-1667244D01*
X712553Y-1668151D01*
Y-1668183D01*
Y-1668313D01*
Y-1668540D01*
X712585Y-1668831D01*
X712617Y-1669155D01*
X712682Y-1669544D01*
X712747Y-1669997D01*
X712812Y-1670450D01*
X713071Y-1671487D01*
X713265Y-1672005D01*
X713459Y-1672555D01*
X713719Y-1673073D01*
X714010Y-1673592D01*
X714334Y-1674077D01*
X714723Y-1674531D01*
X714755Y-1674563D01*
X714820Y-1674628D01*
X714949Y-1674758D01*
X715111Y-1674887D01*
X715338Y-1675081D01*
X715597Y-1675276D01*
X715888Y-1675470D01*
X716212Y-1675697D01*
X716601Y-1675923D01*
X717022Y-1676118D01*
X717475Y-1676312D01*
X717961Y-1676506D01*
X718479Y-1676636D01*
X718997Y-1676765D01*
X719580Y-1676830D01*
X720196Y-1676863D01*
X720358D01*
X720519Y-1676830D01*
X720746D01*
X721038Y-1676798D01*
X721361Y-1676733D01*
X721750Y-1676668D01*
X722139Y-1676571D01*
X722592Y-1676442D01*
X723013Y-1676280D01*
X723499Y-1676118D01*
X723952Y-1675891D01*
X724406Y-1675600D01*
X724859Y-1675308D01*
X725312Y-1674952D01*
X725733Y-1674531D01*
X725766Y-1674498D01*
X725831Y-1674434D01*
X725928Y-1674272D01*
X726090Y-1674077D01*
X726252Y-1673851D01*
X726413Y-1673559D01*
X726608Y-1673203D01*
X726834Y-1672814D01*
X727029Y-1672361D01*
X727223Y-1671843D01*
X727385Y-1671292D01*
X727579Y-1670709D01*
X727709Y-1670062D01*
X727806Y-1669349D01*
X727871Y-1668604D01*
X727903Y-1667827D01*
Y-1667795D01*
Y-1667698D01*
Y-1667568D01*
Y-1667374D01*
X727871Y-1667147D01*
Y-1666856D01*
X727838Y-1666564D01*
X727774Y-1666208D01*
X727676Y-1665463D01*
X727515Y-1664686D01*
X727288Y-1663844D01*
X726964Y-1663067D01*
Y-1663034D01*
X726932Y-1662969D01*
X726867Y-1662872D01*
X726802Y-1662743D01*
X726575Y-1662354D01*
X726284Y-1661901D01*
X725895Y-1661383D01*
X725409Y-1660864D01*
X724859Y-1660346D01*
X724244Y-1659893D01*
X724211D01*
X724179Y-1659828D01*
X724082Y-1659796D01*
X723920Y-1659698D01*
X723758Y-1659634D01*
X723564Y-1659537D01*
X723078Y-1659310D01*
X722495Y-1659116D01*
X721815Y-1658921D01*
X721038Y-1658792D01*
X720228Y-1658759D01*
D02*
G37*
G36*
X645386D02*
X645095D01*
X644868Y-1658792D01*
X644577Y-1658824D01*
X644285Y-1658889D01*
X643929Y-1658954D01*
X643540Y-1659018D01*
X642698Y-1659277D01*
X642245Y-1659472D01*
X641792Y-1659666D01*
X641306Y-1659925D01*
X640852Y-1660217D01*
X640399Y-1660540D01*
X639978Y-1660929D01*
X639945Y-1660961D01*
X639881Y-1661026D01*
X639784Y-1661156D01*
X639622Y-1661350D01*
X639460Y-1661577D01*
X639265Y-1661868D01*
X639071Y-1662225D01*
X638844Y-1662646D01*
X638650Y-1663099D01*
X638423Y-1663649D01*
X638229Y-1664232D01*
X638067Y-1664880D01*
X637905Y-1665593D01*
X637808Y-1666402D01*
X637743Y-1667244D01*
X637711Y-1668151D01*
Y-1668183D01*
Y-1668313D01*
Y-1668540D01*
X637743Y-1668831D01*
X637776Y-1669155D01*
X637840Y-1669544D01*
X637905Y-1669997D01*
X637970Y-1670450D01*
X638229Y-1671487D01*
X638423Y-1672005D01*
X638618Y-1672555D01*
X638877Y-1673073D01*
X639168Y-1673592D01*
X639492Y-1674077D01*
X639881Y-1674531D01*
X639913Y-1674563D01*
X639978Y-1674628D01*
X640107Y-1674758D01*
X640269Y-1674887D01*
X640496Y-1675081D01*
X640755Y-1675276D01*
X641047Y-1675470D01*
X641370Y-1675697D01*
X641759Y-1675923D01*
X642180Y-1676118D01*
X642634Y-1676312D01*
X643119Y-1676506D01*
X643637Y-1676636D01*
X644156Y-1676765D01*
X644738Y-1676830D01*
X645354Y-1676863D01*
X645516D01*
X645678Y-1676830D01*
X645904D01*
X646196Y-1676798D01*
X646520Y-1676733D01*
X646908Y-1676668D01*
X647297Y-1676571D01*
X647750Y-1676442D01*
X648171Y-1676280D01*
X648657Y-1676118D01*
X649110Y-1675891D01*
X649564Y-1675600D01*
X650017Y-1675308D01*
X650471Y-1674952D01*
X650892Y-1674531D01*
X650924Y-1674498D01*
X650989Y-1674434D01*
X651086Y-1674272D01*
X651248Y-1674077D01*
X651410Y-1673851D01*
X651572Y-1673559D01*
X651766Y-1673203D01*
X651993Y-1672814D01*
X652187Y-1672361D01*
X652381Y-1671843D01*
X652543Y-1671292D01*
X652738Y-1670709D01*
X652867Y-1670062D01*
X652964Y-1669349D01*
X653029Y-1668604D01*
X653062Y-1667827D01*
Y-1667795D01*
Y-1667698D01*
Y-1667568D01*
Y-1667374D01*
X653029Y-1667147D01*
Y-1666856D01*
X652997Y-1666564D01*
X652932Y-1666208D01*
X652835Y-1665463D01*
X652673Y-1664686D01*
X652446Y-1663844D01*
X652122Y-1663067D01*
Y-1663034D01*
X652090Y-1662969D01*
X652025Y-1662872D01*
X651960Y-1662743D01*
X651734Y-1662354D01*
X651442Y-1661901D01*
X651054Y-1661383D01*
X650568Y-1660864D01*
X650017Y-1660346D01*
X649402Y-1659893D01*
X649370D01*
X649337Y-1659828D01*
X649240Y-1659796D01*
X649078Y-1659698D01*
X648916Y-1659634D01*
X648722Y-1659537D01*
X648236Y-1659310D01*
X647653Y-1659116D01*
X646973Y-1658921D01*
X646196Y-1658792D01*
X645386Y-1658759D01*
D02*
G37*
G36*
X923936Y-1741225D02*
X915862D01*
Y-1749705D01*
X923491D01*
X923936Y-1749668D01*
X924454Y-1749631D01*
X925047Y-1749594D01*
X925639Y-1749520D01*
X926232Y-1749409D01*
X926750Y-1749261D01*
X926824Y-1749224D01*
X926972Y-1749150D01*
X927195Y-1749039D01*
X927491Y-1748891D01*
X927824Y-1748668D01*
X928157Y-1748409D01*
X928491Y-1748076D01*
X928750Y-1747705D01*
X928787Y-1747668D01*
X928861Y-1747520D01*
X928972Y-1747298D01*
X929120Y-1747002D01*
X929231Y-1746669D01*
X929342Y-1746298D01*
X929417Y-1745854D01*
X929454Y-1745409D01*
Y-1745372D01*
Y-1745335D01*
X929417Y-1745113D01*
X929380Y-1744780D01*
X929305Y-1744335D01*
X929120Y-1743891D01*
X928898Y-1743372D01*
X928565Y-1742891D01*
X928120Y-1742410D01*
X928046Y-1742373D01*
X927861Y-1742224D01*
X927565Y-1742039D01*
X927083Y-1741817D01*
X926528Y-1741595D01*
X925787Y-1741410D01*
X924936Y-1741262D01*
X923936Y-1741225D01*
D02*
G37*
G36*
X708254Y-1741039D02*
Y-1741077D01*
X708217Y-1741151D01*
Y-1741299D01*
X708143Y-1741447D01*
X708106Y-1741706D01*
X708032Y-1741965D01*
X707884Y-1742595D01*
X707699Y-1743336D01*
X707439Y-1744150D01*
X707180Y-1745039D01*
X706847Y-1745965D01*
X704070Y-1753445D01*
X712735D01*
X710069Y-1746409D01*
Y-1746372D01*
X710032Y-1746261D01*
X709958Y-1746076D01*
X709884Y-1745854D01*
X709773Y-1745594D01*
X709661Y-1745261D01*
X709550Y-1744891D01*
X709402Y-1744521D01*
X709106Y-1743669D01*
X708810Y-1742780D01*
X708513Y-1741891D01*
X708254Y-1741039D01*
D02*
G37*
G36*
X663296Y-1741225D02*
X655223D01*
Y-1749705D01*
X662852D01*
X663296Y-1749668D01*
X663814Y-1749631D01*
X664407Y-1749594D01*
X664999Y-1749520D01*
X665592Y-1749409D01*
X666111Y-1749261D01*
X666184Y-1749224D01*
X666333Y-1749150D01*
X666555Y-1749039D01*
X666851Y-1748891D01*
X667184Y-1748668D01*
X667518Y-1748409D01*
X667851Y-1748076D01*
X668110Y-1747705D01*
X668147Y-1747668D01*
X668221Y-1747520D01*
X668333Y-1747298D01*
X668481Y-1747002D01*
X668592Y-1746669D01*
X668703Y-1746298D01*
X668777Y-1745854D01*
X668814Y-1745409D01*
Y-1745372D01*
Y-1745335D01*
X668777Y-1745113D01*
X668740Y-1744780D01*
X668666Y-1744335D01*
X668481Y-1743891D01*
X668258Y-1743372D01*
X667925Y-1742891D01*
X667481Y-1742410D01*
X667407Y-1742373D01*
X667222Y-1742224D01*
X666925Y-1742039D01*
X666444Y-1741817D01*
X665888Y-1741595D01*
X665148Y-1741410D01*
X664296Y-1741262D01*
X663296Y-1741225D01*
D02*
G37*
G36*
X1050732Y-1740854D02*
X1050510D01*
X1050362Y-1740891D01*
X1049955Y-1740965D01*
X1049473Y-1741077D01*
X1048918Y-1741299D01*
X1048325Y-1741632D01*
X1048029Y-1741854D01*
X1047733Y-1742076D01*
X1047474Y-1742373D01*
X1047214Y-1742706D01*
Y-1742743D01*
X1047140Y-1742817D01*
X1047066Y-1742965D01*
X1046955Y-1743150D01*
X1046844Y-1743447D01*
X1046696Y-1743780D01*
X1046585Y-1744187D01*
X1046437Y-1744669D01*
X1046289Y-1745224D01*
X1046140Y-1745854D01*
X1045992Y-1746557D01*
X1045881Y-1747335D01*
X1045770Y-1748224D01*
X1045696Y-1749187D01*
X1045659Y-1750224D01*
X1045622Y-1751372D01*
Y-1751446D01*
Y-1751631D01*
Y-1751964D01*
X1045659Y-1752409D01*
Y-1752890D01*
X1045696Y-1753483D01*
X1045733Y-1754112D01*
X1045807Y-1754779D01*
X1045992Y-1756223D01*
X1046103Y-1756927D01*
X1046252Y-1757593D01*
X1046400Y-1758223D01*
X1046622Y-1758815D01*
X1046844Y-1759334D01*
X1047103Y-1759778D01*
Y-1759815D01*
X1047177Y-1759852D01*
X1047362Y-1760112D01*
X1047696Y-1760445D01*
X1048103Y-1760815D01*
X1048659Y-1761185D01*
X1049288Y-1761519D01*
X1049992Y-1761778D01*
X1050362Y-1761815D01*
X1050770Y-1761852D01*
X1050992D01*
X1051140Y-1761815D01*
X1051510Y-1761741D01*
X1052029Y-1761593D01*
X1052584Y-1761334D01*
X1053214Y-1760963D01*
X1053510Y-1760741D01*
X1053806Y-1760445D01*
X1054102Y-1760148D01*
X1054399Y-1759778D01*
Y-1759741D01*
X1054473Y-1759667D01*
X1054547Y-1759556D01*
X1054621Y-1759371D01*
X1054769Y-1759112D01*
X1054880Y-1758778D01*
X1055028Y-1758408D01*
X1055176Y-1757964D01*
X1055288Y-1757408D01*
X1055436Y-1756816D01*
X1055584Y-1756112D01*
X1055695Y-1755371D01*
X1055769Y-1754483D01*
X1055843Y-1753557D01*
X1055917Y-1752520D01*
Y-1751372D01*
Y-1751335D01*
Y-1751298D01*
Y-1751112D01*
Y-1750779D01*
X1055880Y-1750335D01*
Y-1749853D01*
X1055843Y-1749261D01*
X1055806Y-1748631D01*
X1055732Y-1747928D01*
X1055547Y-1746520D01*
X1055436Y-1745817D01*
X1055288Y-1745150D01*
X1055139Y-1744521D01*
X1054917Y-1743928D01*
X1054695Y-1743409D01*
X1054436Y-1742965D01*
Y-1742928D01*
X1054362Y-1742891D01*
X1054288Y-1742780D01*
X1054177Y-1742632D01*
X1053843Y-1742298D01*
X1053436Y-1741891D01*
X1052880Y-1741521D01*
X1052251Y-1741188D01*
X1051917Y-1741039D01*
X1051547Y-1740928D01*
X1051140Y-1740891D01*
X1050732Y-1740854D01*
D02*
G37*
G36*
X824168D02*
X823835D01*
X823576Y-1740891D01*
X823242Y-1740928D01*
X822909Y-1741002D01*
X822502Y-1741077D01*
X822057Y-1741151D01*
X821094Y-1741447D01*
X820576Y-1741669D01*
X820058Y-1741891D01*
X819502Y-1742187D01*
X818984Y-1742521D01*
X818465Y-1742891D01*
X817984Y-1743336D01*
X817947Y-1743372D01*
X817872Y-1743447D01*
X817761Y-1743595D01*
X817576Y-1743817D01*
X817391Y-1744076D01*
X817169Y-1744409D01*
X816947Y-1744817D01*
X816687Y-1745298D01*
X816465Y-1745817D01*
X816206Y-1746446D01*
X815984Y-1747113D01*
X815799Y-1747854D01*
X815613Y-1748668D01*
X815502Y-1749594D01*
X815428Y-1750557D01*
X815391Y-1751594D01*
Y-1751631D01*
Y-1751779D01*
Y-1752038D01*
X815428Y-1752372D01*
X815465Y-1752742D01*
X815539Y-1753186D01*
X815613Y-1753705D01*
X815688Y-1754223D01*
X815984Y-1755408D01*
X816206Y-1756001D01*
X816428Y-1756630D01*
X816724Y-1757223D01*
X817058Y-1757816D01*
X817428Y-1758371D01*
X817872Y-1758889D01*
X817910Y-1758927D01*
X817984Y-1759001D01*
X818132Y-1759149D01*
X818317Y-1759297D01*
X818576Y-1759519D01*
X818872Y-1759741D01*
X819206Y-1759963D01*
X819576Y-1760223D01*
X820021Y-1760482D01*
X820502Y-1760704D01*
X821020Y-1760926D01*
X821576Y-1761148D01*
X822168Y-1761297D01*
X822761Y-1761445D01*
X823428Y-1761519D01*
X824131Y-1761556D01*
X824316D01*
X824501Y-1761519D01*
X824761D01*
X825094Y-1761482D01*
X825464Y-1761408D01*
X825909Y-1761334D01*
X826353Y-1761223D01*
X826872Y-1761074D01*
X827353Y-1760889D01*
X827908Y-1760704D01*
X828427Y-1760445D01*
X828945Y-1760112D01*
X829464Y-1759778D01*
X829982Y-1759371D01*
X830464Y-1758889D01*
X830501Y-1758852D01*
X830575Y-1758778D01*
X830686Y-1758593D01*
X830871Y-1758371D01*
X831056Y-1758112D01*
X831242Y-1757778D01*
X831464Y-1757371D01*
X831723Y-1756927D01*
X831945Y-1756408D01*
X832167Y-1755816D01*
X832353Y-1755186D01*
X832575Y-1754520D01*
X832723Y-1753779D01*
X832834Y-1752964D01*
X832908Y-1752112D01*
X832945Y-1751223D01*
Y-1751187D01*
Y-1751075D01*
Y-1750927D01*
Y-1750705D01*
X832908Y-1750446D01*
Y-1750113D01*
X832871Y-1749779D01*
X832797Y-1749372D01*
X832686Y-1748520D01*
X832501Y-1747631D01*
X832241Y-1746669D01*
X831871Y-1745780D01*
Y-1745743D01*
X831834Y-1745669D01*
X831760Y-1745558D01*
X831686Y-1745409D01*
X831427Y-1744965D01*
X831093Y-1744447D01*
X830649Y-1743854D01*
X830094Y-1743261D01*
X829464Y-1742669D01*
X828760Y-1742150D01*
X828723D01*
X828686Y-1742076D01*
X828575Y-1742039D01*
X828390Y-1741928D01*
X828205Y-1741854D01*
X827983Y-1741743D01*
X827427Y-1741484D01*
X826760Y-1741262D01*
X825983Y-1741039D01*
X825094Y-1740891D01*
X824168Y-1740854D01*
D02*
G37*
G36*
X739348Y-1813725D02*
X731275D01*
Y-1822205D01*
X738904D01*
X739348Y-1822168D01*
X739867Y-1822131D01*
X740459Y-1822094D01*
X741052Y-1822020D01*
X741644Y-1821909D01*
X742163Y-1821761D01*
X742237Y-1821724D01*
X742385Y-1821650D01*
X742607Y-1821539D01*
X742904Y-1821391D01*
X743237Y-1821168D01*
X743570Y-1820909D01*
X743903Y-1820576D01*
X744163Y-1820205D01*
X744200Y-1820168D01*
X744274Y-1820020D01*
X744385Y-1819798D01*
X744533Y-1819502D01*
X744644Y-1819169D01*
X744755Y-1818798D01*
X744829Y-1818354D01*
X744866Y-1817909D01*
Y-1817872D01*
Y-1817835D01*
X744829Y-1817613D01*
X744792Y-1817280D01*
X744718Y-1816835D01*
X744533Y-1816391D01*
X744311Y-1815872D01*
X743978Y-1815391D01*
X743533Y-1814910D01*
X743459Y-1814873D01*
X743274Y-1814724D01*
X742978Y-1814539D01*
X742496Y-1814317D01*
X741941Y-1814095D01*
X741200Y-1813910D01*
X740348Y-1813762D01*
X739348Y-1813725D01*
D02*
G37*
G36*
X702722Y-1813539D02*
Y-1813577D01*
X702685Y-1813651D01*
Y-1813799D01*
X702611Y-1813947D01*
X702574Y-1814206D01*
X702500Y-1814465D01*
X702352Y-1815095D01*
X702167Y-1815836D01*
X701908Y-1816650D01*
X701648Y-1817539D01*
X701315Y-1818465D01*
X698538Y-1825945D01*
X707204D01*
X704537Y-1818909D01*
Y-1818872D01*
X704500Y-1818761D01*
X704426Y-1818576D01*
X704352Y-1818354D01*
X704241Y-1818094D01*
X704130Y-1817761D01*
X704019Y-1817391D01*
X703870Y-1817021D01*
X703574Y-1816169D01*
X703278Y-1815280D01*
X702982Y-1814391D01*
X702722Y-1813539D01*
D02*
G37*
G36*
X654950D02*
Y-1813577D01*
X654913Y-1813651D01*
Y-1813799D01*
X654839Y-1813947D01*
X654801Y-1814206D01*
X654727Y-1814465D01*
X654579Y-1815095D01*
X654394Y-1815836D01*
X654135Y-1816650D01*
X653876Y-1817539D01*
X653542Y-1818465D01*
X650765Y-1825945D01*
X659431D01*
X656764Y-1818909D01*
Y-1818872D01*
X656727Y-1818761D01*
X656653Y-1818576D01*
X656579Y-1818354D01*
X656468Y-1818094D01*
X656357Y-1817761D01*
X656246Y-1817391D01*
X656098Y-1817021D01*
X655801Y-1816169D01*
X655505Y-1815280D01*
X655209Y-1814391D01*
X654950Y-1813539D01*
D02*
G37*
%LPD*%
D13*
X1126329Y-1662339D02*
X1122997Y-1659006D01*
X1116332D01*
X1113000Y-1662339D01*
Y-1675668D01*
X1116332Y-1679000D01*
X1122997D01*
X1126329Y-1675668D01*
X1132993Y-1659006D02*
X1139658D01*
X1136326D01*
Y-1679000D01*
X1132993D01*
X1139658D01*
X1170927Y-1837070D02*
X1163309Y-1817074D01*
X1155692Y-1837070D01*
X1158549Y-1830405D02*
X1168070D01*
X1185114Y-1817074D02*
X1175592Y-1830405D01*
X1189875D01*
X1185114Y-1817074D02*
Y-1837070D01*
X591750Y-1588806D02*
Y-1602135D01*
X598414Y-1608800D01*
X605079Y-1602135D01*
Y-1588806D01*
X611744Y-1608800D02*
Y-1605468D01*
X615076D01*
Y-1608800D01*
X611744D01*
X648398Y-1588806D02*
Y-1608800D01*
X661727D01*
X678389D02*
X671724D01*
X668392Y-1605468D01*
Y-1598803D01*
X671724Y-1595471D01*
X678389D01*
X681721Y-1598803D01*
Y-1602135D01*
X668392D01*
X701714Y-1595471D02*
X691718D01*
X688385Y-1598803D01*
Y-1605468D01*
X691718Y-1608800D01*
X701714D01*
X708379Y-1595471D02*
Y-1605468D01*
X711711Y-1608800D01*
X721708D01*
Y-1595471D01*
X728373Y-1608800D02*
Y-1595471D01*
X738369D01*
X741702Y-1598803D01*
Y-1608800D01*
X751698D02*
Y-1592139D01*
Y-1598803D01*
X748366D01*
X755031D01*
X751698D01*
Y-1592139D01*
X755031Y-1588806D01*
X768360Y-1608800D02*
Y-1592139D01*
Y-1598803D01*
X765027D01*
X771692D01*
X768360D01*
Y-1592139D01*
X771692Y-1588806D01*
X113000D02*
Y-1608800D01*
X126329D01*
X152987Y-1588806D02*
Y-1608800D01*
X166316D01*
X176313Y-1595471D02*
X182978D01*
X186310Y-1598803D01*
Y-1608800D01*
X176313D01*
X172981Y-1605468D01*
X176313Y-1602135D01*
X186310D01*
X192974Y-1608800D02*
Y-1595471D01*
X202971D01*
X206303Y-1598803D01*
Y-1608800D01*
X212968D02*
Y-1595471D01*
X222965D01*
X226297Y-1598803D01*
Y-1608800D01*
X232961Y-1595471D02*
Y-1605468D01*
X236294Y-1608800D01*
X246290D01*
Y-1595471D01*
X252955D02*
X266284D01*
X252955Y-1608800D01*
X266284D01*
X282945D02*
X276281D01*
X272948Y-1605468D01*
Y-1598803D01*
X276281Y-1595471D01*
X282945D01*
X286278Y-1598803D01*
Y-1602135D01*
X272948D01*
X292942Y-1608800D02*
X299606D01*
X296274D01*
Y-1588806D01*
X292942D01*
X1044202Y-1593565D02*
Y-1592613D01*
X1045154Y-1590709D01*
X1046106Y-1589756D01*
X1048011Y-1588804D01*
X1051820D01*
X1053724Y-1589756D01*
X1054676Y-1590709D01*
X1055628Y-1592613D01*
Y-1594517D01*
X1054676Y-1596422D01*
X1052772Y-1599278D01*
X1043250Y-1608800D01*
X1056581D01*
X1062960Y-1588804D02*
X1073434D01*
X1067721Y-1596422D01*
X1070577D01*
X1072482Y-1597374D01*
X1073434Y-1598326D01*
X1074386Y-1601183D01*
Y-1603087D01*
X1073434Y-1605943D01*
X1071530Y-1607848D01*
X1068673Y-1608800D01*
X1065817D01*
X1062960Y-1607848D01*
X1062008Y-1606896D01*
X1061056Y-1604991D01*
X1078861Y-1611656D02*
X1092192Y-1588804D01*
X1099238D02*
X1096382Y-1589756D01*
X1094477Y-1592613D01*
X1093525Y-1597374D01*
Y-1600230D01*
X1094477Y-1604991D01*
X1096382Y-1607848D01*
X1099238Y-1608800D01*
X1101142D01*
X1103999Y-1607848D01*
X1105903Y-1604991D01*
X1106855Y-1600230D01*
Y-1597374D01*
X1105903Y-1592613D01*
X1103999Y-1589756D01*
X1101142Y-1588804D01*
X1099238D01*
X1120853D02*
X1111331Y-1602135D01*
X1125613D01*
X1120853Y-1588804D02*
Y-1608800D01*
X1129137Y-1611656D02*
X1142467Y-1588804D01*
X1144752Y-1593565D02*
Y-1592613D01*
X1145704Y-1590709D01*
X1146656Y-1589756D01*
X1148561Y-1588804D01*
X1152370D01*
X1154274Y-1589756D01*
X1155226Y-1590709D01*
X1156178Y-1592613D01*
Y-1594517D01*
X1155226Y-1596422D01*
X1153322Y-1599278D01*
X1143800Y-1608800D01*
X1157131D01*
X1167319Y-1588804D02*
X1164462Y-1589756D01*
X1162558Y-1592613D01*
X1161606Y-1597374D01*
Y-1600230D01*
X1162558Y-1604991D01*
X1164462Y-1607848D01*
X1167319Y-1608800D01*
X1169223D01*
X1172080Y-1607848D01*
X1173984Y-1604991D01*
X1174936Y-1600230D01*
Y-1597374D01*
X1173984Y-1592613D01*
X1172080Y-1589756D01*
X1169223Y-1588804D01*
X1167319D01*
X1180364Y-1593565D02*
Y-1592613D01*
X1181316Y-1590709D01*
X1182268Y-1589756D01*
X1184172Y-1588804D01*
X1187981D01*
X1189885Y-1589756D01*
X1190838Y-1590709D01*
X1191790Y-1592613D01*
Y-1594517D01*
X1190838Y-1596422D01*
X1188933Y-1599278D01*
X1179411Y-1608800D01*
X1192742D01*
X1202930Y-1588804D02*
X1200074Y-1589756D01*
X1198169Y-1592613D01*
X1197217Y-1597374D01*
Y-1600230D01*
X1198169Y-1604991D01*
X1200074Y-1607848D01*
X1202930Y-1608800D01*
X1204835D01*
X1207691Y-1607848D01*
X1209595Y-1604991D01*
X1210548Y-1600230D01*
Y-1597374D01*
X1209595Y-1592613D01*
X1207691Y-1589756D01*
X1204835Y-1588804D01*
X1202930D01*
X1044000Y-1662813D02*
X1045904Y-1661861D01*
X1048761Y-1659004D01*
Y-1679000D01*
X1071994Y-1659004D02*
X1062472Y-1679000D01*
X1058663Y-1659004D02*
X1071994D01*
X1081230D02*
X1078374Y-1659956D01*
X1077421Y-1661861D01*
Y-1663765D01*
X1078374Y-1665670D01*
X1080278Y-1666622D01*
X1084087Y-1667574D01*
X1086943Y-1668526D01*
X1088848Y-1670430D01*
X1089800Y-1672335D01*
Y-1675191D01*
X1088848Y-1677096D01*
X1087895Y-1678048D01*
X1085039Y-1679000D01*
X1081230D01*
X1078374Y-1678048D01*
X1077421Y-1677096D01*
X1076469Y-1675191D01*
Y-1672335D01*
X1077421Y-1670430D01*
X1079326Y-1668526D01*
X1082182Y-1667574D01*
X1085991Y-1666622D01*
X1087895Y-1665670D01*
X1088848Y-1663765D01*
Y-1661861D01*
X1087895Y-1659956D01*
X1085039Y-1659004D01*
X1081230D01*
X1095227Y-1663765D02*
Y-1662813D01*
X1096179Y-1660909D01*
X1097132Y-1659956D01*
X1099036Y-1659004D01*
X1102845D01*
X1104749Y-1659956D01*
X1105701Y-1660909D01*
X1106653Y-1662813D01*
Y-1664717D01*
X1105701Y-1666622D01*
X1103797Y-1669478D01*
X1094275Y-1679000D01*
X1107606D01*
X1041900Y-1820313D02*
X1043804Y-1819361D01*
X1046661Y-1816504D01*
Y-1836500D01*
X1152000Y-1662339D02*
X1155332Y-1659006D01*
X1161997D01*
X1165329Y-1662339D01*
Y-1675668D01*
X1161997Y-1679000D01*
X1155332D01*
X1152000Y-1675668D01*
Y-1662339D01*
X1171993D02*
X1175326Y-1659006D01*
X1181990D01*
X1185323Y-1662339D01*
Y-1675668D01*
X1181990Y-1679000D01*
X1175326D01*
X1171993Y-1675668D01*
Y-1662339D01*
X1191987Y-1679000D02*
X1198652D01*
X1195319D01*
Y-1659006D01*
X1191987Y-1662339D01*
D14*
X457240Y-1768744D02*
G03*
X462940Y-1767426I43J12803D01*
G01*
Y-1767426D02*
G03*
X466557Y-1764658I-5175J10509D01*
G01*
D02*
G03*
X469114Y-1757993I-7530J6711D01*
G01*
Y-1729493D02*
G03*
X468359Y-1725714I-9831J3D01*
G01*
Y-1725714D02*
G03*
X466512Y-1722776I-9709J-4057D01*
G01*
Y-1722776D02*
G03*
X463354Y-1720275I-8711J-7754D01*
G01*
D02*
G03*
X457240Y-1718743I-6064J-11230D01*
G01*
X433488D02*
G03*
X427804Y-1720052I-43J-12807D01*
G01*
D02*
G03*
X424182Y-1722815I5160J-10519D01*
G01*
X424182D02*
G03*
X421614Y-1729493I7521J-6725D01*
G01*
Y-1757993D02*
G03*
X422362Y-1761756I9828J-2D01*
G01*
D02*
G03*
X424205Y-1764696I9712J4040D01*
G01*
D02*
G03*
X427343Y-1767194I8719J7736D01*
G01*
X427343Y-1767194D02*
G03*
X433488Y-1768744I6095J11207D01*
G01*
X431430Y-1728930D02*
G03*
X430863Y-1731243I4448J-2315D01*
G01*
X432363Y-1727638D02*
G03*
X431430Y-1728930I3931J-3821D01*
G01*
X433957Y-1726463D02*
G03*
X432363Y-1727638I2752J-5403D01*
G01*
X436988Y-1725744D02*
G03*
X433957Y-1726463I-25J-6640D01*
G01*
X457117Y-1726654D02*
G03*
X453922Y-1725746I-3340J-5674D01*
G01*
X458649Y-1727954D02*
G03*
X457117Y-1726654I-4552J-3812D01*
G01*
X459864Y-1731243D02*
G03*
X458649Y-1727954I-5118J-22D01*
G01*
X459302Y-1758548D02*
G03*
X459864Y-1756242I-4457J2308D01*
G01*
X458366Y-1759848D02*
G03*
X459302Y-1758548I-3932J3820D01*
G01*
X456763Y-1761028D02*
G03*
X458366Y-1759848I-2745J5407D01*
G01*
X453740Y-1761743D02*
G03*
X456763Y-1761028I25J6639D01*
G01*
X433603Y-1760827D02*
G03*
X436826Y-1761741I3348J5667D01*
G01*
X432073Y-1759525D02*
G03*
X433603Y-1760827I4558J3804D01*
G01*
X430863Y-1756242D02*
G03*
X432073Y-1759525I5121J22D01*
G01*
X457240Y-1768744D02*
G03*
X462940Y-1767426I43J12803D01*
G01*
Y-1767426D02*
G03*
X466557Y-1764658I-5175J10509D01*
G01*
D02*
G03*
X469114Y-1757993I-7530J6711D01*
G01*
Y-1729493D02*
G03*
X468359Y-1725714I-9831J3D01*
G01*
Y-1725714D02*
G03*
X466512Y-1722776I-9709J-4057D01*
G01*
Y-1722776D02*
G03*
X463354Y-1720275I-8711J-7754D01*
G01*
D02*
G03*
X457240Y-1718743I-6064J-11230D01*
G01*
X433488D02*
G03*
X427804Y-1720052I-43J-12807D01*
G01*
D02*
G03*
X424182Y-1722815I5160J-10519D01*
G01*
X424182D02*
G03*
X421614Y-1729493I7521J-6725D01*
G01*
Y-1757993D02*
G03*
X422362Y-1761756I9828J-2D01*
G01*
D02*
G03*
X424205Y-1764696I9712J4040D01*
G01*
D02*
G03*
X427343Y-1767194I8719J7736D01*
G01*
X427343Y-1767194D02*
G03*
X433488Y-1768744I6095J11207D01*
G01*
X431430Y-1728930D02*
G03*
X430863Y-1731243I4448J-2315D01*
G01*
X432363Y-1727638D02*
G03*
X431430Y-1728930I3931J-3821D01*
G01*
X433957Y-1726463D02*
G03*
X432363Y-1727638I2752J-5403D01*
G01*
X436988Y-1725744D02*
G03*
X433957Y-1726463I-25J-6640D01*
G01*
X457117Y-1726654D02*
G03*
X453922Y-1725746I-3340J-5674D01*
G01*
X458649Y-1727954D02*
G03*
X457117Y-1726654I-4552J-3812D01*
G01*
X459864Y-1731243D02*
G03*
X458649Y-1727954I-5118J-22D01*
G01*
X459302Y-1758548D02*
G03*
X459864Y-1756242I-4457J2308D01*
G01*
X458366Y-1759848D02*
G03*
X459302Y-1758548I-3932J3820D01*
G01*
X456763Y-1761028D02*
G03*
X458366Y-1759848I-2745J5407D01*
G01*
X453740Y-1761743D02*
G03*
X456763Y-1761028I25J6639D01*
G01*
X433603Y-1760827D02*
G03*
X436826Y-1761741I3348J5667D01*
G01*
X432073Y-1759525D02*
G03*
X433603Y-1760827I4558J3804D01*
G01*
X430863Y-1756242D02*
G03*
X432073Y-1759525I5121J22D01*
G01*
X262437Y-1768740D02*
G03*
X268121Y-1767431I42J12808D01*
G01*
Y-1767431D02*
G03*
X271744Y-1764668I-5161J10521D01*
G01*
X271744D02*
G03*
X274312Y-1757990I-7520J6725D01*
G01*
Y-1729490D02*
G03*
X273551Y-1725695I-9828J2D01*
G01*
D02*
G03*
X271710Y-1722774I-9704J-4075D01*
G01*
Y-1722774D02*
G03*
X268567Y-1720281I-8710J-7754D01*
G01*
X268567D02*
G03*
X262437Y-1718740I-6080J-11221D01*
G01*
X238686D02*
G03*
X232969Y-1720065I-43J-12805D01*
G01*
X232969D02*
G03*
X229368Y-1722825I5189J-10499D01*
G01*
X229368D02*
G03*
X226812Y-1729490I7528J-6711D01*
G01*
Y-1757990D02*
G03*
X227573Y-1761785I9831J-2D01*
G01*
X227573Y-1761785D02*
G03*
X229425Y-1764720I9706J4076D01*
G01*
D02*
G03*
X232572Y-1767208I8701J7770D01*
G01*
Y-1767208D02*
G03*
X238686Y-1768740I6065J11231D01*
G01*
X236628Y-1728927D02*
G03*
X236061Y-1731240I4450J-2315D01*
G01*
X237560Y-1727635D02*
G03*
X236628Y-1728927I3932J-3821D01*
G01*
X239163Y-1726456D02*
G03*
X237560Y-1727635I2745J-5408D01*
G01*
X242185Y-1725740D02*
G03*
X239163Y-1726456I-24J-6639D01*
G01*
X262323Y-1726656D02*
G03*
X259110Y-1725742I-3348J-5668D01*
G01*
X263852Y-1727958D02*
G03*
X262323Y-1726656I-4557J-3805D01*
G01*
X265062Y-1731240D02*
G03*
X263852Y-1727958I-5118J-22D01*
G01*
X264500Y-1758545D02*
G03*
X265062Y-1756240I-4452J2307D01*
G01*
X263569Y-1759838D02*
G03*
X264500Y-1758545I-3937J3814D01*
G01*
X261977Y-1761016D02*
G03*
X263569Y-1759838I-2760J5398D01*
G01*
X258938Y-1761740D02*
G03*
X261977Y-1761016I25J6637D01*
G01*
X238793Y-1760819D02*
G03*
X242013Y-1761738I3356J5660D01*
G01*
X237265Y-1759515D02*
G03*
X238793Y-1760819I4562J3796D01*
G01*
X236061Y-1756240D02*
G03*
X237265Y-1759515I5117J22D01*
G01*
X262437Y-1768740D02*
G03*
X268121Y-1767431I42J12808D01*
G01*
Y-1767431D02*
G03*
X271744Y-1764668I-5161J10521D01*
G01*
X271744D02*
G03*
X274312Y-1757990I-7520J6725D01*
G01*
Y-1729490D02*
G03*
X273551Y-1725695I-9828J2D01*
G01*
D02*
G03*
X271710Y-1722774I-9704J-4075D01*
G01*
Y-1722774D02*
G03*
X268567Y-1720281I-8710J-7754D01*
G01*
X268567D02*
G03*
X262437Y-1718740I-6080J-11221D01*
G01*
X238686D02*
G03*
X232969Y-1720065I-43J-12805D01*
G01*
X232969D02*
G03*
X229368Y-1722825I5189J-10499D01*
G01*
X229368D02*
G03*
X226812Y-1729490I7528J-6711D01*
G01*
Y-1757990D02*
G03*
X227573Y-1761785I9831J-2D01*
G01*
X227573Y-1761785D02*
G03*
X229425Y-1764720I9706J4076D01*
G01*
D02*
G03*
X232572Y-1767208I8701J7770D01*
G01*
Y-1767208D02*
G03*
X238686Y-1768740I6065J11231D01*
G01*
X236628Y-1728927D02*
G03*
X236061Y-1731240I4450J-2315D01*
G01*
X237560Y-1727635D02*
G03*
X236628Y-1728927I3932J-3821D01*
G01*
X239163Y-1726456D02*
G03*
X237560Y-1727635I2745J-5408D01*
G01*
X242185Y-1725740D02*
G03*
X239163Y-1726456I-24J-6639D01*
G01*
X262323Y-1726656D02*
G03*
X259110Y-1725742I-3348J-5668D01*
G01*
X263852Y-1727958D02*
G03*
X262323Y-1726656I-4557J-3805D01*
G01*
X265062Y-1731240D02*
G03*
X263852Y-1727958I-5118J-22D01*
G01*
X264500Y-1758545D02*
G03*
X265062Y-1756240I-4452J2307D01*
G01*
X263569Y-1759838D02*
G03*
X264500Y-1758545I-3937J3814D01*
G01*
X261977Y-1761016D02*
G03*
X263569Y-1759838I-2760J5398D01*
G01*
X258938Y-1761740D02*
G03*
X261977Y-1761016I25J6637D01*
G01*
X238793Y-1760819D02*
G03*
X242013Y-1761738I3356J5660D01*
G01*
X237265Y-1759515D02*
G03*
X238793Y-1760819I4562J3796D01*
G01*
X236061Y-1756240D02*
G03*
X237265Y-1759515I5117J22D01*
G01*
X378439Y-1728912D02*
G03*
X377865Y-1731240I4441J-2330D01*
G01*
X379376Y-1727623D02*
G03*
X378439Y-1728912I3923J-3836D01*
G01*
X380983Y-1726448D02*
G03*
X379376Y-1727623I2731J-5421D01*
G01*
X383990Y-1725741D02*
G03*
X380983Y-1726448I-24J-6645D01*
G01*
X380489Y-1718740D02*
G03*
X374805Y-1720049I-43J-12808D01*
G01*
X374805Y-1720049D02*
G03*
X371183Y-1722813I5160J-10520D01*
G01*
X371183Y-1722813D02*
G03*
X368615Y-1729490I7520J-6725D01*
G01*
X368615Y-1757990D02*
G03*
X369376Y-1761785I9832J-2D01*
G01*
X369376D02*
G03*
X371228Y-1764720I9706J4075D01*
G01*
Y-1764720D02*
G03*
X374375Y-1767208I8701J7769D01*
G01*
D02*
G03*
X380489Y-1768740I6065J11232D01*
G01*
X380589Y-1760815D02*
G03*
X383778Y-1761737I3363J5654D01*
G01*
X379069Y-1759515D02*
G03*
X380589Y-1760815I4560J3794D01*
G01*
X377865Y-1756240D02*
G03*
X379069Y-1759515I5117J22D01*
G01*
X378439Y-1728912D02*
G03*
X377865Y-1731240I4441J-2330D01*
G01*
X379376Y-1727623D02*
G03*
X378439Y-1728912I3923J-3836D01*
G01*
X380983Y-1726448D02*
G03*
X379376Y-1727623I2731J-5421D01*
G01*
X383990Y-1725741D02*
G03*
X380983Y-1726448I-24J-6645D01*
G01*
X380489Y-1718740D02*
G03*
X374805Y-1720049I-43J-12808D01*
G01*
X374805Y-1720049D02*
G03*
X371183Y-1722813I5160J-10520D01*
G01*
X371183Y-1722813D02*
G03*
X368615Y-1729490I7520J-6725D01*
G01*
X368615Y-1757990D02*
G03*
X369376Y-1761785I9832J-2D01*
G01*
X369376D02*
G03*
X371228Y-1764720I9706J4075D01*
G01*
Y-1764720D02*
G03*
X374375Y-1767208I8701J7769D01*
G01*
D02*
G03*
X380489Y-1768740I6065J11232D01*
G01*
X380589Y-1760815D02*
G03*
X383778Y-1761737I3363J5654D01*
G01*
X379069Y-1759515D02*
G03*
X380589Y-1760815I4560J3794D01*
G01*
X377865Y-1756240D02*
G03*
X379069Y-1759515I5117J22D01*
G01*
X325216Y-1753587D02*
G03*
X325329Y-1753448I-221J294D01*
G01*
X325186Y-1753608D02*
G03*
X325216Y-1753587I-209J338D01*
G01*
X325038Y-1753665D02*
G03*
X325186Y-1753608I-81J427D01*
G01*
X324721Y-1753658D02*
G03*
X324777Y-1753670I110J382D01*
G01*
X324653Y-1753630D02*
G03*
X324721Y-1753658I156J283D01*
G01*
X293540Y-1719363D02*
G03*
X292959Y-1719061I-1924J-2991D01*
G01*
X292540Y-1718920D02*
G03*
X292021Y-1718810I-1200J-4390D01*
G01*
X295381Y-1734350D02*
G03*
X295381Y-1734352I3598365J-2D01*
G01*
Y-1734348D02*
G03*
X295381Y-1734350I105918J-2D01*
G01*
X295431Y-1734034D02*
G03*
X295397Y-1734121I304J-169D01*
G01*
X295548Y-1733903D02*
G03*
X295431Y-1734034I241J-333D01*
G01*
X295636Y-1733856D02*
G03*
X295548Y-1733903I124J-336D01*
G01*
X296040Y-1733844D02*
G03*
X295978Y-1733832I-109J-383D01*
G01*
X296115Y-1733876D02*
G03*
X296040Y-1733844I-164J-288D01*
G01*
X327216Y-1768115D02*
G03*
X327816Y-1768425I1924J2981D01*
G01*
X328223Y-1768561D02*
G03*
X328742Y-1768670I1200J4403D01*
G01*
X205490Y-1747236D02*
G03*
X211206Y-1745910I43J12803D01*
G01*
D02*
G03*
X214807Y-1743150I-5190J10501D01*
G01*
X214807Y-1743150D02*
G03*
X217364Y-1736485I-7529J6712D01*
G01*
Y-1729490D02*
G03*
X216603Y-1725695I-9830J2D01*
G01*
X216603D02*
G03*
X214762Y-1722774I-9704J-4075D01*
G01*
Y-1722774D02*
G03*
X211619Y-1720281I-8711J-7754D01*
G01*
D02*
G03*
X205490Y-1718740I-6080J-11221D01*
G01*
X175864Y-1718740D02*
G03*
X173376Y-1719622I-21J-3891D01*
G01*
X173376D02*
G03*
X172114Y-1722240I2134J-2642D01*
G01*
X194020Y-1747547D02*
G03*
X191984Y-1747236I-2025J-6439D01*
G01*
X196289Y-1748822D02*
G03*
X194020Y-1747547I-4136J-4701D01*
G01*
X197420Y-1750197D02*
G03*
X196289Y-1748822I-4832J-2822D01*
G01*
X183364Y-1725741D02*
G03*
X182146Y-1726128I-9J-2079D01*
G01*
X182146D02*
G03*
X181364Y-1727616I1051J-1502D01*
G01*
X202172Y-1740232D02*
G03*
X205383Y-1739315I-144J6581D01*
G01*
X205383Y-1739315D02*
G03*
X206905Y-1738017I-3034J5101D01*
G01*
D02*
G03*
X208115Y-1734735I-3907J3304D01*
G01*
Y-1731241D02*
G03*
X207549Y-1728928I-5015J-2D01*
G01*
X207549D02*
G03*
X206616Y-1727636I-4864J-2529D01*
G01*
X206616Y-1727636D02*
G03*
X205021Y-1726461I-4347J-4229D01*
G01*
Y-1726461D02*
G03*
X201990Y-1725741I-3007J-5920D01*
G01*
X205490Y-1747236D02*
G03*
X211206Y-1745910I43J12803D01*
G01*
D02*
G03*
X214807Y-1743150I-5190J10501D01*
G01*
X214807Y-1743150D02*
G03*
X217364Y-1736485I-7529J6712D01*
G01*
Y-1729490D02*
G03*
X216603Y-1725695I-9830J2D01*
G01*
X216603D02*
G03*
X214762Y-1722774I-9704J-4075D01*
G01*
Y-1722774D02*
G03*
X211619Y-1720281I-8711J-7754D01*
G01*
D02*
G03*
X205490Y-1718740I-6080J-11221D01*
G01*
X175864Y-1718740D02*
G03*
X173376Y-1719622I-21J-3891D01*
G01*
X173376D02*
G03*
X172114Y-1722240I2134J-2642D01*
G01*
X194020Y-1747547D02*
G03*
X191984Y-1747236I-2025J-6439D01*
G01*
X196289Y-1748822D02*
G03*
X194020Y-1747547I-4136J-4701D01*
G01*
X197420Y-1750197D02*
G03*
X196289Y-1748822I-4832J-2822D01*
G01*
X183364Y-1725741D02*
G03*
X182146Y-1726128I-9J-2079D01*
G01*
X182146D02*
G03*
X181364Y-1727616I1051J-1502D01*
G01*
X202172Y-1740232D02*
G03*
X205383Y-1739315I-144J6581D01*
G01*
X205383Y-1739315D02*
G03*
X206905Y-1738017I-3034J5101D01*
G01*
D02*
G03*
X208115Y-1734735I-3907J3304D01*
G01*
Y-1731241D02*
G03*
X207549Y-1728928I-5015J-2D01*
G01*
X207549D02*
G03*
X206616Y-1727636I-4864J-2529D01*
G01*
X206616Y-1727636D02*
G03*
X205021Y-1726461I-4347J-4229D01*
G01*
Y-1726461D02*
G03*
X201990Y-1725741I-3007J-5920D01*
G01*
X454954Y-1788469D02*
G03*
X454839Y-1788368I-988J-1013D01*
G01*
D02*
G03*
X454695Y-1788268I-960J-1226D01*
G01*
Y-1788268D02*
G03*
X454504Y-1788166I-900J-1460D01*
G01*
X454504Y-1788166D02*
G03*
X454217Y-1788063I-780J-1722D01*
G01*
Y-1788063D02*
G03*
X453671Y-1787992I-542J-2015D01*
G01*
X455291Y-1793443D02*
G03*
X455291Y-1793449I255J-5D01*
G01*
X455295Y-1793404D02*
G03*
X455292Y-1793423I211J-41D01*
G01*
X455299Y-1793387D02*
G03*
X455295Y-1793404I185J-55D01*
G01*
X455306Y-1793369D02*
G03*
X455299Y-1793387I160J-67D01*
G01*
X455370Y-1793297D02*
G03*
X455306Y-1793369I66J-124D01*
G01*
X455387Y-1793290D02*
G03*
X455370Y-1793297I56J-144D01*
G01*
X455401Y-1793285D02*
G03*
X455387Y-1793290I48J-164D01*
G01*
X466143Y-1805032D02*
G03*
X466263Y-1805134I980J1035D01*
G01*
Y-1805134D02*
G03*
X466413Y-1805234I947J1252D01*
G01*
D02*
G03*
X466609Y-1805333I878J1490D01*
G01*
D02*
G03*
X466895Y-1805430I751J1751D01*
G01*
X466895Y-1805430D02*
G03*
X467409Y-1805493I510J2039D01*
G01*
X465782Y-1800096D02*
G03*
X465786Y-1800079I-190J53D01*
G01*
X465777Y-1800112D02*
G03*
X465782Y-1800096I-165J64D01*
G01*
X465768Y-1800130D02*
G03*
X465777Y-1800112I-140J75D01*
G01*
X465731Y-1800174D02*
G03*
X465768Y-1800130I-85J109D01*
G01*
X465708Y-1800189D02*
G03*
X465731Y-1800174I-63J127D01*
G01*
X465692Y-1800196D02*
G03*
X465708Y-1800189I-54J147D01*
G01*
X394766Y-1804268D02*
G03*
X394898Y-1804804I1154J-0D01*
G01*
X394898Y-1804804D02*
G03*
X395255Y-1805222I1104J581D01*
G01*
X395255D02*
G03*
X396077Y-1805493I816J1095D01*
G01*
X398332Y-1802961D02*
G03*
X398677Y-1803043I342J672D01*
G01*
X398123Y-1802798D02*
G03*
X398332Y-1802961I521J450D01*
G01*
X397977Y-1802409D02*
G03*
X398123Y-1802798I594J3D01*
G01*
X433328Y-1787992D02*
G03*
X432473Y-1788287I-7J-1362D01*
G01*
D02*
G03*
X432015Y-1789218I734J-940D01*
G01*
X432015Y-1804268D02*
G03*
X432153Y-1804816I1154J-0D01*
G01*
D02*
G03*
X432517Y-1805231I1100J595D01*
G01*
X432517Y-1805231D02*
G03*
X433328Y-1805493I804J1107D01*
G01*
X435608Y-1802961D02*
G03*
X435953Y-1803043I342J672D01*
G01*
X435399Y-1802798D02*
G03*
X435608Y-1802961I521J450D01*
G01*
X435253Y-1802409D02*
G03*
X435399Y-1802798I594J3D01*
G01*
X435295Y-1790858D02*
G03*
X435253Y-1791077I536J-219D01*
G01*
X435403Y-1790685D02*
G03*
X435295Y-1790858I466J-408D01*
G01*
X435587Y-1790536D02*
G03*
X435403Y-1790685I333J-601D01*
G01*
X435953Y-1790443D02*
G03*
X435587Y-1790536I-3J-752D01*
G01*
X416028Y-1791553D02*
G03*
X415827Y-1792369I1557J-816D01*
G01*
X416361Y-1791097D02*
G03*
X416028Y-1791553I1370J-1347D01*
G01*
X416927Y-1790686D02*
G03*
X416361Y-1791097I948J-1902D01*
G01*
X417971Y-1790443D02*
G03*
X416927Y-1790686I-9J-2327D01*
G01*
X416745Y-1787992D02*
G03*
X414694Y-1788481I-16J-4475D01*
G01*
Y-1788481D02*
G03*
X413460Y-1789450I1861J-3642D01*
G01*
X413460Y-1789449D02*
G03*
X412589Y-1791754I2654J-2320D01*
G01*
Y-1801731D02*
G03*
X412858Y-1803064I3439J-1D01*
G01*
Y-1803064D02*
G03*
X413500Y-1804081I3395J1433D01*
G01*
Y-1804081D02*
G03*
X414594Y-1804950I3048J2714D01*
G01*
Y-1804950D02*
G03*
X416745Y-1805493I2134J3925D01*
G01*
X416783Y-1802721D02*
G03*
X417914Y-1803043I1175J1981D01*
G01*
X416247Y-1802262D02*
G03*
X416783Y-1802721I1599J1326D01*
G01*
X415827Y-1801117D02*
G03*
X416247Y-1802262I1792J8D01*
G01*
X386069Y-1790757D02*
G03*
X384951Y-1790443I-1161J-1994D01*
G01*
X386608Y-1791209D02*
G03*
X386069Y-1790757I-1589J-1344D01*
G01*
X387039Y-1792369D02*
G03*
X386608Y-1791209I-1794J-8D01*
G01*
X390276Y-1791755D02*
G03*
X390023Y-1790460I-3440J1D01*
G01*
D02*
G03*
X389381Y-1789423I-3405J-1389D01*
G01*
Y-1789422D02*
G03*
X388282Y-1788541I-3063J-2691D01*
G01*
Y-1788540D02*
G03*
X386120Y-1787992I-2144J-3913D01*
G01*
X454954Y-1788469D02*
G03*
X454839Y-1788368I-988J-1013D01*
G01*
D02*
G03*
X454695Y-1788268I-960J-1226D01*
G01*
Y-1788268D02*
G03*
X454504Y-1788166I-900J-1460D01*
G01*
X454504Y-1788166D02*
G03*
X454217Y-1788063I-780J-1722D01*
G01*
Y-1788063D02*
G03*
X453671Y-1787992I-542J-2015D01*
G01*
X455291Y-1793443D02*
G03*
X455291Y-1793449I255J-5D01*
G01*
X455295Y-1793404D02*
G03*
X455292Y-1793423I211J-41D01*
G01*
X455299Y-1793387D02*
G03*
X455295Y-1793404I185J-55D01*
G01*
X455306Y-1793369D02*
G03*
X455299Y-1793387I160J-67D01*
G01*
X455370Y-1793297D02*
G03*
X455306Y-1793369I66J-124D01*
G01*
X455387Y-1793290D02*
G03*
X455370Y-1793297I56J-144D01*
G01*
X455401Y-1793285D02*
G03*
X455387Y-1793290I48J-164D01*
G01*
X466143Y-1805032D02*
G03*
X466263Y-1805134I980J1035D01*
G01*
Y-1805134D02*
G03*
X466413Y-1805234I947J1252D01*
G01*
D02*
G03*
X466609Y-1805333I878J1490D01*
G01*
D02*
G03*
X466895Y-1805430I751J1751D01*
G01*
X466895Y-1805430D02*
G03*
X467409Y-1805493I510J2039D01*
G01*
X465782Y-1800096D02*
G03*
X465786Y-1800079I-190J53D01*
G01*
X465777Y-1800112D02*
G03*
X465782Y-1800096I-165J64D01*
G01*
X465768Y-1800130D02*
G03*
X465777Y-1800112I-140J75D01*
G01*
X465731Y-1800174D02*
G03*
X465768Y-1800130I-85J109D01*
G01*
X465708Y-1800189D02*
G03*
X465731Y-1800174I-63J127D01*
G01*
X465692Y-1800196D02*
G03*
X465708Y-1800189I-54J147D01*
G01*
X394766Y-1804268D02*
G03*
X394898Y-1804804I1154J-0D01*
G01*
X394898Y-1804804D02*
G03*
X395255Y-1805222I1104J581D01*
G01*
X395255D02*
G03*
X396077Y-1805493I816J1095D01*
G01*
X398332Y-1802961D02*
G03*
X398677Y-1803043I342J672D01*
G01*
X398123Y-1802798D02*
G03*
X398332Y-1802961I521J450D01*
G01*
X397977Y-1802409D02*
G03*
X398123Y-1802798I594J3D01*
G01*
X433328Y-1787992D02*
G03*
X432473Y-1788287I-7J-1362D01*
G01*
D02*
G03*
X432015Y-1789218I734J-940D01*
G01*
X432015Y-1804268D02*
G03*
X432153Y-1804816I1154J-0D01*
G01*
D02*
G03*
X432517Y-1805231I1100J595D01*
G01*
X432517Y-1805231D02*
G03*
X433328Y-1805493I804J1107D01*
G01*
X435608Y-1802961D02*
G03*
X435953Y-1803043I342J672D01*
G01*
X435399Y-1802798D02*
G03*
X435608Y-1802961I521J450D01*
G01*
X435253Y-1802409D02*
G03*
X435399Y-1802798I594J3D01*
G01*
X435295Y-1790858D02*
G03*
X435253Y-1791077I536J-219D01*
G01*
X435403Y-1790685D02*
G03*
X435295Y-1790858I466J-408D01*
G01*
X435587Y-1790536D02*
G03*
X435403Y-1790685I333J-601D01*
G01*
X435953Y-1790443D02*
G03*
X435587Y-1790536I-3J-752D01*
G01*
X416028Y-1791553D02*
G03*
X415827Y-1792369I1557J-816D01*
G01*
X416361Y-1791097D02*
G03*
X416028Y-1791553I1370J-1347D01*
G01*
X416927Y-1790686D02*
G03*
X416361Y-1791097I948J-1902D01*
G01*
X417971Y-1790443D02*
G03*
X416927Y-1790686I-9J-2327D01*
G01*
X416745Y-1787992D02*
G03*
X414694Y-1788481I-16J-4475D01*
G01*
Y-1788481D02*
G03*
X413460Y-1789450I1861J-3642D01*
G01*
X413460Y-1789449D02*
G03*
X412589Y-1791754I2654J-2320D01*
G01*
Y-1801731D02*
G03*
X412858Y-1803064I3439J-1D01*
G01*
Y-1803064D02*
G03*
X413500Y-1804081I3395J1433D01*
G01*
Y-1804081D02*
G03*
X414594Y-1804950I3048J2714D01*
G01*
Y-1804950D02*
G03*
X416745Y-1805493I2134J3925D01*
G01*
X416783Y-1802721D02*
G03*
X417914Y-1803043I1175J1981D01*
G01*
X416247Y-1802262D02*
G03*
X416783Y-1802721I1599J1326D01*
G01*
X415827Y-1801117D02*
G03*
X416247Y-1802262I1792J8D01*
G01*
X386069Y-1790757D02*
G03*
X384951Y-1790443I-1161J-1994D01*
G01*
X386608Y-1791209D02*
G03*
X386069Y-1790757I-1589J-1344D01*
G01*
X387039Y-1792369D02*
G03*
X386608Y-1791209I-1794J-8D01*
G01*
X390276Y-1791755D02*
G03*
X390023Y-1790460I-3440J1D01*
G01*
D02*
G03*
X389381Y-1789423I-3405J-1389D01*
G01*
Y-1789422D02*
G03*
X388282Y-1788541I-3063J-2691D01*
G01*
Y-1788540D02*
G03*
X386120Y-1787992I-2144J-3913D01*
G01*
X190910Y362713D02*
G03*
X197314Y359716I4701J1704D01*
G01*
X367012Y421222D02*
G03*
X370009Y427626I-1704J4701D01*
G01*
X351778Y477924D02*
G03*
X345374Y480921I-4701J-1704D01*
G01*
X175676Y419415D02*
G03*
X172679Y413011I1704J-4701D01*
G01*
X453740Y-1725743D02*
X453922Y-1725746D01*
X436826Y-1761741D02*
X436988Y-1761743D01*
X453740Y-1725743D02*
X453922Y-1725746D01*
X436826Y-1761741D02*
X436988Y-1761743D01*
X258938Y-1725740D02*
X259110Y-1725742D01*
X242013Y-1761738D02*
X242185Y-1761740D01*
X258938Y-1725740D02*
X259110Y-1725742D01*
X242013Y-1761738D02*
X242185Y-1761740D01*
X383778Y-1761737D02*
X383990Y-1761740D01*
X383778Y-1761737D02*
X383990Y-1761740D01*
X325380Y-1753211D02*
X325381Y-1753176D01*
X325378Y-1753244D02*
X325380Y-1753211D01*
X325375Y-1753279D02*
X325378Y-1753244D01*
X325370Y-1753312D02*
X325375Y-1753279D01*
X325364Y-1753345D02*
X325370Y-1753312D01*
X325355Y-1753378D02*
X325364Y-1753345D01*
X325344Y-1753412D02*
X325355Y-1753378D01*
X325329Y-1753448D02*
X325344Y-1753412D01*
X325010Y-1753670D02*
X325038Y-1753665D01*
X324991Y-1753672D02*
X325010Y-1753670D01*
X324977Y-1753673D02*
X324991Y-1753672D01*
X324967Y-1753674D02*
X324977Y-1753673D01*
X324958Y-1753674D02*
X324967Y-1753674D01*
X324950Y-1753674D02*
X324958Y-1753674D01*
X324944Y-1753675D02*
X324950Y-1753674D01*
X324938Y-1753675D02*
X324944Y-1753675D01*
X324933Y-1753675D02*
X324938Y-1753675D01*
X324930Y-1753675D02*
X324933Y-1753675D01*
X324926Y-1753675D02*
X324930Y-1753675D01*
X324924Y-1753675D02*
X324926Y-1753675D01*
X324921Y-1753675D02*
X324924Y-1753675D01*
X324918Y-1753675D02*
X324921D01*
X324916D02*
X324918D01*
X324915Y-1753675D02*
X324916Y-1753675D01*
X324913Y-1753675D02*
X324915D01*
X324911D02*
X324913D01*
X324910D02*
X324911D01*
X324910D02*
X324910D01*
X324909D02*
X324910D01*
X324908D02*
X324909D01*
X324907D02*
X324908D01*
X324906D02*
X324907D01*
X324905D02*
X324906D01*
X324904D02*
X324905D01*
X324903D02*
X324904D01*
X324903D02*
X324903D01*
X324902D02*
X324903D01*
X324901D02*
X324902D01*
X324900D02*
X324901D01*
X324899D02*
X324900D01*
X324898D02*
X324899D01*
X324898D02*
X324898D01*
X324897D02*
X324898D01*
X324896D02*
X324897D01*
X324895D02*
X324896D01*
X324894D02*
X324895D01*
X324893D02*
X324894D01*
X324891D02*
X324893D01*
X324889D02*
X324891D01*
X324888D02*
X324889D01*
X324886D02*
X324888D01*
X324884D02*
X324886D01*
X324881Y-1753675D02*
X324884Y-1753675D01*
X324879Y-1753675D02*
X324881D01*
X324877D02*
X324879D01*
X324874Y-1753675D02*
X324877Y-1753675D01*
X324870Y-1753675D02*
X324874Y-1753675D01*
X324867Y-1753675D02*
X324870D01*
X324864Y-1753675D02*
X324867Y-1753675D01*
X324860Y-1753675D02*
X324864Y-1753675D01*
X324856Y-1753675D02*
X324860Y-1753675D01*
X324852Y-1753675D02*
X324856Y-1753675D01*
X324847Y-1753675D02*
X324852Y-1753675D01*
X324842Y-1753674D02*
X324847Y-1753675D01*
X324837Y-1753674D02*
X324842Y-1753674D01*
X324832Y-1753674D02*
X324837Y-1753674D01*
X324825Y-1753674D02*
X324832Y-1753674D01*
X324818Y-1753674D02*
X324825Y-1753674D01*
X324811Y-1753673D02*
X324818Y-1753674D01*
X324802Y-1753672D02*
X324811Y-1753673D01*
X324791Y-1753672D02*
X324802Y-1753672D01*
X324777Y-1753670D02*
X324791Y-1753672D01*
X324636Y-1753620D02*
X324653Y-1753630D01*
X324621Y-1753610D02*
X324636Y-1753620D01*
X324608Y-1753601D02*
X324621Y-1753610D01*
X324595Y-1753591D02*
X324608Y-1753601D01*
X324583Y-1753581D02*
X324595Y-1753591D01*
X324572Y-1753571D02*
X324583Y-1753581D01*
X324560Y-1753561D02*
X324572Y-1753571D01*
X324548Y-1753549D02*
X324560Y-1753561D01*
X324536Y-1753538D02*
X324548Y-1753549D01*
X324525Y-1753526D02*
X324536Y-1753538D01*
X324512Y-1753511D02*
X324525Y-1753526D01*
X294449Y-1720129D02*
X294582Y-1720273D01*
X294295Y-1719973D02*
X294449Y-1720129D01*
X294131Y-1719819D02*
X294295Y-1719973D01*
X293956Y-1719668D02*
X294131Y-1719819D01*
X293765Y-1719518D02*
X293956Y-1719668D01*
X293540Y-1719363D02*
X293765Y-1719518D01*
X292671Y-1718958D02*
X292959Y-1719061D01*
X292540Y-1718920D02*
X292671Y-1718958D01*
X291852Y-1718788D02*
X292021Y-1718810D01*
X291742Y-1718776D02*
X291852Y-1718788D01*
X291653Y-1718768D02*
X291742Y-1718776D01*
X291573Y-1718763D02*
X291653Y-1718768D01*
X291504Y-1718758D02*
X291573Y-1718763D01*
X291439Y-1718755D02*
X291504Y-1718758D01*
X291380Y-1718752D02*
X291439Y-1718755D01*
X291319Y-1718750D02*
X291380Y-1718752D01*
X291264Y-1718748D02*
X291319Y-1718750D01*
X291214Y-1718746D02*
X291264Y-1718748D01*
X291163Y-1718745D02*
X291214Y-1718746D01*
X291118Y-1718744D02*
X291163Y-1718745D01*
X291073Y-1718743D02*
X291118Y-1718744D01*
X291026Y-1718743D02*
X291073Y-1718743D01*
X290986Y-1718742D02*
X291026Y-1718743D01*
X290946Y-1718742D02*
X290986Y-1718742D01*
X290905Y-1718741D02*
X290946Y-1718742D01*
X290870Y-1718741D02*
X290905Y-1718741D01*
X290835Y-1718741D02*
X290870Y-1718741D01*
X290799Y-1718741D02*
X290835Y-1718741D01*
X290770Y-1718741D02*
X290799Y-1718741D01*
X290742Y-1718740D02*
X290770Y-1718741D01*
X290712Y-1718740D02*
X290742Y-1718740D01*
X290683Y-1718740D02*
X290712Y-1718740D01*
X290660Y-1718740D02*
X290683Y-1718740D01*
X290638Y-1718740D02*
X290660Y-1718740D01*
X290615Y-1718740D02*
X290638Y-1718740D01*
X290593Y-1718740D02*
X290615Y-1718740D01*
X290570Y-1718740D02*
X290593Y-1718740D01*
X290554Y-1718740D02*
X290570D01*
X290539Y-1718740D02*
X290554Y-1718740D01*
X290523Y-1718740D02*
X290539D01*
X290508D02*
X290523D01*
X290492Y-1718740D02*
X290508Y-1718740D01*
X290476Y-1718740D02*
X290492D01*
X290468D02*
X290476D01*
X290460D02*
X290468D01*
X290452D02*
X290460D01*
X290444D02*
X290452D01*
X290436D02*
X290444D01*
X290428D02*
X290436D01*
X290420D02*
X290428D01*
X290412D02*
X290420D01*
X290404D02*
X290412D01*
X290396D02*
X290404D01*
X290388D02*
X290396D01*
X286131D02*
X290388D01*
X295381Y-1768740D02*
Y-1734352D01*
Y-1734348D02*
Y-1734346D01*
Y-1734344D01*
Y-1734342D01*
Y-1734340D01*
Y-1734338D01*
Y-1734336D01*
Y-1734334D01*
Y-1734332D01*
Y-1734330D01*
X295381Y-1734326D01*
Y-1734321D01*
Y-1734317D01*
X295381Y-1734314D01*
X295381Y-1734310D01*
X295381Y-1734304D01*
X295381Y-1734298D01*
X295381Y-1734292D01*
X295381Y-1734286D01*
X295381Y-1734281D01*
X295381Y-1734273D01*
X295381Y-1734265D01*
X295382Y-1734258D01*
X295382Y-1734249D01*
X295382Y-1734240D01*
X295383Y-1734231D01*
X295383Y-1734220D01*
X295384Y-1734209D01*
X295385Y-1734197D01*
X295386Y-1734185D01*
X295388Y-1734172D01*
X295390Y-1734157D01*
X295393Y-1734140D01*
X295397Y-1734121D01*
X295636Y-1733856D02*
X295661Y-1733848D01*
X295682Y-1733842D01*
X295702Y-1733838D01*
X295721Y-1733835D01*
X295738Y-1733833D01*
X295753Y-1733831D01*
X295767Y-1733830D01*
X295778Y-1733829D01*
X295789Y-1733829D01*
X295797Y-1733829D01*
X295806Y-1733828D01*
X295813Y-1733828D01*
X295819Y-1733828D01*
X295824Y-1733828D01*
X295828Y-1733828D01*
X295832Y-1733828D01*
X295837Y-1733828D01*
X295839Y-1733828D01*
X295842D01*
X295844D01*
X295847Y-1733828D01*
X295848D01*
X295850D01*
X295851D01*
X295852D01*
X295854D01*
X295855D01*
X295856D01*
X295858D01*
X295859D01*
X295860D01*
X295861D01*
X295863D01*
X295864D01*
X295865D01*
X295866D01*
X295868D01*
X295869D01*
X295870D01*
X295871D01*
X295874D01*
X295876D01*
X295879D01*
X295881Y-1733828D01*
X295883D01*
X295886D01*
X295889Y-1733828D01*
X295893Y-1733828D01*
X295896Y-1733828D01*
X295900Y-1733828D01*
X295904Y-1733828D01*
X295909Y-1733828D01*
X295913Y-1733828D01*
X295917Y-1733828D01*
X295923Y-1733828D01*
X295928Y-1733828D01*
X295935Y-1733829D01*
X295941Y-1733829D01*
X295948Y-1733829D01*
X295956Y-1733830D01*
X295966Y-1733831D01*
X295978Y-1733832D01*
X296115Y-1733876D02*
X296132Y-1733887D01*
X296148Y-1733897D01*
X296161Y-1733907D01*
X296175Y-1733918D01*
X296187Y-1733928D01*
X296201Y-1733940D01*
X296212Y-1733951D01*
X296225Y-1733964D01*
X296237Y-1733977D01*
X296252Y-1733992D01*
X326181Y-1767209D02*
X326315Y-1767354D01*
X326468Y-1767509D01*
X326632Y-1767664D01*
X326800Y-1767809D01*
X326991Y-1767959D01*
X327216Y-1768115D01*
X327816Y-1768425D02*
X328092Y-1768523D01*
X328223Y-1768561D01*
X328742Y-1768670D02*
X328910Y-1768693D01*
X329021Y-1768704D01*
X329110Y-1768712D01*
X329189Y-1768718D01*
X329259Y-1768722D01*
X329323Y-1768725D01*
X329383Y-1768728D01*
X329443Y-1768731D01*
X329499Y-1768732D01*
X329548Y-1768734D01*
X329599Y-1768735D01*
X329644Y-1768736D01*
X329690Y-1768737D01*
X329736Y-1768738D01*
X329776Y-1768738D01*
X329817Y-1768739D01*
X329858Y-1768739D01*
X329893Y-1768739D01*
X329928Y-1768739D01*
X329963Y-1768740D01*
X329992Y-1768740D01*
X330021Y-1768740D01*
X330050Y-1768740D01*
X330079Y-1768740D01*
X330102Y-1768740D01*
X330124Y-1768740D01*
X330147Y-1768740D01*
X330170Y-1768740D01*
X330192Y-1768740D01*
X330208D01*
X330223Y-1768740D01*
X330239D01*
X330255D01*
X330270Y-1768740D01*
X330286D01*
X330294D01*
X330302D01*
X330310D01*
X330318D01*
X330326D01*
X330334D01*
X330342D01*
X330350D01*
X330358D01*
X330366D01*
X330374D01*
X334631D01*
X325381Y-1753176D02*
Y-1718740D01*
Y-1753176D02*
Y-1718740D01*
X201990Y-1740235D02*
X202172Y-1740232D01*
X201990Y-1740235D02*
X202172Y-1740232D01*
X454954Y-1788469D02*
X455010Y-1788527D01*
X455291Y-1793443D02*
X455292Y-1793423D01*
X455401Y-1793285D02*
X455414Y-1793282D01*
X455427Y-1793279D01*
X455440Y-1793278D01*
X455453Y-1793277D01*
X455466Y-1793277D01*
X455479Y-1793277D01*
X455492Y-1793278D01*
X455506Y-1793280D01*
X455520Y-1793282D01*
X455535Y-1793284D01*
X455551Y-1793288D01*
X455567Y-1793292D01*
X466070Y-1804957D02*
X466143Y-1805032D01*
X465790Y-1800042D02*
X465790Y-1800036D01*
X465789Y-1800061D02*
X465790Y-1800042D01*
X465786Y-1800079D02*
X465789Y-1800061D01*
X465678Y-1800200D02*
X465692Y-1800196D01*
X465665Y-1800203D02*
X465678Y-1800200D01*
X465653Y-1800206D02*
X465665Y-1800203D01*
X465640Y-1800207D02*
X465653Y-1800206D01*
X465627Y-1800208D02*
X465640Y-1800207D01*
X465615Y-1800208D02*
X465627Y-1800208D01*
X465602Y-1800207D02*
X465615Y-1800208D01*
X465588Y-1800206D02*
X465602Y-1800207D01*
X465574Y-1800205D02*
X465588Y-1800206D01*
X465560Y-1800202D02*
X465574Y-1800205D01*
X465546Y-1800200D02*
X465560Y-1800202D01*
X465530Y-1800197D02*
X465546Y-1800200D01*
X465513Y-1800192D02*
X465530Y-1800197D01*
X417914Y-1803043D02*
X417971Y-1803043D01*
X384895Y-1790443D02*
X384951Y-1790444D01*
X454954Y-1788469D02*
X455010Y-1788527D01*
X455291Y-1793443D02*
X455292Y-1793423D01*
X455401Y-1793285D02*
X455414Y-1793282D01*
X455427Y-1793279D01*
X455440Y-1793278D01*
X455453Y-1793277D01*
X455466Y-1793277D01*
X455479Y-1793277D01*
X455492Y-1793278D01*
X455506Y-1793280D01*
X455520Y-1793282D01*
X455535Y-1793284D01*
X455551Y-1793288D01*
X455567Y-1793292D01*
X466070Y-1804957D02*
X466143Y-1805032D01*
X465790Y-1800042D02*
X465790Y-1800036D01*
X465789Y-1800061D02*
X465790Y-1800042D01*
X465786Y-1800079D02*
X465789Y-1800061D01*
X465678Y-1800200D02*
X465692Y-1800196D01*
X465665Y-1800203D02*
X465678Y-1800200D01*
X465653Y-1800206D02*
X465665Y-1800203D01*
X465640Y-1800207D02*
X465653Y-1800206D01*
X465627Y-1800208D02*
X465640Y-1800207D01*
X465615Y-1800208D02*
X465627Y-1800208D01*
X465602Y-1800207D02*
X465615Y-1800208D01*
X465588Y-1800206D02*
X465602Y-1800207D01*
X465574Y-1800205D02*
X465588Y-1800206D01*
X465560Y-1800202D02*
X465574Y-1800205D01*
X465546Y-1800200D02*
X465560Y-1800202D01*
X465530Y-1800197D02*
X465546Y-1800200D01*
X465513Y-1800192D02*
X465530Y-1800197D01*
X417914Y-1803043D02*
X417971Y-1803043D01*
X384895Y-1790443D02*
X384951Y-1790444D01*
X356637Y-1768744D02*
Y-1718743D01*
X347387D02*
X356637D01*
X347387Y-1768744D02*
Y-1718743D01*
Y-1768744D02*
X356637D01*
Y-1718743D01*
X347387D02*
X356637D01*
X347387Y-1768744D02*
Y-1718743D01*
Y-1768744D02*
X356637D01*
X433488D02*
X457240D01*
X469114Y-1757993D02*
Y-1729493D01*
X433488Y-1718743D02*
X457240D01*
X421614Y-1757993D02*
Y-1729493D01*
X430863Y-1756242D02*
Y-1731243D01*
X436988Y-1725743D02*
X453740D01*
X459864Y-1756242D02*
Y-1731243D01*
X436988Y-1761743D02*
X453740D01*
X433488Y-1768744D02*
X457240D01*
X469114Y-1757993D02*
Y-1729493D01*
X433488Y-1718743D02*
X457240D01*
X421614Y-1757993D02*
Y-1729493D01*
X430863Y-1756242D02*
Y-1731243D01*
X436988Y-1725743D02*
X453740D01*
X459864Y-1756242D02*
Y-1731243D01*
X436988Y-1761743D02*
X453740D01*
X144607Y-1768740D02*
Y-1725741D01*
X163364D01*
Y-1718740D01*
X116613D02*
X163364D01*
X116613Y-1725741D02*
Y-1718740D01*
Y-1725741D02*
X135357D01*
Y-1768740D02*
Y-1725741D01*
Y-1768740D02*
X144607D01*
Y-1725741D01*
X163364D01*
Y-1718740D01*
X116613D02*
X163364D01*
X116613Y-1725741D02*
Y-1718740D01*
Y-1725741D02*
X135357D01*
Y-1768740D02*
Y-1725741D01*
Y-1768740D02*
X144607D01*
X238686D02*
X262437D01*
X274312Y-1757990D02*
Y-1729490D01*
X238686Y-1718740D02*
X262437D01*
X226812Y-1757990D02*
Y-1729490D01*
X236061Y-1756240D02*
Y-1731240D01*
X242185Y-1725740D02*
X258938D01*
X265062Y-1756240D02*
Y-1731240D01*
X242185Y-1761740D02*
X258938D01*
X274312Y-1757990D02*
Y-1729490D01*
X238686Y-1718740D02*
X262437D01*
X226812Y-1757990D02*
Y-1729490D01*
X236061Y-1756240D02*
Y-1731240D01*
X242185Y-1725740D02*
X258938D01*
X265062Y-1756240D02*
Y-1731240D01*
X242185Y-1761740D02*
X258938D01*
X377865Y-1756240D02*
Y-1731240D01*
X383990Y-1725741D02*
X413115D01*
Y-1718740D01*
X380489D02*
X413115D01*
X368615Y-1757990D02*
Y-1729490D01*
X380489Y-1768740D02*
X413115D01*
Y-1761740D01*
X383990D02*
X413115D01*
X377865Y-1756240D02*
Y-1731240D01*
X383990Y-1725741D02*
X413115D01*
Y-1718740D01*
X380489D02*
X413115D01*
X368615Y-1757990D02*
Y-1729490D01*
X380489Y-1768740D02*
X413115D01*
Y-1761740D01*
X383990D02*
X413115D01*
X294582Y-1720273D02*
X324512Y-1753511D01*
X286131Y-1768740D02*
Y-1718740D01*
Y-1768740D02*
X295381D01*
X296252Y-1733992D02*
X326181Y-1767209D01*
X334631Y-1768740D02*
Y-1718740D01*
X325381D02*
X334631D01*
X294582Y-1720273D02*
X324512Y-1753511D01*
X286131Y-1768740D02*
Y-1718740D01*
Y-1768740D02*
X295381D01*
X296252Y-1733992D02*
X326181Y-1767209D01*
X334631Y-1768740D02*
Y-1718740D01*
X325381D02*
X334631D01*
X204948Y-1747236D02*
X205490D01*
X217364Y-1736485D02*
Y-1729490D01*
X175864Y-1718740D02*
X205490D01*
X172114Y-1768740D02*
Y-1722240D01*
Y-1768740D02*
X181364D01*
Y-1747236D01*
X191984D01*
X197420Y-1750197D02*
X208127Y-1768740D01*
X217364D01*
X204948Y-1747236D02*
X217364Y-1768740D01*
X183364Y-1725741D02*
X201990D01*
X181364Y-1740235D02*
Y-1727616D01*
Y-1740235D02*
X201990D01*
X208115Y-1734735D02*
Y-1731241D01*
X204948Y-1747236D02*
X205490D01*
X217364Y-1736485D02*
Y-1729490D01*
X175864Y-1718740D02*
X205490D01*
X172114Y-1768740D02*
Y-1722240D01*
Y-1768740D02*
X181364D01*
Y-1747236D01*
X191984D01*
X197420Y-1750197D02*
X208127Y-1768740D01*
X217364D01*
X204948Y-1747236D02*
X217364Y-1768740D01*
X183364Y-1725741D02*
X201990D01*
X181364Y-1740235D02*
Y-1727616D01*
Y-1740235D02*
X201990D01*
X208115Y-1734735D02*
Y-1731241D01*
X104500Y-1687800D02*
X484500D01*
X477862Y-1797550D02*
X484500D01*
X104500D02*
X364026D01*
X455010Y-1788527D02*
X465513Y-1800192D01*
X452053Y-1787992D02*
X453671D01*
X452053Y-1789187D02*
Y-1787992D01*
Y-1805493D02*
Y-1789187D01*
Y-1805493D02*
X455290D01*
X455291Y-1793449D01*
X455567Y-1793292D02*
X466070Y-1804957D01*
X467409Y-1805493D02*
X469028D01*
Y-1787992D01*
X465791D02*
X469028D01*
X465790Y-1800036D02*
X465791Y-1787992D01*
X397977Y-1802409D02*
Y-1787992D01*
X394739D02*
X397977D01*
X394739D02*
X394766Y-1804268D01*
X396077Y-1805493D02*
X410052D01*
Y-1803043D01*
X398677D02*
X410052D01*
X435953Y-1790443D02*
X447546D01*
Y-1787992D01*
X433328D02*
X447546D01*
X432015Y-1804268D02*
Y-1789218D01*
X433328Y-1805493D02*
X447546D01*
Y-1803043D01*
X435953D02*
X447546D01*
X435253Y-1802409D02*
Y-1797969D01*
X445840D01*
Y-1795517D01*
X435253D02*
X445840D01*
X435253D02*
Y-1791077D01*
X415827Y-1801117D02*
Y-1792369D01*
X417971Y-1790443D02*
X428165D01*
Y-1787992D01*
X416745D02*
X428165D01*
X455010Y-1788527D02*
X465513Y-1800192D01*
X452053Y-1787992D02*
X453671D01*
X452053Y-1789187D02*
Y-1787992D01*
Y-1805493D02*
Y-1789187D01*
Y-1805493D02*
X455290D01*
X455291Y-1793449D01*
X455567Y-1793292D02*
X466070Y-1804957D01*
X467409Y-1805493D02*
X469028D01*
Y-1787992D01*
X465791D02*
X469028D01*
X465790Y-1800036D02*
X465791Y-1787992D01*
X397977Y-1802409D02*
Y-1787992D01*
X394739D02*
X397977D01*
X394739D02*
X394766Y-1804268D01*
X396077Y-1805493D02*
X410052D01*
Y-1803043D01*
X398677D02*
X410052D01*
X435953Y-1790443D02*
X447546D01*
Y-1787992D01*
X433328D02*
X447546D01*
X432015Y-1804268D02*
Y-1789218D01*
X433328Y-1805493D02*
X447546D01*
Y-1803043D01*
X435953D02*
X447546D01*
X435253Y-1802409D02*
Y-1797969D01*
X445840D01*
Y-1795517D01*
X435253D02*
X445840D01*
X435253D02*
Y-1791077D01*
X415827Y-1801117D02*
Y-1792369D01*
X417971Y-1790443D02*
X428165D01*
Y-1787992D01*
X416745D02*
X428165D01*
X412589Y-1801731D02*
Y-1791754D01*
X416745Y-1805493D02*
X428165D01*
Y-1803043D01*
X417971D02*
X428165D01*
X376014Y-1796131D02*
Y-1787992D01*
X372777D02*
X376014D01*
X372777Y-1805493D02*
Y-1787992D01*
Y-1805493D02*
X376014D01*
Y-1798580D01*
X385006D01*
Y-1796131D01*
X376014D02*
X385006D01*
X378047Y-1787992D02*
X386120D01*
X378047Y-1790443D02*
Y-1787992D01*
Y-1790443D02*
X384895D01*
X387039Y-1805493D02*
Y-1792369D01*
Y-1805493D02*
X390276D01*
Y-1791755D01*
X412589Y-1801731D02*
Y-1791754D01*
X416745Y-1805493D02*
X428165D01*
Y-1803043D01*
X417971D02*
X428165D01*
X376014Y-1796131D02*
Y-1787992D01*
X372777D02*
X376014D01*
X372777Y-1805493D02*
Y-1787992D01*
Y-1805493D02*
X376014D01*
Y-1798580D01*
X385006D01*
Y-1796131D01*
X376014D02*
X385006D01*
X378047Y-1787992D02*
X386120D01*
X378047Y-1790443D02*
Y-1787992D01*
Y-1790443D02*
X384895D01*
X387039Y-1805493D02*
Y-1792369D01*
Y-1805493D02*
X390276D01*
Y-1791755D01*
X1256223Y-1405239D02*
X1256250D01*
X-658193Y956797D02*
X1257019D01*
X-658193Y-1854629D02*
Y956797D01*
X1256985Y-1854629D02*
X1257019Y956797D01*
Y244422D02*
X1337020D01*
X1257019Y-455578D02*
X1287002D01*
X1269932Y-459719D02*
Y-452047D01*
X1257019Y-455578D02*
X1269932Y-452047D01*
X1257019Y-455578D02*
X1269932Y-459719D01*
X-738190Y244422D02*
X-658193D01*
X-738190Y-455578D02*
X-658193D01*
X-738190Y-1203765D02*
X-658193D01*
X1257019D02*
X1337020D01*
X755738Y-1934610D02*
Y-1855499D01*
X254930Y-1878646D02*
Y-1855499D01*
X-245630Y-1934610D02*
Y-1855499D01*
X254870Y-1876945D02*
Y-1853797D01*
X259411Y956706D02*
Y978245D01*
X-240399Y956854D02*
Y1036780D01*
X259664Y956854D02*
Y978393D01*
X759727Y956854D02*
Y1036780D01*
X256045Y967356D02*
X259411Y956706D01*
X262600Y967356D01*
X256045D02*
X262600D01*
X257623D02*
X259411Y956706D01*
X260658Y967356D01*
X254870Y-1853797D02*
X257555Y-1865134D01*
X252185D02*
X257555D01*
X252185D02*
X254870Y-1853797D01*
X-658193Y-1854629D02*
X1257019D01*
X197314Y359716D02*
X367012Y421222D01*
X351778Y477924D02*
X370009Y427626D01*
X175676Y419415D02*
X345374Y480921D01*
X172679Y413011D02*
X190910Y362713D01*
X-705500Y624822D02*
Y601017D01*
X-693598D01*
X-689630Y604985D01*
Y620854D01*
X-693598Y624822D01*
X-705500D01*
X-689630Y-73696D02*
X-693598Y-69729D01*
X-701533D01*
X-705500Y-73696D01*
Y-89566D01*
X-701533Y-93534D01*
X-693598D01*
X-689630Y-89566D01*
X-705500Y-807512D02*
Y-831317D01*
X-693598D01*
X-689630Y-827349D01*
Y-823382D01*
X-693598Y-819415D01*
X-705500D01*
X-693598D01*
X-689630Y-815447D01*
Y-811480D01*
X-693598Y-807512D01*
X-705500D01*
Y-1518250D02*
Y-1502380D01*
X-697565Y-1494445D01*
X-689630Y-1502380D01*
Y-1518250D01*
Y-1506348D01*
X-705500D01*
X1000410Y983000D02*
X1008345D01*
X1004378D01*
Y1006805D01*
X1000410Y1002837D01*
X527604Y983000D02*
X511734D01*
X527604Y998870D01*
Y1002837D01*
X523637Y1006805D01*
X515702D01*
X511734Y1002837D01*
X-2927D02*
X1040Y1006805D01*
X8975D01*
X12943Y1002837D01*
Y998870D01*
X8975Y994902D01*
X5008D01*
X8975D01*
X12943Y990935D01*
Y986967D01*
X8975Y983000D01*
X1040D01*
X-2927Y986967D01*
X-489911Y983000D02*
Y1006805D01*
X-501813Y994902D01*
X-485943D01*
X1290500Y-807931D02*
Y-831736D01*
X1302402D01*
X1306370Y-827768D01*
Y-823801D01*
X1302402Y-819833D01*
X1290500D01*
X1302402D01*
X1306370Y-815866D01*
Y-811898D01*
X1302402Y-807931D01*
X1290500D01*
X1306370Y-106673D02*
X1302402Y-102705D01*
X1294467D01*
X1290500Y-106673D01*
Y-122542D01*
X1294467Y-126510D01*
X1302402D01*
X1306370Y-122542D01*
X1290500Y612513D02*
Y588708D01*
X1302402D01*
X1306370Y592676D01*
Y608546D01*
X1302402Y612513D01*
X1290500D01*
Y-1521250D02*
Y-1505380D01*
X1298435Y-1497445D01*
X1306370Y-1505380D01*
Y-1521250D01*
Y-1509348D01*
X1290500D01*
X1030929Y-1905750D02*
X1038864D01*
X1034896D01*
Y-1881945D01*
X1030929Y-1885913D01*
X494028Y-1905750D02*
X478158D01*
X494028Y-1889880D01*
Y-1885913D01*
X490061Y-1881945D01*
X482126D01*
X478158Y-1885913D01*
X-23292D02*
X-19324Y-1881945D01*
X-11389D01*
X-7422Y-1885913D01*
Y-1889880D01*
X-11389Y-1893848D01*
X-15357D01*
X-11389D01*
X-7422Y-1897815D01*
Y-1901783D01*
X-11389Y-1905750D01*
X-19324D01*
X-23292Y-1901783D01*
X-495881Y-1905750D02*
Y-1881945D01*
X-507784Y-1893848D01*
X-491914D01*
D15*
X1141000Y-1854232D02*
Y-1778190D01*
X-738210Y-1934611D02*
X1337035D01*
Y1036779D01*
X-738208D02*
X1337030D01*
X-738208Y-1934611D02*
Y1036779D01*
X96250Y-1368300D02*
X1255250D01*
X97250Y-1409300D02*
X1256250D01*
X96750Y-1452550D02*
X1255750D01*
X96750Y-1497800D02*
X1255750D01*
X1054250Y-1549050D02*
Y-1358050D01*
X876000Y-1549050D02*
Y-1358050D01*
X648000Y-1549050D02*
Y-1358050D01*
X96750Y-1549050D02*
Y-1358050D01*
X161000Y-1549050D02*
Y-1358050D01*
X577750Y-1549050D02*
X577750Y-1625050D01*
X96750Y-1549050D02*
X494500D01*
X494250Y-1701450D02*
Y-1625300D01*
X1027650Y-1625050D02*
Y-1549200D01*
X97250Y-1625250D02*
X1256250D01*
X494750Y-1777650D02*
X1256250D01*
X494500Y-1701450D02*
X1256250D01*
X494250Y-1549050D02*
X1256250D01*
X96750Y-1853850D02*
Y-1549050D01*
X1027650Y-1853850D02*
Y-1624931D01*
X494250Y-1853850D02*
Y-1701450D01*
X1154142Y-1791872D02*
Y-1803300D01*
Y-1791872D02*
X1161216D01*
X1154142Y-1797314D02*
X1158495D01*
X1165243Y-1795682D02*
X1164155Y-1796226D01*
X1163066Y-1797314D01*
X1162522Y-1798947D01*
Y-1800035D01*
X1163066Y-1801667D01*
X1164155Y-1802756D01*
X1165243Y-1803300D01*
X1166876D01*
X1167964Y-1802756D01*
X1169052Y-1801667D01*
X1169596Y-1800035D01*
Y-1798947D01*
X1169052Y-1797314D01*
X1167964Y-1796226D01*
X1166876Y-1795682D01*
X1165243D01*
X1172100D02*
Y-1803300D01*
Y-1798947D02*
X1172644Y-1797314D01*
X1173732Y-1796226D01*
X1174820Y-1795682D01*
X1176453D01*
X1177487D02*
Y-1803300D01*
Y-1797858D02*
X1179119Y-1796226D01*
X1180208Y-1795682D01*
X1181840D01*
X1182928Y-1796226D01*
X1183473Y-1797858D01*
Y-1803300D01*
Y-1797858D02*
X1185105Y-1796226D01*
X1186193Y-1795682D01*
X1187826D01*
X1188914Y-1796226D01*
X1189458Y-1797858D01*
Y-1803300D01*
X1199580Y-1795682D02*
Y-1803300D01*
Y-1797314D02*
X1198492Y-1796226D01*
X1197403Y-1795682D01*
X1195771D01*
X1194682Y-1796226D01*
X1193594Y-1797314D01*
X1193050Y-1798947D01*
Y-1800035D01*
X1193594Y-1801667D01*
X1194682Y-1802756D01*
X1195771Y-1803300D01*
X1197403D01*
X1198492Y-1802756D01*
X1199580Y-1801667D01*
X1204260Y-1791872D02*
Y-1801123D01*
X1204804Y-1802756D01*
X1205892Y-1803300D01*
X1206981D01*
X1202627Y-1795682D02*
X1206437D01*
X1218136D02*
X1217592Y-1796226D01*
X1218136Y-1796770D01*
X1218680Y-1796226D01*
X1218136Y-1795682D01*
Y-1802212D02*
X1217592Y-1802756D01*
X1218136Y-1803300D01*
X1218680Y-1802756D01*
X1218136Y-1802212D01*
X507290Y-1636662D02*
Y-1648090D01*
X513820D01*
X523778D02*
X519425Y-1636662D01*
X515072Y-1648090D01*
X516704Y-1644281D02*
X522146D01*
X526445Y-1636662D02*
X530798Y-1642104D01*
Y-1648090D01*
X535151Y-1636662D02*
X530798Y-1642104D01*
X543695Y-1636662D02*
X536621D01*
Y-1648090D01*
X543695D01*
X536621Y-1642104D02*
X540974D01*
X545600Y-1636662D02*
Y-1648090D01*
Y-1636662D02*
X550497D01*
X552130Y-1637207D01*
X552674Y-1637751D01*
X553218Y-1638839D01*
Y-1639927D01*
X552674Y-1641016D01*
X552130Y-1641560D01*
X550497Y-1642104D01*
X545600D01*
X549409D02*
X553218Y-1648090D01*
X565298Y-1640472D02*
X564754Y-1641016D01*
X565298Y-1641560D01*
X565843Y-1641016D01*
X565298Y-1640472D01*
Y-1647002D02*
X564754Y-1647546D01*
X565298Y-1648090D01*
X565843Y-1647546D01*
X565298Y-1647002D01*
X1132770Y-1516622D02*
X1137123Y-1528050D01*
X1141477Y-1516622D02*
X1137123Y-1528050D01*
X1150020Y-1516622D02*
X1142946D01*
Y-1528050D01*
X1150020D01*
X1142946Y-1522064D02*
X1147299D01*
X1151925Y-1516622D02*
Y-1528050D01*
Y-1516622D02*
X1156822D01*
X1158455Y-1517167D01*
X1158999Y-1517711D01*
X1159543Y-1518799D01*
Y-1519887D01*
X1158999Y-1520976D01*
X1158455Y-1521520D01*
X1156822Y-1522064D01*
X1151925D01*
X1155734D02*
X1159543Y-1528050D01*
X1162101Y-1516622D02*
Y-1528050D01*
X1164495Y-1516622D02*
Y-1528050D01*
Y-1516622D02*
X1171569D01*
X1164495Y-1522064D02*
X1168848D01*
X1172875Y-1516622D02*
Y-1528050D01*
X1182344Y-1516622D02*
X1175270D01*
Y-1528050D01*
X1182344D01*
X1175270Y-1522064D02*
X1179623D01*
X952770Y-1516622D02*
Y-1528050D01*
Y-1516622D02*
X956579D01*
X958212Y-1517167D01*
X959300Y-1518255D01*
X959844Y-1519343D01*
X960388Y-1520976D01*
Y-1523697D01*
X959844Y-1525329D01*
X959300Y-1526418D01*
X958212Y-1527506D01*
X956579Y-1528050D01*
X952770D01*
X971653D02*
X967299Y-1516622D01*
X962946Y-1528050D01*
X964578Y-1524241D02*
X970020D01*
X978128Y-1516622D02*
Y-1528050D01*
X974319Y-1516622D02*
X981937D01*
X990372D02*
X983298D01*
Y-1528050D01*
X990372D01*
X983298Y-1522064D02*
X987651D01*
X718520Y-1516622D02*
Y-1528050D01*
Y-1516622D02*
X722329D01*
X723962Y-1517167D01*
X725050Y-1518255D01*
X725594Y-1519343D01*
X726138Y-1520976D01*
Y-1523697D01*
X725594Y-1525329D01*
X725050Y-1526418D01*
X723962Y-1527506D01*
X722329Y-1528050D01*
X718520D01*
X735770Y-1516622D02*
X728696D01*
Y-1528050D01*
X735770D01*
X728696Y-1522064D02*
X733049D01*
X745293Y-1518255D02*
X744205Y-1517167D01*
X742572Y-1516622D01*
X740396D01*
X738763Y-1517167D01*
X737675Y-1518255D01*
Y-1519343D01*
X738219Y-1520432D01*
X738763Y-1520976D01*
X739851Y-1521520D01*
X743116Y-1522608D01*
X744205Y-1523152D01*
X744749Y-1523697D01*
X745293Y-1524785D01*
Y-1526418D01*
X744205Y-1527506D01*
X742572Y-1528050D01*
X740396D01*
X738763Y-1527506D01*
X737675Y-1526418D01*
X755469Y-1518255D02*
X754381Y-1517167D01*
X752748Y-1516622D01*
X750572D01*
X748939Y-1517167D01*
X747851Y-1518255D01*
Y-1519343D01*
X748395Y-1520432D01*
X748939Y-1520976D01*
X750027Y-1521520D01*
X753292Y-1522608D01*
X754381Y-1523152D01*
X754925Y-1523697D01*
X755469Y-1524785D01*
Y-1526418D01*
X754381Y-1527506D01*
X752748Y-1528050D01*
X750572D01*
X748939Y-1527506D01*
X747851Y-1526418D01*
X758027Y-1516622D02*
Y-1528050D01*
X760421Y-1516622D02*
Y-1528050D01*
Y-1516622D02*
X768039Y-1528050D01*
Y-1516622D02*
Y-1528050D01*
X778270Y-1516622D02*
X771196D01*
Y-1528050D01*
X778270D01*
X771196Y-1522064D02*
X775549D01*
X283344Y-1516622D02*
X276270D01*
Y-1528050D01*
X283344D01*
X276270Y-1522064D02*
X280623D01*
X285249Y-1516622D02*
X289602Y-1528050D01*
X293955Y-1516622D02*
X289602Y-1528050D01*
X298690Y-1516622D02*
X297601Y-1517167D01*
X296513Y-1518255D01*
X295969Y-1519343D01*
X295425Y-1520976D01*
Y-1523697D01*
X295969Y-1525329D01*
X296513Y-1526418D01*
X297601Y-1527506D01*
X298690Y-1528050D01*
X300867D01*
X301955Y-1527506D01*
X303043Y-1526418D01*
X303587Y-1525329D01*
X304132Y-1523697D01*
Y-1520976D01*
X303587Y-1519343D01*
X303043Y-1518255D01*
X301955Y-1517167D01*
X300867Y-1516622D01*
X298690D01*
X306798D02*
Y-1528050D01*
X313328D01*
X314580Y-1516622D02*
Y-1524785D01*
X315124Y-1526418D01*
X316212Y-1527506D01*
X317845Y-1528050D01*
X318933D01*
X320565Y-1527506D01*
X321654Y-1526418D01*
X322198Y-1524785D01*
Y-1516622D01*
X329163D02*
Y-1528050D01*
X325354Y-1516622D02*
X332972D01*
X334333D02*
Y-1528050D01*
X339992Y-1516622D02*
X338904Y-1517167D01*
X337816Y-1518255D01*
X337271Y-1519343D01*
X336727Y-1520976D01*
Y-1523697D01*
X337271Y-1525329D01*
X337816Y-1526418D01*
X338904Y-1527506D01*
X339992Y-1528050D01*
X342169D01*
X343257Y-1527506D01*
X344346Y-1526418D01*
X344890Y-1525329D01*
X345434Y-1523697D01*
Y-1520976D01*
X344890Y-1519343D01*
X344346Y-1518255D01*
X343257Y-1517167D01*
X342169Y-1516622D01*
X339992D01*
X348100D02*
Y-1528050D01*
Y-1516622D02*
X355719Y-1528050D01*
Y-1516622D02*
Y-1528050D01*
X110250Y-1516622D02*
Y-1528050D01*
Y-1516622D02*
X115147D01*
X116780Y-1517167D01*
X117324Y-1517711D01*
X117868Y-1518799D01*
Y-1519887D01*
X117324Y-1520976D01*
X116780Y-1521520D01*
X115147Y-1522064D01*
X110250D01*
X114059D02*
X117868Y-1528050D01*
X127500Y-1516622D02*
X120426D01*
Y-1528050D01*
X127500D01*
X120426Y-1522064D02*
X124779D01*
X129405Y-1516622D02*
X133758Y-1528050D01*
X138111Y-1516622D02*
X133758Y-1528050D01*
X1040750Y-1561122D02*
Y-1572550D01*
Y-1561122D02*
X1044559D01*
X1046192Y-1561667D01*
X1047280Y-1562755D01*
X1047824Y-1563843D01*
X1048368Y-1565476D01*
Y-1568197D01*
X1047824Y-1569829D01*
X1047280Y-1570918D01*
X1046192Y-1572006D01*
X1044559Y-1572550D01*
X1040750D01*
X1059633D02*
X1055279Y-1561122D01*
X1050926Y-1572550D01*
X1052558Y-1568741D02*
X1058000D01*
X1066108Y-1561122D02*
Y-1572550D01*
X1062299Y-1561122D02*
X1069917D01*
X1078352D02*
X1071278D01*
Y-1572550D01*
X1078352D01*
X1071278Y-1566564D02*
X1075631D01*
X1080801Y-1564932D02*
X1080257Y-1565476D01*
X1080801Y-1566020D01*
X1081345Y-1565476D01*
X1080801Y-1564932D01*
Y-1571462D02*
X1080257Y-1572006D01*
X1080801Y-1572550D01*
X1081345Y-1572006D01*
X1080801Y-1571462D01*
X1040350Y-1715422D02*
Y-1726850D01*
Y-1715422D02*
X1045247D01*
X1046880Y-1715967D01*
X1047424Y-1716511D01*
X1047968Y-1717599D01*
Y-1718687D01*
X1047424Y-1719776D01*
X1046880Y-1720320D01*
X1045247Y-1720864D01*
X1040350D01*
X1044159D02*
X1047968Y-1726850D01*
X1057600Y-1715422D02*
X1050526D01*
Y-1726850D01*
X1057600D01*
X1050526Y-1720864D02*
X1054879D01*
X1059505Y-1715422D02*
X1063858Y-1726850D01*
X1068212Y-1715422D02*
X1063858Y-1726850D01*
X1070225Y-1719232D02*
X1069681Y-1719776D01*
X1070225Y-1720320D01*
X1070769Y-1719776D01*
X1070225Y-1719232D01*
Y-1725762D02*
X1069681Y-1726306D01*
X1070225Y-1726850D01*
X1070769Y-1726306D01*
X1070225Y-1725762D01*
X1040350Y-1636682D02*
Y-1648110D01*
Y-1636682D02*
X1047968Y-1648110D01*
Y-1636682D02*
Y-1648110D01*
X1053845Y-1640492D02*
X1052757Y-1641036D01*
X1051669Y-1642124D01*
X1051124Y-1643757D01*
Y-1644845D01*
X1051669Y-1646478D01*
X1052757Y-1647566D01*
X1053845Y-1648110D01*
X1055478D01*
X1056566Y-1647566D01*
X1057655Y-1646478D01*
X1058199Y-1644845D01*
Y-1643757D01*
X1057655Y-1642124D01*
X1056566Y-1641036D01*
X1055478Y-1640492D01*
X1053845D01*
X1060702D02*
Y-1648110D01*
Y-1642668D02*
X1062334Y-1641036D01*
X1063423Y-1640492D01*
X1065055D01*
X1066144Y-1641036D01*
X1066688Y-1642668D01*
Y-1648110D01*
Y-1642668D02*
X1068320Y-1641036D01*
X1069409Y-1640492D01*
X1071041D01*
X1072130Y-1641036D01*
X1072674Y-1642668D01*
Y-1648110D01*
X1091774Y-1636682D02*
Y-1648110D01*
Y-1642124D02*
X1090686Y-1641036D01*
X1089597Y-1640492D01*
X1087965D01*
X1086877Y-1641036D01*
X1085788Y-1642124D01*
X1085244Y-1643757D01*
Y-1644845D01*
X1085788Y-1646478D01*
X1086877Y-1647566D01*
X1087965Y-1648110D01*
X1089597D01*
X1090686Y-1647566D01*
X1091774Y-1646478D01*
X1094821Y-1640492D02*
Y-1645933D01*
X1095366Y-1647566D01*
X1096454Y-1648110D01*
X1098086D01*
X1099175Y-1647566D01*
X1100807Y-1645933D01*
Y-1640492D02*
Y-1648110D01*
X1119309Y-1636682D02*
Y-1648110D01*
Y-1642124D02*
X1118221Y-1641036D01*
X1117132Y-1640492D01*
X1115500D01*
X1114411Y-1641036D01*
X1113323Y-1642124D01*
X1112779Y-1643757D01*
Y-1644845D01*
X1113323Y-1646478D01*
X1114411Y-1647566D01*
X1115500Y-1648110D01*
X1117132D01*
X1118221Y-1647566D01*
X1119309Y-1646478D01*
X1125077Y-1640492D02*
X1123989Y-1641036D01*
X1122900Y-1642124D01*
X1122356Y-1643757D01*
Y-1644845D01*
X1122900Y-1646478D01*
X1123989Y-1647566D01*
X1125077Y-1648110D01*
X1126710D01*
X1127798Y-1647566D01*
X1128886Y-1646478D01*
X1129430Y-1644845D01*
Y-1643757D01*
X1128886Y-1642124D01*
X1127798Y-1641036D01*
X1126710Y-1640492D01*
X1125077D01*
X1138464Y-1642124D02*
X1137375Y-1641036D01*
X1136287Y-1640492D01*
X1134654D01*
X1133566Y-1641036D01*
X1132478Y-1642124D01*
X1131934Y-1643757D01*
Y-1644845D01*
X1132478Y-1646478D01*
X1133566Y-1647566D01*
X1134654Y-1648110D01*
X1136287D01*
X1137375Y-1647566D01*
X1138464Y-1646478D01*
X1140912Y-1640492D02*
Y-1645933D01*
X1141457Y-1647566D01*
X1142545Y-1648110D01*
X1144177D01*
X1145266Y-1647566D01*
X1146898Y-1645933D01*
Y-1640492D02*
Y-1648110D01*
X1149891Y-1640492D02*
Y-1648110D01*
Y-1642668D02*
X1151524Y-1641036D01*
X1152612Y-1640492D01*
X1154245D01*
X1155333Y-1641036D01*
X1155877Y-1642668D01*
Y-1648110D01*
Y-1642668D02*
X1157510Y-1641036D01*
X1158598Y-1640492D01*
X1160230D01*
X1161319Y-1641036D01*
X1161863Y-1642668D01*
Y-1648110D01*
X1165454Y-1643757D02*
X1171984D01*
Y-1642668D01*
X1171440Y-1641580D01*
X1170896Y-1641036D01*
X1169808Y-1640492D01*
X1168175D01*
X1167087Y-1641036D01*
X1165999Y-1642124D01*
X1165454Y-1643757D01*
Y-1644845D01*
X1165999Y-1646478D01*
X1167087Y-1647566D01*
X1168175Y-1648110D01*
X1169808D01*
X1170896Y-1647566D01*
X1171984Y-1646478D01*
X1174433Y-1640492D02*
Y-1648110D01*
Y-1642668D02*
X1176066Y-1641036D01*
X1177154Y-1640492D01*
X1178787D01*
X1179875Y-1641036D01*
X1180419Y-1642668D01*
Y-1648110D01*
X1185045Y-1636682D02*
Y-1645933D01*
X1185589Y-1647566D01*
X1186677Y-1648110D01*
X1187766D01*
X1183412Y-1640492D02*
X1187221D01*
X1198921D02*
X1198377Y-1641036D01*
X1198921Y-1641580D01*
X1199465Y-1641036D01*
X1198921Y-1640492D01*
Y-1647022D02*
X1198377Y-1647566D01*
X1198921Y-1648110D01*
X1199465Y-1647566D01*
X1198921Y-1647022D01*
X109450Y-1562272D02*
Y-1573700D01*
Y-1562272D02*
X113259D01*
X114892Y-1562817D01*
X115980Y-1563905D01*
X116524Y-1564993D01*
X117068Y-1566626D01*
Y-1569347D01*
X116524Y-1570979D01*
X115980Y-1572068D01*
X114892Y-1573156D01*
X113259Y-1573700D01*
X109450D01*
X126700Y-1562272D02*
X119626D01*
Y-1573700D01*
X126700D01*
X119626Y-1567714D02*
X123979D01*
X136223Y-1563905D02*
X135135Y-1562817D01*
X133502Y-1562272D01*
X131326D01*
X129693Y-1562817D01*
X128605Y-1563905D01*
Y-1564993D01*
X129149Y-1566082D01*
X129693Y-1566626D01*
X130781Y-1567170D01*
X134046Y-1568258D01*
X135135Y-1568802D01*
X135679Y-1569347D01*
X136223Y-1570435D01*
Y-1572068D01*
X135135Y-1573156D01*
X133502Y-1573700D01*
X131326D01*
X129693Y-1573156D01*
X128605Y-1572068D01*
X146399Y-1563905D02*
X145311Y-1562817D01*
X143678Y-1562272D01*
X141502D01*
X139869Y-1562817D01*
X138781Y-1563905D01*
Y-1564993D01*
X139325Y-1566082D01*
X139869Y-1566626D01*
X140957Y-1567170D01*
X144222Y-1568258D01*
X145311Y-1568802D01*
X145855Y-1569347D01*
X146399Y-1570435D01*
Y-1572068D01*
X145311Y-1573156D01*
X143678Y-1573700D01*
X141502D01*
X139869Y-1573156D01*
X138781Y-1572068D01*
X148957Y-1562272D02*
Y-1573700D01*
X151351Y-1562272D02*
Y-1573700D01*
Y-1562272D02*
X158969Y-1573700D01*
Y-1562272D02*
Y-1573700D01*
X169200Y-1562272D02*
X162126D01*
Y-1573700D01*
X169200D01*
X162126Y-1567714D02*
X166479D01*
X180083Y-1568258D02*
X184981D01*
X186613Y-1567714D01*
X187157Y-1567170D01*
X187701Y-1566082D01*
Y-1564449D01*
X187157Y-1563361D01*
X186613Y-1562817D01*
X184981Y-1562272D01*
X180083D01*
Y-1573700D01*
X198966D02*
X194613Y-1562272D01*
X190259Y-1573700D01*
X191892Y-1569891D02*
X197333D01*
X201632Y-1562272D02*
Y-1573700D01*
Y-1562272D02*
X206530D01*
X208162Y-1562817D01*
X208706Y-1563361D01*
X209251Y-1564449D01*
Y-1565538D01*
X208706Y-1566626D01*
X208162Y-1567170D01*
X206530Y-1567714D01*
X201632D01*
X205441D02*
X209251Y-1573700D01*
X221331Y-1566082D02*
X220787Y-1566626D01*
X221331Y-1567170D01*
X221875Y-1566626D01*
X221331Y-1566082D01*
Y-1572612D02*
X220787Y-1573156D01*
X221331Y-1573700D01*
X221875Y-1573156D01*
X221331Y-1572612D01*
X516564Y-1790352D02*
X509490D01*
Y-1801780D01*
X516564D01*
X509490Y-1795794D02*
X513843D01*
X518469Y-1790352D02*
Y-1801780D01*
Y-1790352D02*
X526087Y-1801780D01*
Y-1790352D02*
Y-1801780D01*
X536862Y-1791985D02*
X535773Y-1790897D01*
X534141Y-1790352D01*
X531964D01*
X530332Y-1790897D01*
X529243Y-1791985D01*
Y-1793073D01*
X529787Y-1794162D01*
X530332Y-1794706D01*
X531420Y-1795250D01*
X534685Y-1796338D01*
X535773Y-1796882D01*
X536317Y-1797427D01*
X536862Y-1798515D01*
Y-1800148D01*
X535773Y-1801236D01*
X534141Y-1801780D01*
X531964D01*
X530332Y-1801236D01*
X529243Y-1800148D01*
X546493Y-1790352D02*
X539419D01*
Y-1801780D01*
X546493D01*
X539419Y-1795794D02*
X543773D01*
X548398Y-1790352D02*
Y-1801780D01*
Y-1790352D02*
X552751Y-1801780D01*
X557105Y-1790352D02*
X552751Y-1801780D01*
X557105Y-1790352D02*
Y-1801780D01*
X560370Y-1790352D02*
Y-1801780D01*
Y-1790352D02*
X565267D01*
X566900Y-1790897D01*
X567444Y-1791441D01*
X567988Y-1792529D01*
Y-1793617D01*
X567444Y-1794706D01*
X566900Y-1795250D01*
X565267Y-1795794D01*
X560370D02*
X565267D01*
X566900Y-1796338D01*
X567444Y-1796882D01*
X567988Y-1797971D01*
Y-1799603D01*
X567444Y-1800692D01*
X566900Y-1801236D01*
X565267Y-1801780D01*
X560370D01*
X570546Y-1790352D02*
Y-1801780D01*
X577076D01*
X585402Y-1790352D02*
X578327D01*
Y-1801780D01*
X585402D01*
X578327Y-1795794D02*
X582681D01*
X596829Y-1794162D02*
X596285Y-1794706D01*
X596829Y-1795250D01*
X597373Y-1794706D01*
X596829Y-1794162D01*
Y-1800692D02*
X596285Y-1801236D01*
X596829Y-1801780D01*
X597373Y-1801236D01*
X596829Y-1800692D01*
X511099Y-1709052D02*
Y-1720480D01*
X507290Y-1709052D02*
X514908D01*
X516269D02*
Y-1720480D01*
X522472Y-1709052D02*
Y-1720480D01*
X518663Y-1709052D02*
X526282D01*
X527642D02*
Y-1720480D01*
Y-1709052D02*
X532539D01*
X534172Y-1709597D01*
X534716Y-1710141D01*
X535260Y-1711229D01*
Y-1712317D01*
X534716Y-1713406D01*
X534172Y-1713950D01*
X532539Y-1714494D01*
X527642D01*
X531451D02*
X535260Y-1720480D01*
X544892Y-1709052D02*
X537818D01*
Y-1720480D01*
X544892D01*
X537818Y-1714494D02*
X542171D01*
X556320Y-1712862D02*
X555775Y-1713406D01*
X556320Y-1713950D01*
X556864Y-1713406D01*
X556320Y-1712862D01*
Y-1719392D02*
X555775Y-1719936D01*
X556320Y-1720480D01*
X556864Y-1719936D01*
X556320Y-1719392D01*
X590500Y-1556622D02*
X594853Y-1568050D01*
X599207Y-1556622D02*
X594853Y-1568050D01*
X607750Y-1556622D02*
X600676D01*
Y-1568050D01*
X607750D01*
X600676Y-1562064D02*
X605029D01*
X609655Y-1556622D02*
Y-1568050D01*
Y-1556622D02*
X614552D01*
X616185Y-1557167D01*
X616729Y-1557711D01*
X617273Y-1558799D01*
Y-1559887D01*
X616729Y-1560976D01*
X616185Y-1561520D01*
X614552Y-1562064D01*
X609655D01*
X613464D02*
X617273Y-1568050D01*
X619831Y-1556622D02*
Y-1568050D01*
X622225Y-1556622D02*
Y-1568050D01*
Y-1556622D02*
X629299D01*
X622225Y-1562064D02*
X626578D01*
X630605Y-1556622D02*
Y-1568050D01*
X640074Y-1556622D02*
X633000D01*
Y-1568050D01*
X640074D01*
X633000Y-1562064D02*
X637353D01*
X650957Y-1562608D02*
X655855D01*
X657487Y-1562064D01*
X658031Y-1561520D01*
X658576Y-1560432D01*
Y-1558799D01*
X658031Y-1557711D01*
X657487Y-1557167D01*
X655855Y-1556622D01*
X650957D01*
Y-1568050D01*
X669840D02*
X665487Y-1556622D01*
X661133Y-1568050D01*
X662766Y-1564241D02*
X668207D01*
X672506Y-1556622D02*
Y-1568050D01*
Y-1556622D02*
X677404D01*
X679036Y-1557167D01*
X679581Y-1557711D01*
X680125Y-1558799D01*
Y-1559887D01*
X679581Y-1560976D01*
X679036Y-1561520D01*
X677404Y-1562064D01*
X672506D01*
X676316D02*
X680125Y-1568050D01*
X692205Y-1560432D02*
X691661Y-1560976D01*
X692205Y-1561520D01*
X692749Y-1560976D01*
X692205Y-1560432D01*
Y-1566962D02*
X691661Y-1567506D01*
X692205Y-1568050D01*
X692749Y-1567506D01*
X692205Y-1566962D01*
X1047424Y-1791622D02*
X1040350D01*
Y-1803050D01*
X1047424D01*
X1040350Y-1797064D02*
X1044703D01*
X1055859D02*
X1054771Y-1795976D01*
X1053682Y-1795432D01*
X1052050D01*
X1050961Y-1795976D01*
X1049873Y-1797064D01*
X1049329Y-1798697D01*
Y-1799785D01*
X1049873Y-1801418D01*
X1050961Y-1802506D01*
X1052050Y-1803050D01*
X1053682D01*
X1054771Y-1802506D01*
X1055859Y-1801418D01*
X1058308Y-1791622D02*
Y-1803050D01*
Y-1797608D02*
X1059940Y-1795976D01*
X1061028Y-1795432D01*
X1062661D01*
X1063749Y-1795976D01*
X1064294Y-1797608D01*
Y-1803050D01*
X1067286Y-1798697D02*
X1073816D01*
Y-1797608D01*
X1073272Y-1796520D01*
X1072728Y-1795976D01*
X1071640Y-1795432D01*
X1070007D01*
X1068919Y-1795976D01*
X1067831Y-1797064D01*
X1067286Y-1798697D01*
Y-1799785D01*
X1067831Y-1801418D01*
X1068919Y-1802506D01*
X1070007Y-1803050D01*
X1071640D01*
X1072728Y-1802506D01*
X1073816Y-1801418D01*
X1076265Y-1791622D02*
Y-1803050D01*
X1078660Y-1791622D02*
Y-1803050D01*
X1081054Y-1798697D02*
X1087584D01*
Y-1797608D01*
X1087040Y-1796520D01*
X1086496Y-1795976D01*
X1085407Y-1795432D01*
X1083775D01*
X1082686Y-1795976D01*
X1081598Y-1797064D01*
X1081054Y-1798697D01*
Y-1799785D01*
X1081598Y-1801418D01*
X1082686Y-1802506D01*
X1083775Y-1803050D01*
X1085407D01*
X1086496Y-1802506D01*
X1087584Y-1801418D01*
X1099556Y-1795432D02*
X1099012Y-1795976D01*
X1099556Y-1796520D01*
X1100100Y-1795976D01*
X1099556Y-1795432D01*
Y-1801962D02*
X1099012Y-1802506D01*
X1099556Y-1803050D01*
X1100100Y-1802506D01*
X1099556Y-1801962D01*
D16*
X116250Y-1474154D02*
X118789Y-1471615D01*
X123868D01*
X126407Y-1474154D01*
Y-1484311D01*
X123868Y-1486850D01*
X118789D01*
X116250Y-1484311D01*
Y-1474154D01*
X131485Y-1486850D02*
X136563D01*
X134024D01*
Y-1471615D01*
X131485Y-1474154D01*
X186407D02*
X183867Y-1471615D01*
X178789D01*
X176250Y-1474154D01*
Y-1484311D01*
X178789Y-1486850D01*
X183867D01*
X186407Y-1484311D01*
X191485Y-1476693D02*
Y-1486850D01*
Y-1481772D01*
X194024Y-1479232D01*
X196563Y-1476693D01*
X199103D01*
X214338Y-1486850D02*
X209259D01*
X206720Y-1484311D01*
Y-1479232D01*
X209259Y-1476693D01*
X214338D01*
X216877Y-1479232D01*
Y-1481772D01*
X206720D01*
X224494Y-1476693D02*
X229573D01*
X232112Y-1479232D01*
Y-1486850D01*
X224494D01*
X221955Y-1484311D01*
X224494Y-1481772D01*
X232112D01*
X239729Y-1474154D02*
Y-1476693D01*
X237190D01*
X242269D01*
X239729D01*
Y-1484311D01*
X242269Y-1486850D01*
X249886D02*
X254965D01*
X252425D01*
Y-1476693D01*
X249886D01*
X265121Y-1486850D02*
X270200D01*
X272739Y-1484311D01*
Y-1479232D01*
X270200Y-1476693D01*
X265121D01*
X262582Y-1479232D01*
Y-1484311D01*
X265121Y-1486850D01*
X277817D02*
Y-1476693D01*
X285435D01*
X287974Y-1479232D01*
Y-1486850D01*
X660000Y-1471615D02*
Y-1486850D01*
X670157D01*
X675235D02*
Y-1484311D01*
X677774D01*
Y-1486850D01*
X675235D01*
X703166Y-1471615D02*
Y-1486850D01*
X713323D01*
X720940Y-1476693D02*
X726019D01*
X728558Y-1479232D01*
Y-1486850D01*
X720940D01*
X718401Y-1484311D01*
X720940Y-1481772D01*
X728558D01*
X733636Y-1486850D02*
Y-1476693D01*
X741254D01*
X743793Y-1479232D01*
Y-1486850D01*
X748871D02*
Y-1476693D01*
X756489D01*
X759028Y-1479232D01*
Y-1486850D01*
X764106Y-1476693D02*
Y-1484311D01*
X766646Y-1486850D01*
X774263D01*
Y-1476693D01*
X779341D02*
X789498D01*
X779341Y-1486850D01*
X789498D01*
X802194D02*
X797116D01*
X794576Y-1484311D01*
Y-1479232D01*
X797116Y-1476693D01*
X802194D01*
X804733Y-1479232D01*
Y-1481772D01*
X794576D01*
X809811Y-1486850D02*
X814890D01*
X812351D01*
Y-1471615D01*
X809811D01*
X901407Y-1486850D02*
X891250D01*
X901407Y-1476693D01*
Y-1474154D01*
X898867Y-1471615D01*
X893789D01*
X891250Y-1474154D01*
X906485D02*
X909024Y-1471615D01*
X914103D01*
X916642Y-1474154D01*
Y-1476693D01*
X914103Y-1479232D01*
X911563D01*
X914103D01*
X916642Y-1481772D01*
Y-1484311D01*
X914103Y-1486850D01*
X909024D01*
X906485Y-1484311D01*
X921720Y-1486850D02*
X931877Y-1476693D01*
X936955Y-1474154D02*
X939494Y-1471615D01*
X944573D01*
X947112Y-1474154D01*
Y-1484311D01*
X944573Y-1486850D01*
X939494D01*
X936955Y-1484311D01*
Y-1474154D01*
X959808Y-1486850D02*
Y-1471615D01*
X952190Y-1479232D01*
X962347D01*
X967425Y-1486850D02*
X977582Y-1476693D01*
X992817Y-1486850D02*
X982660D01*
X992817Y-1476693D01*
Y-1474154D01*
X990278Y-1471615D01*
X985200D01*
X982660Y-1474154D01*
X997896D02*
X1000435Y-1471615D01*
X1005513D01*
X1008052Y-1474154D01*
Y-1484311D01*
X1005513Y-1486850D01*
X1000435D01*
X997896Y-1484311D01*
Y-1474154D01*
X1023287Y-1486850D02*
X1013131D01*
X1023287Y-1476693D01*
Y-1474154D01*
X1020748Y-1471615D01*
X1015670D01*
X1013131Y-1474154D01*
X1028366D02*
X1030905Y-1471615D01*
X1035983D01*
X1038522Y-1474154D01*
Y-1484311D01*
X1035983Y-1486850D01*
X1030905D01*
X1028366Y-1484311D01*
Y-1474154D01*
X1066250Y-1471615D02*
Y-1481772D01*
X1071328Y-1486850D01*
X1076407Y-1481772D01*
Y-1471615D01*
X1081485Y-1486850D02*
Y-1484311D01*
X1084024D01*
Y-1486850D01*
X1081485D01*
X1109416Y-1471615D02*
Y-1486850D01*
X1119573D01*
X1132269D02*
X1127190D01*
X1124651Y-1484311D01*
Y-1479232D01*
X1127190Y-1476693D01*
X1132269D01*
X1134808Y-1479232D01*
Y-1481772D01*
X1124651D01*
X1165278Y-1474154D02*
X1162739Y-1471615D01*
X1157660D01*
X1155121Y-1474154D01*
Y-1484311D01*
X1157660Y-1486850D01*
X1162739D01*
X1165278Y-1484311D01*
X1170356Y-1476693D02*
Y-1484311D01*
X1172896Y-1486850D01*
X1180513D01*
Y-1476693D01*
X1185591Y-1486850D02*
Y-1476693D01*
X1193209D01*
X1195748Y-1479232D01*
Y-1486850D01*
X1203366D02*
Y-1474154D01*
Y-1479232D01*
X1200826D01*
X1205905D01*
X1203366D01*
Y-1474154D01*
X1205905Y-1471615D01*
X1216061Y-1486850D02*
Y-1474154D01*
Y-1479232D01*
X1213522D01*
X1218601D01*
X1216061D01*
Y-1474154D01*
X1218601Y-1471615D01*
X116250Y-1427154D02*
X118789Y-1424615D01*
X123868D01*
X126407Y-1427154D01*
Y-1437311D01*
X123868Y-1439850D01*
X118789D01*
X116250Y-1437311D01*
Y-1427154D01*
X141642Y-1439850D02*
X131485D01*
X141642Y-1429693D01*
Y-1427154D01*
X139103Y-1424615D01*
X134024D01*
X131485Y-1427154D01*
D17*
X218511Y397296D02*
X209744Y394105D01*
X212137Y387530D01*
X216521Y389125D01*
X212137Y387530D01*
X214530Y380954D01*
X227682Y385741D02*
X224491Y394508D01*
X227279Y400488D01*
X233258Y397699D01*
X236449Y388932D01*
X234056Y395508D01*
X225288Y392316D01*
X236047Y403679D02*
X240833Y390527D01*
X247409Y392921D01*
X248803Y395910D01*
X248005Y398102D01*
X245016Y399496D01*
X238440Y397103D01*
X245016Y399496D01*
X246410Y402486D01*
X245612Y404678D01*
X242622Y406072D01*
X236047Y403679D01*
X253985Y395314D02*
X249198Y408466D01*
X255774Y410859D01*
X258763Y409465D01*
X260359Y405081D01*
X258965Y402091D01*
X252389Y399698D01*
X256773Y401293D02*
X262752Y398505D01*
X262349Y413252D02*
X266733Y414848D01*
X264541Y414050D01*
X269328Y400899D01*
X267136Y400101D01*
X271520Y401697D01*
X282874Y418241D02*
X279885Y419635D01*
X275501Y418039D01*
X274107Y415049D01*
X277298Y406282D01*
X280288Y404888D01*
X284671Y406483D01*
X286066Y409473D01*
X291247Y408877D02*
X288056Y417644D01*
X290844Y423624D01*
X296824Y420835D01*
X300015Y412068D01*
X297621Y418643D01*
X288854Y415452D01*
X299612Y426815D02*
X308379Y430006D01*
X303996Y428410D01*
X308782Y415259D01*
X312763Y431601D02*
X317147Y433197D01*
X314955Y432399D01*
X319742Y419248D01*
X317550Y418450D01*
X321934Y420046D01*
X330299Y437984D02*
X325915Y436388D01*
X324521Y433399D01*
X327712Y424631D01*
X330701Y423237D01*
X335085Y424832D01*
X336479Y427822D01*
X333288Y436590D01*
X330299Y437984D01*
X341661Y427226D02*
X336874Y440377D01*
X350429Y430417D01*
X345642Y443568D01*
X210205Y419672D02*
X214992Y406521D01*
X221567Y408914D01*
X222962Y411904D01*
X222164Y414096D01*
X219174Y415490D01*
X212598Y413096D01*
X219174Y415490D01*
X220568Y418479D01*
X219770Y420671D01*
X216781Y422066D01*
X210205Y419672D01*
X229932Y426852D02*
X225548Y425257D01*
X224154Y422267D01*
X227345Y413499D01*
X230335Y412105D01*
X234719Y413701D01*
X236113Y416690D01*
X232922Y425458D01*
X229932Y426852D01*
X241295Y416094D02*
X236508Y429246D01*
X250062Y419285D01*
X245275Y432437D01*
X267598Y425668D02*
X262811Y438819D01*
X269387Y441213D01*
X272376Y439818D01*
X273972Y435434D01*
X272578Y432445D01*
X266002Y430051D01*
X282538Y445999D02*
X278154Y444404D01*
X276760Y441414D01*
X279951Y432646D01*
X282941Y431252D01*
X287325Y432848D01*
X288719Y435838D01*
X285528Y444605D01*
X282538Y445999D01*
X289114Y448393D02*
X293103Y437433D01*
X296092Y436039D01*
X300476Y437635D01*
X301870Y440624D01*
X297881Y451584D01*
X307052Y440028D02*
X302265Y453179D01*
X308841Y455573D01*
X311831Y454179D01*
X313426Y449795D01*
X312032Y446805D01*
X305456Y444412D01*
X309840Y446007D02*
X315819Y443219D01*
D25*
X205750Y31750D02*
D03*
X156750D02*
D03*
D26*
X271750Y151750D02*
D03*
Y165750D02*
D03*
D27*
X253000Y110000D02*
D03*
X233000D02*
D03*
D28*
X114300Y52900D02*
D03*
Y220600D02*
D03*
X360550Y52900D02*
D03*
Y190600D02*
D03*
D29*
X161300Y151750D02*
D03*
X67300D02*
D03*
Y121750D02*
D03*
Y181750D02*
D03*
Y91750D02*
D03*
X161300D02*
D03*
Y181750D02*
D03*
Y121750D02*
D03*
X313550Y121750D02*
D03*
Y151750D02*
D03*
X407550D02*
D03*
Y121750D02*
D03*
Y91750D02*
D03*
X313550D02*
D03*
D30*
X237659Y48909D02*
D03*
X287659D02*
D03*
D31*
X212250Y77700D02*
D03*
Y104300D02*
D03*
D32*
X441250Y45000D02*
D03*
X39250Y41500D02*
D03*
X407250Y254500D02*
D03*
D33*
X80100Y263250D02*
D03*
X130900D02*
D03*
X105500D02*
D03*
D34*
X470000Y95000D02*
D03*
Y225000D02*
D03*
X215000Y255000D02*
D03*
D35*
X87500Y197000D02*
D03*
X172000Y201000D02*
D03*
X165750Y78250D02*
D03*
X169000Y108250D02*
D03*
X258000Y207500D02*
D03*
X15000Y277500D02*
D03*
X86000Y285250D02*
D03*
X164250Y283500D02*
D03*
X409000Y221000D02*
D03*
X329000D02*
D03*
X343250Y37000D02*
D03*
X171000Y9750D02*
D03*
X261000Y11000D02*
D03*
X255000Y153500D02*
D03*
X170705Y137019D02*
D03*
X288500Y159750D02*
D03*
X260750Y38500D02*
D03*
X96250Y121750D02*
D03*
X316500Y57500D02*
D03*
X173750Y167000D02*
D03*
X156750Y108250D02*
D03*
X295000Y187250D02*
D03*
X274750Y56750D02*
D03*
X87500Y91750D02*
D03*
X301500Y174500D02*
D03*
X314750Y39750D02*
D03*
X130000Y81500D02*
D03*
X134250Y213250D02*
D03*
X415500Y282750D02*
D03*
X327750D02*
D03*
X258500Y284000D02*
D03*
X289000Y138250D02*
D03*
X405000Y37750D02*
D03*
X407500Y170000D02*
D03*
X420750Y10000D02*
D03*
X108250Y9750D02*
D03*
X42250Y11500D02*
D03*
X13000Y63250D02*
D03*
X45750Y171000D02*
D03*
X13000Y137000D02*
D03*
X14250Y202250D02*
D03*
X87750Y245250D02*
D03*
X168750Y233500D02*
D03*
X406750Y137500D02*
D03*
X68000Y107250D02*
D03*
X258000Y92250D02*
D03*
X270000Y92250D02*
D03*
X130250Y169500D02*
D03*
X257250Y176750D02*
D03*
X293000Y112000D02*
D03*
X313500Y77250D02*
D03*
X417000Y137500D02*
D03*
X376750Y217000D02*
D03*
X334500Y192750D02*
D03*
X371750Y148500D02*
D03*
X41500Y89500D02*
D03*
X409500Y74250D02*
D03*
X335750Y105750D02*
D03*
X334250Y121750D02*
D03*
M02*
